<mxfile host="Electron" modified="2023-09-15T00:59:21.248Z" agent="Mozilla/5.0 (Windows NT 10.0; Win64; x64) AppleWebKit/537.36 (KHTML, like Gecko) draw.io/21.6.5 Chrome/114.0.5735.243 Electron/25.3.1 Safari/537.36" etag="f2lgvstIUVmIVh3GCUxR" version="21.6.5" type="device" pages="2">
  <diagram id="dZZMuVhXtmaTmdEMTvCD" name="第 1 页">
    <mxGraphModel dx="1418" dy="843" grid="1" gridSize="10" guides="1" tooltips="1" connect="1" arrows="1" fold="1" page="1" pageScale="1" pageWidth="827" pageHeight="1169" math="0" shadow="0">
      <root>
        <mxCell id="rhbLxkR_ch8scSMav9vm-0" />
        <mxCell id="rhbLxkR_ch8scSMav9vm-1" parent="rhbLxkR_ch8scSMav9vm-0" />
        <mxCell id="wUh2ZJJw5XUmt6fJqwXC-0" value="" style="shape=image;aspect=fixed;image=data:image/png,iVBORw0KGgoAAAANSUhEUgAAAggAAAGTCAYAAABNtep+AAAAAXNSR0IArs4c6QAAIABJREFUeF7svQeYXdV5LvytXU6bcqZLozLqQkISvdlgQIAxFtcGNxFwnERxUWzHOCHxvTF/rjOpTnJzr//HiRPjxHb+NDuyff/g2LoUUSSKEIgmI0AFSYB6mXrm1L33us+79vnObB1GzAwaoSnf5jmcmXN2Wftde/S96/2aItkEAUFAEBAEBAFBQBCoQkAJIoKAICAICAKCgCAgCFQjIARBnglBQBAQBAQBQUAQeAsCQhDkoRAEBAFBQBAQBAQBIQjyDAgCgoAgIAgIAoLA8AiIgjA8RrKHICAICAKCgCAw5RAQgjDlplxuWBAQBAQBQUAQGB4BIQjDYyR7CAKCgCAgCAgCUw4BIQhTbsrlhgUBQUAQEAQEgeEREIIwPEayhyAgCAgCgoAgMOUQEIIw5aZcblgQEAQEAUFAEBgeASEIw2MkewgCgoAgIAgIAlMOASEIU27K5YYFAUFAEBAEBIHhERCCMDxGsocgIAgIAoKAIDDlEBCCMOWmXG5YEBAEBAFBQBAYHgEhCMNjJHsIAoKAICAICAJTDgEhCFNuyuWGBQFBQBAQBASB4REQgjA8RrKHICAICAKCgCAw5RAQgjDlplxuWBAQBAQBQUAQGB4BIQjDYyR7CAKCgCAgCAgCUw4BIQhTbsrlhgUBQUAQEAQEgeEREIIwPEayhyAgCAgCgoAgMOUQEIIw5aZcblgQEAQEAUFAEBgeASEIw2MkewgCgoAgIAgIAlMOASEIU27K5YYFAUFAEBAEBIHhERCCMDxGsocgIAgIAoKAIDDlEBCCMOWmXG5YEBAEBAFBQBAYHgEhCMNjJHsIAoKAICAICAJTDgEhCFNuyuWGBQFBQBAQBASB4REQgjA8RrKHICAICAKCgCAw5RAQgjDlplxuWBAQBAQBQUAQGB4BIQjDYyR7CAKCgCAgCAgCUw4BIQhTbsrlhgUBQUAQEAQEgeEREIIwPEayhyAgCAgCgoAgMOUQEIIw5aZcblgQEAQEAUFAEBgeASEIw2MkewgCgoAgIAgIAlMOASEIU27K5YYFAUFAEBAEBIHhERCCMDxGsocgIAgIAoKAIDDlEBCCMOWmXG5YEBAEBAFBQBAYHgEhCMNjJHtMYATWrVsXe/nlAYvo9VPcxRxqby/6a9euLU3g25ShCwKCgCAw5ggIQRhzSOWEZxuBzs5OK9ZxbnP/4aONqXTdebl8MVUq5ahYLFEQlMhyExSzLXJdm2w7RspyuosDPdvrkrUDdfXpoLa2lmrJ8j/xiQ/0KKWCs30/cn1BQBAQBM4GAkIQzgbqcs0xR2DdunV2N1GttmoWHTncPTubGbisWMgsLRYy8/xSMWaRRcq2CA984AcU6IBIE2mliZSVdy1nj+vG33TjbjEWi1EiWVPyPW+n68T2xJxYNplO+X6hdMCrpYxzuDYkDQurbmM30Ze+9MGiUjipbIKAICAITGwEhCBM7PmT0RPRPevWpYv9/iJPqVu7eo6fP5DNziGi6XGta2y/FA8CnwJj0kEGFOlAkw4C8gOftNYUaE1aBwUiXVAaO9kUKCtQmvp8ov2uExuIp1JeIp48GHPdl2OJ+Il4PK7JhgJhk23h3SVyrCBX6N+e788faWxOeOHk1FN9dJYaW/xP3HBxn5AIeXQFAUFgvCMgBGG8z5CM75QIaK3V//zBD5oTeeejmWzv6kIpt9Qr5ht97ceU0lYsUOQGpLQfGCJgXlAQgsAQBPPOn2lPa+2ThsYAZUErCgJNvg5KmpQOtNKBH+QpoBNkWblY3CXLcajk+yFBcFxSFgW2ZR1S5LyqifrjrqvjToJStfUEt4WVsMlNJguWom1WTewNS3mvvbxxY7azs1PcGPKcCwKCwLhDQAjCuJsSGdBIELjnnnvcgSDRFnMStw4MdN1BgXeRsryY41qWF/hULBbJ8jS5gQVrb4gBLL/GD1ANygTBkASCigA1gUkDiIPhCUZdCHxNnudT4BNZlgpIKa2s0GWhA2VIBnhFoIlKJa9ESuUS8YSfTCR0fW2akslaSqQSpFybnETcd+KxE8p19wSWes4L8v/R3929p2vmzGznypVl1WEkCMg+goAgIAicWQSEIJxZfOXsY4wAYg0o3jovk81cXMj1vyef6bvStYJzFXlJTVopS1GgiEq+JvICssprczzoIALG8IMc6IB8xCLA6msiQxO0Js/3yPfhkiirDH5AllLmBYnAsiyyLYs8P4C6YNQDpSxzbttxqKamjhobm3RDYwPFYvHwOB1gZOS68ZBUKAosxy36Wh8PtP9kEOhXbcfe1defe+7VY/v3dq5ZUwj9IbIJAoKAIHD2EBCCcPawlyuPEoHOTm1dcuVT52Sy/Z/p6Tq2SnmFtritanVQcmF2EVPgBVjJK/KMmwCBiIN2Fr+DBChSJxGEUADAZ0Se55lXSBxCJcF1HHIsx6gEijT5AUQEy5AIKAuO61BzSystmL+AbNuhUqlEuUKelCEVoA4eoiHJtlyKxVxDKizzsrRSasC2ray2rN5siZ7oyxce7Bs4/oR/PHZsYGCX7uvrK3V2doqyMMpnRXYXBASB00dACMLpYyhneJcQuO/hF5blir2fKeZ6PuQVc3PJDyyLEGQQKKz6wxeRDzNugg9D+QCGOoxBCA2+cTawggC1oPyhIQilkCBgAW/bFsXcmDk+8HFW0ANNvucZUoDT16fT1D5jBrkuiIFH+Vye4GUAlQivH5CyiWz8j5QhG/F4nBzbIcdxyTGKhK0tx9ZeQN1k2/sD0nsHBrKv5HPFnoJPx7Tyny/2pF79tV+7tiDBje/SwyaXEQQEAZP1JZsgMO4RgGuhpmX2nV6h/0uWX+pQimxY+9AdgFdIAPDO8QXsKmCCgM/xGTIPDIGIxCEwwYAiAHIAVwJejuOYY7C/67pUKBTM7/i8Y3YHtbS20IkTJ4xqgLgH48Iokw9WLPg6uC5SKEEQ+B3nxLkcZEOYWwgCS1lFX/sDJU+X+nK5XE+utNNKNd4fq0vfu/qa8/eJ+2HcP64yQEFgUiAgBGFSTOOkvwn14OZfLPGL/b/vBt6HHYtqQyPMqkH4Xm30Q6UgJALYsA8MOX/O72zc8T3IhDHYjlM5Dp9BVYBRB0HA++zZs8378ePHK+MAQWASgv1xPr6uiV2wjVvBEIREIkGpVMq841qGKCgLKRZkKcK+2ieLtOXo7v58vmug8IYVT/4k5sa++4kbL9snSsKkf+blBgWBs46AEISzPgUygOEQ2LDlleZUUv9SUMx/1g68ZUprhzMRmADwO5OGKCmAsTaZBuUURxCC6O/5fD7MerBQXdE17yAFxrUA14SJOVBmn+bmZpoxYwYdOnSIMplMZeggDlFywLEMuFZUQQAZwPmR9lhfX081NTWGaOBzBD8alcEQCUUe0ix9Rb6yqaSVf7w3u7dI1o9rkqnvrP7A5XuHw02+FwQEAUHgdBAQgnA66MmxZxoBtWnXrha3RB+3yfuUG/jnWzpIoa5BtQoQJQhsqLn2AZMGJgWsJMDgR8mCMdJl90OUQOBa2Leurs684FIAIWCVgOsp8O94x3nxjv26uroMocC5Z86caYgBlAO84wWyYJQEFwGMlsl8sC1kTiA7AioCCEOcDp/oKu3atWff4ePH1tUmY991/AHTYOIP/uAPEOwoWQ9n+mmU8wsCUwwBIQhTbMIn0u3et317U0ui7jbbL37KVcGFDukE+boSdMiGme+JCQF/zu4EXv2z5I/fc7kc9fX1GcOPFTxW8ljZR8+F/VkJSCaTZp+DBw/SwMBAhaCwOmBSJMsZEHhn8tHd3U1btmwxx+H8IAiXXnqpORdcDCAcDQ0NVFtXR6lUDdkuMiZADkzShAmEdJwYFUsevbb3DTpw8JDf3de/p6Ym/v8nU7Vbf/5/7mtsbG47sqA9fd9f//VfIz1SNkFAEBAExgQBIQhjAqOcZKwRQMOlm395zS/HFa2NWfp8W/s1tkKKohXJRAhrF2CrVEWMxBywm4HVhjB9MVQfenp6DEnAhpgAGGs+D+/PhILdAvv27TOkAoY+Skb42kwoOJAR13v22Wdp586d1NraapQCHN/S0kKzZs2ixsbGiopQn66nuvoGoyTE4w7ZpiR0EEYRa0VHjx6ng4cOUzZXINuxS45rH9qxa9fxjY8/XhePJw4sXLz4nxcvW3Lv1++++8RYz4WcTxAQBKYmAkIQpua8j/e7Vg8993JHQ7r2aylLfTxhU72lA0IRJFPUqBwTgJswtQYiwYjRoER8B1mfXQxMAPr7+40KgH3xfTqdDgsgld0LYTZCmCFh6iYoRW+88Qa9/vrrxoAzcWCywe/sVmAFYc+ePYYggBggqBEBjTgPyAgIQnt7O02fPr1CFKAi1NTWUl1dLcVjMYKegViEvp5eOnDwoFEoEC/hujEaGMjqn6//eZDLF6xsIZ+ZO3/h5mmz5zx05ETvm++7+urNX/38GmQ7yCYICAKCwDtGQAjCO4ZODjxTCKDHwpM791xS4zhfq7HUDTHLSqACQai7gyGERptfTBSiAYv8GVb/MPgw6iABUA0QE8BZCZD68Yoea4ITyymQ2G/Hjh104MCBChHBeSrVFss9HjiuAd+BKCDm4PHHHzfxCnAjsHqAa4OIzJkzhxYtWmRcDvjeuBzMWEK3QzKRNEWVioUC7d+/37xAFvAdrrX5ic20d99e44domzYtmL9gUfcvXtnRWwwot2jJsp+eM3PBX3Z2/nbPmZojOa8gIAhMfgSEIEz+OZ5wdwj3wk2fXPPRete9Ox4EK2KW5Rj1wFKmPTOKI/EWVRCqbxTfwWCzawGGGxI/XACcSQD1AGQg3C/sx8DEA4b8F7/4BW3btq2iVOAaTBCiqZWm1gJSKcvxByAHyHLAuTlLgpUFfNbU1GTIwYIFC6itrc3UQQCZScQTlEglCTEPUCtAbnp7e6mru5u8UpHaprXRL7Zto+eeeY504FM8EaPl5y2n7p4eve+N/VTf2KoLnv7F4mXn/9Hc5tTPOjs7ixPuAZABCwKCwLhAQAjCuJgGGUQEAbVh+66l6WTyyykdfDRB1OygR7NtUWDcCeitGFY6rFYQ+BycpsgqAgcpsmsBhh0yP2IAEH8QVk4crLiIVEcYcQQWPvnkk8YdEY0zYLdFNMaBFQeQECgOCE4855xzKjUVcH4mCCAOGAuOQdrktGnTjIJQk0wZdQFkKGwAZZk0y1KxRNoKYy0Gshna8uRm6jrWRYV8js5dtpRirkP7XoeaYFM8VatzHvWRFdu4YN6ib119+fJH1q5dGxZ/kE0QEAQEgVEgIARhFGDJrmccAfXI5ufnOLXJzyRt55dijprr+hrxemFgIIIUQyHBpAJG3QycgWAMbFk54MwCkACswmG0Oa0RK3gQBN5gvDlmAftns1l69NFH6bXXXqsUSOKKjOxGYPWCjT/e4Vp47rnn6LzzzjMxBhgPyAhXT2TywSmQ0UwL0zYaFRXtsA6DuVlSpvcDuk2ilLPnlajrxAnqOtFFmf5+mj59Gh05cpj6+/qohOJM4BW2q/N5r892nAcuvvy9317c0fbEnXfeKRkOZ/zxlQsIApMLASEIk2s+J/TdfHP9+viKljm3J+3gt2OOtdSxLNcYSUMIkMFgOi0TqixHixkxOQjLI4cGljes0iHdIxYAmQsgDVitI5MARhsbxx9weWUY55dffpk2bdpkVv1RNwbHJ/BxfCyugfPDJYG0xXnz5hkXAQgBroMXfuZz8ZijhZ04+JEzJKIBl1yFke+7+jjEKuTySN3sp1w+b1pXdnV1nSj6+vEFy8//tyWLlj5Z3zwtt5/6Mp2rV4vbYUL/pcjgBYF3BwEhCO8OznKVESCwftNzrYm4+5WkTWtilm62LEuhTTJIAUoGKRU2TFIqJAjYqt0MUeKA72GU4cc/evSoiT3AhswBzlzgjIhoxgPUg5///OdGDYi6KzijgUsy41gYbpwfwY/bt283AYSXXXZZhQxElQNWNzAGHj8XdYqOI3pP+DxaeInjHvhceAc5YXUDv2PDmAqFku7P5wdyvr+nbfqM59MNTXst29pJynol5riZGrdZJ+oT5FGxEMscO/Tyyy/rzs7OwQCPEcyZ7CIICAKTFwEhCJN3bifcnYEgxFzr95Iq+FXH0k2WZZcJAhSEoEwSEHgYuhGYIHBdgqjLgX+G8URgIlIMsWFVj1LJeGcVgI/ngEaoBwgyxDaUghCtgcCGfteuXYQ6CRdccIGpeQDDzvUVsE+0SmOU2EQLLfHn/M41HvidJ5RdJ9FeFEwwmDiEagXCGGztKzSKVAOBDgaUcvssZe8jS52IJWp0Ml5D2nZzfqm03XLVq4cPHH7xgkUzjq9evTpsJCGbICAITFkEhCBM2akffzd+7wOPz0jVpv57XAe3OSpoUKgfDKVAaQqLJOEF1SDstMgbuwaiBpZX0jCiSC2EKgCjiYBAuAC45gGOYYIAI444hQ0bNpi0RjbM1ZkS+BzHMAnAvq+88grNnTvXxB1wYSXEHuCaYVxBqHpEjT2v+jnYkY171MUQrf6IsXKwJMdZ8DmrKzqiOiTcHUePHqEVK85F+qR23JgJfCTlFF3HRWEJ0toix014/dmBnr17Xj/gkfVse/u077+xYsELPxqGJCAddfXq1WYifvSjHwmhGH9/UjIiQeC0EBCCcFrwycFjiID63w9vOa8ubv+lG5SutnSQCAP1EJzICkIYtweCEA0QrHYrsLsA78hAgNGH0YXB5tgANsrRmADsg6qHUA9AKFg9qCYIUcOOfZ5++mkT8Lh48eJKF0goFByDEI0fYOMfxa36s+rrRZWDodQEJgvYj90giIf42c9+Ro2Nabru2qvJcZARgRISmvJ5pHv2UypVSw0NTaRsh/bvPxA89PCjXl9/9vic+Qvum9sx67sL5yzb1tn5xcGOVJFBd3Z2Oke6M+c+vfW5y+oaGvPLl614+G/+svPgGD4PcipBQBA4ywgIQTjLEyCXDxGAwbnshltuc3TpbkeXzrEDz0Zin4k+MIpB2cVQVhCq3QmMI3/OCgPUA9QhwO+oXggFgVf/WJ1jhc9GFfs99NBDhAqIQxny6FzhOOy/e/duE9+wYsUKQ0BwfXzHBIHjA1jRiJ43SnKq3Qmnci9UPy/VAZQcHwGig7FdcsnFNH16q8n80GBaStGOHbvo1Vd3UG1tmmbNnE2JZJIOHjpE217cRgcPHtKtbe3Hlixd8uiSc1c8XihmHp0/e9ruu+66K6xLXd6+9KUvzdr+yq67jnX33JSoTednL1jwr3M6Fn7/G513dZtpk00QEAQmPAJCECb8FE6OGzAE4foP3xGj4t1W4C2yAs9ip4KGdQNVMHEISGoYbMfMhICNfJQ4YHWPmgN4ISgRK3wY8WjfBkYPpAGxB0888YRRHThbIWrEo/vi3AhihCFeunSpyYrAhvMg9gCFjjhrIapo8Cqf36NujGpSMhxJqR4b3xfXaeBqkVYYt2gIwrFjx2nr1mcpny9QLJagmBujZBJ9KBT19vbQgf1vml1nzu7oU7bTRZb7yorzVvxrembTzzrvvLMPX37zm9+MP/jwxo8efPPN/5asqVlqxePKiqdeamyZ9u9zF878l2/8/u+HZSdlEwQEgQmNgBCECT19k2fwTBBcP3+3S94iCnzLhNMrG8mNRCaDASQBIQkn10BgFKozGrhyIgxnR0eHCU6MZg+wAcZqH24IrnsQjTEYCmGcD3UVXnjhBVMNEeeGUoANpCCse5AwpZGZNETjJPAZxwxEsxeq3QdRMjHSmcY5OL4CaoJRLhSZWgogBS++8CIdOHDQjC9AyWokjVouBTowlRpjrkX5QoFcN66VbeuiF+Qa0k3PzF04/x/bm1seTqVSwZEThy56/NHHPmMpWplMxetKng83RbHglXbOmrfon+YvnP29r999d5coCSOdNdlPEBifCAhBGJ/zMuVGBYJwxfUfvsPx83c7FYIQxiCERKFcBwHNk0yq4+CjG81oiH4OFwAyGFDKGLEHHAsQVQfwM1b8iCN46qmnTCokG+3qOIUoEcG+WKGjIBJ3ggRJQHAgxx6YYZeLNkXTMqMEoToIcSjFYijiwGOpViCiikrlIbLC3hIvvbSddu/abWI44jE0nQoo8Dm2MFRpbEtTLBY3hALuHeCfzxezjU2NL5275JyXmpoagsc2Pjb/+InjF6Rqahpdx1ZB4JEOUI1Slax4cvuCJcv/rWn2nH/707s+L0rClPtLlhueTAgIQZhMszmB7yUkCDff4filCkEwLoZTEISosWYlIBqsB4PI7ZzRFAkuBjbGHIMAg45joR48/PDDpiESByCyy6LaOOO86MiIlMbly5ebJkycwgiiweSgOkaiWt3AebkGQnW2RDVJOBVBGCojgpUKDrDE737g0eFDh+n5F56nYqFItoX7NvTFVKRE2qhRExTGVDJBoY6NIlIoTQXXBJEOdGnmjPa8Yzt6xysvx2vT6VigcbRPMYgnQYkcy6L+QqmUamzesWD5hf+0dOmF//CFT/4XxCTIJggIAhMQASEIE3DSJuOQQRCuvP4jdygvd7elioscxCAYchAaqdCchT+ZtW65DTOrAYwJr9RRKAhGEiWVEZzIhh/7cdYD3AFQDLZs2UIvvvhipb0z9qk2vnBXgAgcO3bMpA8ipREvVhvwHZQEKAjsbogWWYoSGj5/dSxEddBidMzVc873HcWBAxQRQwFyhIqRGAN+xpj7+zPlAE1NOgjKpZyBp4lgND0gQBLAHcKxhKmkIA+4juM4Gs2oSAcKGRElT1MqmaBAF8m1iXzfI185VNR2acG5529bfN5l3ywd2P5vnZ2dYbML2QQBQWBCISAEYUJN1+QdrCEIN378DuUP3O0GxUVW4FsIOEBvAbOCNWbMrGcrIEQj+NlQcl0AkAOs6OFewCqfGzKx0Ya7AcYckf7IXEBMQbS2Al+E4xHwHUjH5s2bjRoBVQLHw8izWwHXYzUhqhgMNWtRclCtIFQTlFMdHyUgHNPAwZMo1gQCBNKwY8dO2rt330lBk+w+iZ670v5huMfMkIPAEI66ulqKxSwi7RuCkfc1BXaC6lumH7/g8qt/MGdW+9fXfuymQ8OdUr4XBASB8YeAEITxNydTckQgCFd/8ON3UCl7t6tLiywdBilipRqWR8JKFyvZwKxm2TiyVG++R8vlUDs3Rruurs4Yc2wwlFGDiu+R3QDXAkjCUAY9uqIPffgvmS6MiDuor683jZ9wHnYtMDmIEo2hYgqYAAyVpTDS9MYogeF7xz3CTQJiMHv2bIMFKkg+88yzRkXA5yAQeB+KhIRhHSPLUMRehYJH+dwA1dYkKJVKmHbZPtlUJJvqp83q7liw5CdzZnT88e+tXf3GlHyo5aYFgQmOgBCECT6Bk2X4IUFYfYfysnfHqLTIosCCtO1rkAJj/Q1BCAL/JGPORpaVAxhJGGqQA0js3D2RSQXjhf2feeYZ03kRhr7akEd/x/nQ+hlpkAsXLjTZEOxGYNUAgX2xmHsSCWHDXT1HUWJQHV9wOgSBG1LBpYL7RrGn559/gbq7e0xgIow/134Yyp0RjnNkrRgwJZZt0UAmQ8VclhrTaXLdGHlkkZ2oo/r2md0N0zp+fN5Fy//4i7d+wOROyiYICAITCwEhCBNrvibtaJkgOH7x7phVWuSQb8G94AXaVP8Ll7xQD9DRMcxiYJmclQH+HYGCcCtgdc+qQlRdwM8oj4xujXAtVHdRZMPO18HqG1kOuM6SJUuMeoB4A5AEXAvX4WuNVD3gsbJrpFoReLvMBWPGg+AkFQX7Q92A64RVE8RV7Nmz15ADfA/1IJrJUf0wjUZBgPsnUAGpIKBsXwYTRY0NTRRYLqXbZmg33XBw4YoLvzdn+oz/teYjK3sm7YMrNyYITGIEhCBM4smdSLdmCMLNt98RC/J3xy3fEASsZUEQ/HKQHAiCcTiUUxyjBIHvFStnKAcw2NGNMxfwjtTHxx57zMjxIAfR/gZDZS2g3sFrr71mDDKUiebmZlOREdeBMQYZYaLAWQQYY7R7Y7W7olopiMZTGC7EpOhtJjF6DiZAuB+oGmgetXfvXspmc2TbTiUAE6QmWnshevrREARlKyI7oGKuQAknRtn+HOnAotYZs4Kaxra+llkdDy97z2XfOvD0I49Kh8iJ9JcoYxUEBhEQgiBPw7hAAARh5c233+Gqwt1JmxZZ5FmwkYFW5AWBMXCVLIYIQWAjCcMMg4wKhnixkYUx5JbICDLE/mjLDNcCfmeSATcDkwhe1eMdKY0gCOy6gOKAzAeQBDR9QqEk9GGAooDrRtMccV0QFhhlvLhxE8bGqgWDH1UUWMFgpeBkIz7YxRJj5qJI0fgCjBnxElA+QsXADgM9y6QjGtB58uSHxa1HsgXkk0ZlS41cB5u0j5oJrp45Z35Xqr7xsXlLF/99oqPloTtXrQp7bMsmCAgCEw4BIQgTbsom54BDgrD6jqSrv5q0aTGCFMPSSESezwQB6sHJ98/R+1hBwzjDSEcrCUaDGbHPm2++SVu3biU0M8J3KKaE/XEejkXgjAf48OFaACGYPn26kfAR9AcFAkYWKgWIAr+gJHCJZR4lrsHkACt7ToOEQY+qDUwKojEV1ZkGJhSjfGLcC8YZNfY4H6dt4v5wfNhZMqzyWB0U+dYAypETBE0+eX6RHMsh31NkOQnd0NSWbWxtf3hmx5x76uzaR7/ylV8ZmJxPq9yVIDA1EBCCMDXmedzfZWdnp3XDzXdcn4zrr6dcusAi30bvAJCEqILAUjrL5DB6vLqPVjBkHz2vwnEcDDvIweHDhyt4RJUDkAXsh89wPCT6Z5991rRwhlqwY8cOozrA6OJcIBYgB0ilxAsqAjdl4vGxm4FbPnMraFY1oqSBv2PiwPEMbNhZAWACxAYe9w+ygP2hHKBHBNdECM8R1jMY3m0xcoKAYEaloSJYVChqqmkPoeS2AAAgAElEQVRsK7XPnrvbidd8/f2XL/331atXF8f9QycDFAQEgbdFQAiCPCDjBoFHNj8/t7G29i+SMbXKJr8WcgEKJSEGASl0+A39DVg1qKy6kdbouhWff9Q4RwsnoVjQ66+/bowpxx3gexACNrL4mb9HkB8M7oIFC8xniEPA94g9AEGAgYZ7AeQACgPIAhQCnDMa28DjZQON41hBiMYq4LPqF6dOcuMnvmdcA2MCYQEhAOnB76gKySRlMJDz5PbYp57wkRME7XuEHlAB3BdOQrfM6Hizfe6Cexvamv9X5+fX7Bs3D5UMRBAQBN4xAkIQ3jF0cuBYI/DEEy+21TbU3J2MqU/ZFDRaFur6WWUFIQxQDNsWh5X9uLYBG9GojM6ra6zQYThRGvmVV14xBj56PCsMbMShIkCmxwZCgJ4LIAhQJ5DmiP1glFGtkFMpQRKQ2QAXA8cisGLAxhpjZfKB8URjENgNwnEUnGnAMQy4Nu6D4xmYROAe0c4aTaZwf/gcY0JnycG0Tu5bMZI/9ZETBAp8QpCIcuPU2N6RS7dNv3/R+cv+rCNmPbd69Wpu8DDWj4icTxAQBN5FBEbyr8a7OBy51FRG4L4ntzdNa6z5ndq4+oxNXqutyi2atDKpjiiaZFbcarAbIvAazBYIayZEgwzj8ZgpjwxyAL88b9FVPRMGGG4YcRAAbIhBAEFAtgMUAhRWwgod58E1uRATyjlDPcDv0WJM0eJLTFii2QoYA5oieWXVIjr37Gbge2PywAGPTB6QromMDMRHgKjgXjDWqLsjvOZI/9RHFqSIpk6+V6SahragqX3O4fmLz/ub/37nr/65qdUsmyAgCEwKBEb6r8akuFm5ifGNwLp12u5Yuvf2prr4V2NWcI6tPajY5YZNlsloMP/pwBRMigbdRescsJIAdwT6A+zcuZOOHj1aSfUbqsyxMdbllMdocCCKD4Ek4BwwyiAN+B6uBAQkwr2AlEcu6cxBiWzgQTagSODFQYWsWmDMUULBbg68R10U7CZhwsFuCdw/yAvHRkBpwL7IrIAbBBtfY6xnXqmAiqUCpZtn+LOWrNh97vIr/vQ3b7/xX0acBjHWA5LzCQKCwJgjIARhzCGVE54OAo88/8rc9sb0n9S41oeVLtWFWQsIVrRNPIJRB4KwdgGMaNSvH80ACI2wTwcO7DepijDUnK0QTSmMkozqVENOe4SPHz0YsFqH8QU5YKUBK3UoCCAIHH/AWQscN4DzcrwAxsGuBiYC0Xtg8sL3x66JasWDlQW4OjAupF+yqoGASu5UGVUxTmde3nps6DKpbZzmLzz/8l2Lz73gj754240/FIIwtijL2QSBs4mAEISzib5c+y0IPPLII07LzIVfqEvGfsu1gzlYZCP2IAjCgEVTLAkKgg8VIXzxSjma0QDjDv/87t07Ky4DfB89prouAA+mmjTA2HJLaLgS0KgJ54Gsz0SBlQOs4vHCMRyMGCUmUXcGG//q2ITqyo485ihJYKKBd4wD7g8QEsRCMMlgdwYrEGP7uAXojEE16TZ/1jnn7Zq/9II/+t1P3SwEYWxBlrMJAmcVASEIZxV+ufgQCKhnXt393tpY8s9ScftyW1HcFO8xRZOMLGDKLVdnBvB5OL0RroD9+9+k48ePGYMNw8zZCdUKAo6trhEQTQnEz9yPAWmP6MXQ0dFRWaXDSLPrIRqAyKmMHDfAaYw81jDLIOwvwUadCUdUaYi6RKJjZSKBYxBciXe4MnBejqM4cwpCQIVSiRpaZ/izFp+3c8myS/7oy5/8AAiCbIKAIDBJEBCCMEkmcjLdxoYtrzS3NNV+sTYZ/5RN/nzHtizU/MdmjGm5cFJ1Xj8HJ8JwornSwYMHjOKNDIConF9dV6D69yiWTEQcB4WNlIll2LBhg+mWuHz5cuNW4IyBaHYEG2yuvIjvuMU0juGqitEgxGgAIwdMck2GaBomjD++x/7sZmE1AoWc+DOOyzgzCgJRb38fCILXcc6FL5274rI/+J1f++BPJ9NzKPciCEx1BIQgTPUnYBzev9ZaPfnS7vltjQ2dttK3xGyrTvulcnAiYg/Cls/VQYqhwQzoxInjdOTIEcrlsqbyIq+ieX9ekfNqPLoqfzslgesKoBojlATEI6B5Ez4HCYnWVuBCRaxcYGUP0oDyx+xS4HFxmibeOZ1xqNgKnB8xB6+++qohJnPnzq0oF/wd6iGwisDEJVpw6Z1ON5OXqFLjBUStM+b0TZ+zeEPHomW/91/XfGjXOz2/HCcICALjDwEhCONvTmREoeSvXnr9yJqG2pqvBIUc2j/bXjFfxiYMVowac16JwwijUVG44i6dFDMXJQZRclBNEKqDFaOxCtgX10LgIpQE1EgASWB3Ao+pOu6gOr2RgxbhmoDRx7iZVOBYjmVgtYEDHlH6GW2qL7jgAvPi8UBVgHqwe/duQ0B44yyGarXldB8yeHt8bdHMeYuOLFpx6T/PnLvkrz57yxVHTve8crwgIAiMHwSEIIyfuZCRVCHw2Lad8xtr6/4iYdMHLPLqLLR7RgxCOZshauRhQGFk4QJAauKggfbMWU8Vs1AdaxDNIogOp5okwPAiO+KJJ56g8847z8QlVMcY8PhwzmgsAJOIatLA6ZBcrAm/gzRwzQMESj744IPmWjfddJMpzARiwFUVURoa6kaU4FTXXxi7h0xRwfNp+pzFhxevuPh7HTMWfmPtHSuPj9355UyCgCBwthEQgnC2Z0Cuf0oE/u2RrS1tNfG7pjfWr4lZ/jRHkQqNrSmPcNIGIwligLoAkOnDjAY0MwrdEdUEoZoYsDHnfaO/D7X65oqMSDFEJcMLL7yQli5dWqlfwEYb71FCwHESHB8QVTWYRPAxMP5wSbDCAOP/wAMP0Pnnn0/Lli0z94+URqgMyNhArQaQCu7VUE1Eqt0Ep/Poeb5PNXWNVNvcdqBl1uLvXLjiir/5zOr3dp3OOeVYQUAQGF8ICEEYX/Mho4kggMqKgZf7ckNd6jMt9cl2S/soiECkwuZD0RU40vygHnBHRhhJuBiqMx4GXROGApjKi4MbiERYbphJQTSDgD/j/g3ccwErd/R5mDdvHi1cuLDSRRHnRmBj1FAzMWCiMNSER6/N94nPcG9PPvmkUS6uvPJKo1ggxZH7MYBIcGpldeYDzlMdizA8YSiDA3dOpBIj7suJJyjd3JZtbJuxeea8c/6HPrHnwc7OzjCSVDZBQBCYFAgIQZgU0zg5bwLZDK4V/HZtMramNpVotyhQqIGgyhkB3MURq2wE5+E9Wm0wjOYPUyK5BHOoDER/P5kkDCoI4ecIcgwNPB938s8gFPh+9+5dtGnTY3TppZfSggXzy5kNtrkWSEJUMYgafZ65UxlrTttkww8ysH37duNeQCYFB07u2bPHlJPm9tUgD9xTIupmiJKq6muGdAD/JBgnDqIMyEJ6aYB7cKjo++S6Ccpk89TY1p5rmj7/+bnzF3+vPZX69y9+cXVmcj6FcleCwNRFQAjC1J37cX3naP/8/ls+fnEynrwr7ro3OZZqQOdikAPSPqx1RUpHrwV0V6wumhSSgZODGd+qIIRmcSjFIGrIo+dhEhF9x88w0s8995wJXJwzZ07Z1QGXyGAmRXRMw01A1IBzYypO2YSagCqOuC6UARADBCgiwwFKAisG1e6Rt1MNQu0ExaxDgqDIRzMMQxkCKpe6dhOUrKnz6punb2tqn//t5vaGezs//ytHh7sX+V4QEAQmHgJCECbenE36EYMcfOiXPr1caf+zcde6NWZbMxQRnPlkKU263IchFnOpq6vbRO9Xb9UGPWooo6voQYNtfnoLoagmD9Wkg6+DrAS84G7YtGmTyTCAyyHauygaqDjUJLLKwMQk6hLg0skgBog54HvgctB8PqgI27Ztq7haoq6M4VwK1QoCaleWa1SRsl0q+RbFUrVBMt3Y1dQy/R8XT2v/s69+9Qvdk/6BlBsUBKYoAkIQpujEj9fbBjm48dZPnl+bSq2Jxaz/YulSh9JkWworW2wwWtoYSBhkBCXCaMKAsmHFe7SdcnVA4lABilE83i6A0YzAuCwGlQf8zMWJ4ALAKh4xCYsXL6Y5c2ZHuk0OKhrDGesomaj+OXqfnCHBbaUxFtRoeOmllyqxECMtlMQEIXQvhCqCiT2wXJOxoNykbm6bcby5bfojs2bN+TvqfX2TxB2M178kGZcgcPoICEE4fQzlDCNEALUNfvSjH4URhkNs8+fPt7IqvrS+pvbTcce51bXVTKX9cspCSApM4+JyBUFE7qP1Mvc9qM4WqHYbDDfMamWB9x8kDIPtpPHdUCoFp1eCIGzcuJGWL19GM2fOqLSC5nLPQxEEXu0P5Vrge2RihOvjWtEsCf4Z7whmRD0IJk483uEwMDGg5dhEEIRAWaSVTUVtUW1jW76xdfrjs2bP/h+za/yNd955Z2G488n3goAgMHEREIIwceduwowcxOBnDz88w/H9Jbbtzg6CQOVh990E2bEEuZZFpXyWMr09qVkz2y9saWm43tY0S2nfcWzbJC1wdoFl2YYgcNYCfo4ayVOpA2zMhwItGsRX7bMfyrBGDXhUSYgabcQEIB7hoYc2mGwKZDeg4yPqNaAVMwohVVdfZGWA74lTM3F/rBBgnyghYrLEsQh4x3kRoLhlyxYTFxElTuzGiLoeGBPzHbI4ygqNwrwEmgo+kZOq9Wsa2w5NmzH7Wy1t8b/+q698JQx0kE0QEAQmLQJCECbt1I6PGwM5+I/7Hp0Tt9WvJG26SVm60S8GKo9OjJZL5CbJUYq6TxxT+dyAvWLZuQ3NjXUNOgjsMFAOWY2KAhNsqIxx5KqBcC0M1cI5uvIfyuCfCplTreqr4xeGKl2MY20b4kiY1ohxotTzxo2P0vr1683vKHCEtETsu3TpuXT55ZcZcoMASygLTHSq1QEmDFFDzj/zWNjwszsC10NsBuIR9u3bV+ndgM85mJPJD44xrgrTLXMw79MC1r6mIilKNjTnm9pmPNEyfebd06lvq7gWxsffl4xCEDiTCAhBOJPoTvFzG+XgwS0LXSv4ZScofixm0SLb0rZX8lQR6XOWSwHZELIpl81QQ0M9zeuYpbxSSUFVsG1FfqBJWbZp9Wx8/UFAfb29RkFg+Twq9Vev+Ifz9Q83RVGFIKo0RI9jo8zGGsSFV/3FYp42b95sKi6CzCSTSUqn03TxxRebEs1srEF6cE9Y+XOvhijRiRKB6D1VqxkVY19WVpDRACXh9ddfN2NiEsKEAtfnwkqGHABvkB3HNd0zC35AViyh61unv5GeNvvvmmpr7/l/O3+7Zzjc5HtBQBCY+AgIQZj4czgu7wDk4IFNm+bqkv1r2ivdZit/fswGI/CNGmCqIdoOlTyUTtbU2tpIrS0tJkOhVCwQXAvGOCuQAyLHjVHJ96m7q4ty2awxdBwYyCpCNTkYLTCnIhPVCkJ1rEKUOHBWAcYG4+u6ISl4+eWXaceOHdTU1GSqLnKKImo3wN2ADftzNgR+R2VIztDAPXLMAfediBIIvvfo9eHOAInCedDDAbUiuHQzE4Tq45QHuhYQ3AtkOYSE0vrmtv76prYN9fWtX/vWX/ze9tHiKvsLAoLAxERACMLEnLdxP+r7Nm1tj1HxM6V8/jat/cWWpVxTgseH8VFkm6IGRJayKJFIUnv7dNLap8DzyHUdUyYZmY2sHijLoWwhT91d3RR4pUqBICYHUZ96dVzASMCqlvGrj+FzVq/Yo59XfwdjDxUEhho/c7YDN17i30P3REgA2GBDUUDFRBh1EAwYehzHRp/3q86m4KwGHj+fGyRh69atRkmI9oxAPARUBpy3WCgSedrgj1LKJR1QqhY1D1pfnbtg8TcS09I/7Fy7NjsSPGUfQUAQmPgICEGY+HM47u7gkUe0U7K2rrIp+/t+sXi+ZVsxG24CU3WQSyRjbRoY49fY0GBW1B6keSONw52A/VCcByKCQ7l8iXr7+sn3iuY4LhxUvYqO/j5a98JQ+0dX2m9HGqLBf1HjjVoNSBnktMtwv7BCI1+P3QxMEEAm0C0SLatxHBQGGHDu7Ij3aNAiXw/7IjgSx0eVASYJKCgFdwOIB/ZFTAT6R6DHA86ZTCTo8P5D1NvTY1w75DrU1j6zNGve/C1Ll1/4RzU08PDq1av9cffAyYAEAUHgjCAgBOGMwDp1T7p+/fp4rH7OZaVC1xeSVukDWgcNbAlNrABUgbB+sQnqq6urp/q6OqMqmBS7cqlfSOUgCHiVPJ/6+jI0ANdCOUe/OjbgdIMRTzVjb+d2eDsCwuNhssO1E/j30BXgG1cJqxeABfshdRMFl6AigBzAeEfbPoMc4Hccy2oAPoPRR/wCjsMLP7OrA+9cowHNpUDIPvaxjxmCgC6RZgyk6cj+N+npp5+hw8e6ada8hZRqbCmde/7FTzVOm/GHO95/6SOdSkm/han75y13PsUQEIIwxSb8TN/uw4+/sCwo5X7X0t4HVZBrC3xfwcDr8orZcWJm+QyDVl9fb16WDaWgXKYHtQ7KAXakQ+OJyP9MJht2ZPT9k6oTvpP7GYpMnMrYj1aFONV4omWgOaiRe0RAYQgDCJG+2W+KP+GesUFhYZLA7gVgB2LAbomoewLHcHokv4MYIPgRQZAoovTaa6+ZIMmrr766kmoJAuEh9oN8OnLkKL1x4Ai1zuig/mJQSjdPfzqerPvDT9x4yUNKCMI7eeTkGEFgQiIgBGFCTtv4HHSn1tZ7HnnyN8gr/lYypuZR4DloVgS52i+3XLZsx0js8H0jYM/UAtBBqLlHOjQakqBsyucL1NfXT6VSKJsjNiHUGgYl+tGiMRq1YaRVCE81nur6C9GARnzHMQP4vFQq0sGDB0xXSnYpAB+OPWAVgVUDzkrg97dTQXAtEAnEIvT29hrsOVCSMx9cxyYHcSGWbVw62nKoN1vwuvqzrzjxmv9Z6tr372vWrMmPFm/ZXxAQBCYmAkIQJua8jbtRh/UO7ptT48a+nozZHybfS8GOw/hDkw7r78D5jvRFh1paWkxHQo4lQC4DtqhBDnwycnupWDIVEcIVN0othyr3WK3uca5TkQZe7VcDPtJrR2sO8LmYNEQrH8IdcOLEMTp48GCljgIMOKsGUZLABGGo7ImhxhkN4IwGY7L7gd0fcWRTmHbXgDggzw/IdmL6eF+m70R/doOvnL9uoMzm1atXF8fdAygDEgQEgTFHQAjCmEM69U4IcnDfo0/N0brw665fuj1hBfOVUpZJTQygIMCgl1sek6La2jrjWuD8e7OCBQUouxbY8PX3D1B2IHQthOoBmjUZ8/UWgz5Sg32q2Xk7gjDUMacKaKzel41v9f5cf4CDG7GqP3BgPxUK+UrGAlwL0eyFKFmo1C6oumB1SiaTH74e/86KAtwPUCYMObMd8gJEiSDbxCPHBIui3LKj9x89caI75z1sJ2r+4cC2ro2dnUISpt5futzxVENACMJUm/EzcL8/uW9Te23c/bRf6r+jxrEXWEEpZjwGlkNkW8bFYGrwBAHV1NZRU1OzMXwV9QAEwIrEHhAZn3lPd1+lTHBIEspuiLLaEF35ny5BGC0sQxOEt54lLBE9uEWDK6OFlZDOeOLEcYrHQ2M9HDkYqpojBzxGSQBfGd9xdgOwh2KBDZ+BIIT1EVzykDkS+BSjgFxLm8wSUg55Vkwf6u3v7hnwNpGb+GfbDp747C03oM3zyTc4WiBlf0FAEBi3CAhBGLdTMzEGds8997gzF1zwK44u/qZr+cscClzyPVPwyHJtQrleqAOlEooGOdTc3EqQstnAVla8VthTAZ/DWMG1kM+jyO/gI4pSy9xl8GyjM1JCciplAoSHiz2h6RTiDmCYgVFUKYhmL3BgIs7JWFWPY6hxDTWGoT5DtcpA2SbGw9Ee2RqpqCHiHtmU17Y+MZDL9OS9PcqJ/X+N+dZvrV69TNwNZ/thlOsLAmcIASEIZwjYqXLaDY89Mz/w9FctP/9R0kGTaxG5NgocKfL8ookZgHSNKogoMVxX33BSnEEYl4AUhzD+AC/I7dlslnwvMGmO4cbvMGMTZxsuIBJ9GFCXAJuDIEEnTGGMFkWKZi8wAYiWXo6icfoEwSKFgEbyydKmwDVRoEjD/aAcynqB7unPFjP54uNuovbPW63+x1atWiVdHSfOIykjFQRGjMBE+rd2xDclO747CHz/+99PzJy9+ONeMfubtgoucB0nbluOKdNrsuG0Z1bF0KBrUO+gvt6UTIbRjxpO8zOqK9poxFQw6oGpPBhEMxuYIGA9O3FU7VMRBBh4lFlGSiMIEQI2UReCCQJIAhSD6nTGkSgGI5n9IVUF6DPgauBspu1zGWcTW2qTh14YpExcSW8m15XN6oecZPI7bvbQI1JAaSSoyz6CwMRCQAjCxJqvcTPa9evX18dqGj/oFXNryMtf6diqxrZtpRUIgo2AA1JYhSLH33GopTVsdQzzjjS6kwwU1INyoR8YS1QDDGMOrIqLAb0bQuMI4jHxCQLcKKhsCNcCSABiDkAQ2MXACkK0B0N1jAEehpG6OqofnKGJCwpZlTNEgLzG7IWVH03GRblIFRhEthDoo10D3b5yH6xNN9yzpD35xLJl4m4YN3+gMhBBYAwQEIIwBiBOtVNAOZgxd8ktxULuMzGreKlr63pLKYX4d9+UQ7RNjwXtFSnmutRQybkPyydzzQM2cKE7wjc9AYxrwQ+r+aK2XyUwsUwQTBHGAMWSwgh7fuc5iH7On0X3e6cGNTrHw7kN3m5frn2A6oUopcwqAQxwPB42V6ruuxCNNzDUKEKQ3un9DH0PJiG1PHz0hQgJgpkDg3Wo3qBnBpwQ2ZKtT3T3n8h5wcZEuvnbd3zAFFKaOOxtqv3hyv0KAqNEQAjCKAGb6rt3dj7iXH118uZ8MbfWK2bel4ipGtcBPTAyAPkaJgQGJYxvT9fXU1NzUzkbYTDOgNP/wnQ9ov5MhjL9GfJR/MBI2ghPHHQxVAwhiEE57ZFT9djo4h3qA6oQwsg2NzdXgvkwb9GaBO/mPHLdA36HawHkAGQIhZDwAg5MEFg1YDdDNfmJdmQ8nfs4NUkI6RleXP46JFl8Nag4mG+HMtmiPtqb6fat+ANubdM/NHl1j69atUhiEk5nYuRYQWCcICAEYZxMxEQZxv33b5xn2+ruUrF4q9b5Zkv7RhRwY65xLdhO3LwjTTGZSBojzd0Lo4YuWnq4WCyZaonIyYfx44JC0UA8UyvBFEoqF/JBXwetTUAf5/g///zz9OSTT9KBAweooaGBLrjgAlNOmAsyRYnEu4U33wvSCnE/wAVuBZAYjAellLnXAlwMoZshbMwU7boYCgdh5cVoFsNY3sdolBGuRQGXUn/B08d78ydKlrvRTdR++1dESRjLaZFzCQJnDQEhCGcN+ol34XXr1tWmG2f9RlAY+LTtqIWaSo6lfbJsRcpGjAAMnEsm9l1ram5qprq6uoorgI0cS/4wmFjxZzIDBJKAz3l1HC1BXL0CN+vbSM8GfP/SSy/Rf/7nf5pKhHwdGNrrrruObrrpJlPamY3r6Azh6c8TV0xE4CVSGhF7gDGAAEA9qCYInMXABInfMf4ogXqn7oVT3dHocAnVBShGUBL6ckV9ojfbHdj2A6l00z3pXO1mURJO/9mRMwgCZxMBIQhnE/0JdO1169bZqZYFFzhe5k/J966xLUoQ+WSrgBw37CRIJpANGQrKZCw0NjZWDHm1esCVABGUiBeCENlA4TusuKsbHOEcg62RUeynaNQBrMi/853vmIwAGFdeYWO1DiN844030gc+8AHTe4ALBI21cX07o8uuEKQ0oiASVy8EgQldC+xmCJtYRZUDjJOx4uZL0WDFsXyERkMQTKSCckJPEtQcZdNAoWhiEqx47cOxRN23V19//qMSkzCWMyTnEgTeXQSEILy7eE/Yq61f/1Q91cZ+VWX7vujatFDrwHaQrKCRjuiZ1EZkJ/gBUSpVU3EtcEEgXtWzccPnkNlhNE1KI2IXhgg65M+gNKBewOuvv26CGWfMmEGtra1GGXj66adp8+bNRr5nZYHfcV1c89prr6VrrrnGuB7ezY1VEZACKAe4Z5AYbsIUBieGKgLi+7iN8yARQrDgyfETo2kgNZp7HR1BsEijHbcZnF+OJbWoO5PTXX3ZLt9NraNk4vc/c9N7u0YzBtlXEBAExg8CQhDGz1yM25F8//uPJFqXtKyKaX+tyva/h/xSnbJgzFwqeQXyvZJZ9aKscCKRMp0CkbZnAtzK/RXYTYCbxMoZqsHx48fNit4QCzCL8v4gDJz/D0MJQvDcc8/RU089ZdQCNvqLFi0yP6N9Mccj4HogCqinkEgkzfcwzvD1X3bZZfThD3/YqBv4jGMX2DCerqrAZIbJEGdU4B4xbtwz1AAmCNFaBzD6tq3eQhC42iKP8UypBzzmkT6EIAeouqgxVxZmOiCUviiSRcd6BvzurP+KU9f0bSsV/9c1Ky/sGel5ZT9BQBAYPwgIQRg/czEuR7L+qafqdTa+Urn60ynbeh8VB9J+qYgkeTRmNClvXB4ZRr2lqdVUTAwgO0faMjNBwL4gAFhNQz0Igw8RfBcGHeKF71lqhxF/9dVX6Wc/+5k5hiP+mUQANBAIXLOtrc0YYbgSQAgg5+O7kLwExviCJKxatcrsz70JmJiczsqcxx7tkcD3ymQI1+MeCxgL/4zxha6EMEgxOg52KzB5iSojY/3AjFZBCJRlqi1a5aqLGI+vbCr4io735bM9Of95iiW/Wxtzf/LLq67oG+vxyvkEAUHgzCIgBOHM4juhz75u3ZPJhhk1788PZNe6TnBlzKJ6h3x4E8jzPSqVG/0wQYDRbUw3kAXVwLZNDwZeVZvGTIgtKBaN4QY5MAbF9416gABHDkxkYwvDiZX3T3/6U9qzZ48xojD8IA/YFytzqBFIG5w+fTrNnj3bBD0icwLnfac6s8IAACAASURBVOGFFwxBAKmAYsCk4qqrrqKPfvSjxkDzGEwRpzEowBR1k+DnTCZDR48eI88rmXHA+LNywMGIg8WQyr0myqoLk4OoMjFeCIJpv20KWTFBCPNaQRA0OZQnh450D+T7M/mtybqa77uW+2MhCRP6nwMZ/BREQAjCFJz0kdxyZ2enddEVNyy1LKvTUaUbYhalA6+oYjEEpikKdBCqBIqMwU4lkmZVHo/FwvqHaLqEWv5gE2UfOj4DOUAwIasE4TtW0JYx6qGN1uacMO6PPvqoMfTmU60rPQo40A/vIBuISVi4cGElawJZDbgWjCxiFaAqQIHANXBNkIRbb73VuEM4M2AkuAy3DxtzXBdjQ9YCSAI2EJJoj4XqUsph6mDYxAmv6qyLqIow3DjeyfejJUh4DkAQTD5DmVyBLngB4hfjVNIWHe/pHejLFp+3kvXfy9m9P7lz1SpREt7J5MgxgsBZQEAIwlkAfSJc8r77trb7rv+5Uq7/1+piVgf5BQs+cicWoxLKJaJgEdoF+z65sRg1NTZSTarGqAeuXQ6sAzHQSM2DQkDGUO7atcu4AaKpe6ELIESFMw/wGYIPN27caD5n48hVBqEeYEWOOAYoCCAHM2fOpJaWFnrzzTfNdbDBSKMeAoIDUZwIZADH4oUaCbfffruJSQBpGIsYBB4r7gP3CfLCBh/kICypbFc6NuLnwfsLixFFVYLq4k6nO8a3e/ZGSxAq1bAqJ0WgKW6gXFET/Rt8Tccz+XxPzn82lW78fk4HP177/kt6J8LfgIxREJjqCAhBmOpPwBD3j2qJl15de0tQzP9X5efPt4NiLO5ayrHhbTZtFykIIxDJcV2qqak15ADqgSmoGBZRDIvtlVfDuVyedu7cYdSD0IWA76A0YKUMo+2bfWHQsdpH4OG9995rDCykeLgWmBzAqGJfKAxwQcBozpkzx5AE7IeCSXA14HMoC0iFBGHAd9wkCd9jQ2bDJz7xCaN+DMZJGJP99k9GWGLwpI0NLN5BSI7BteB7lSyFaAGkwRLLYQxGmJoZqjHssokSo3frMR05SRhsmhWWrhrs2xA6SvBfqITkA4sO9xcG8iV6riaV+n5DXeknq66QmIR3a07lOoLAO0VACMI7RW6SHod6B3VNHcuU8n+XSoUP24rqS8W88RRgxW6UA63MShwGr7au1hhXx3bMd/xAwej7GlkNcWNJd+7cSdu3v2TUBBCDMP2P6/5TJZ4AK3koAj/5yU9o9+7d5hrYuKFRtFcBShVDlQABQAxCR0cHHTp0yMj62JACuXjxYnMekAn8jvPhGiAerCZcf/319MlPftJ8D4LChpkLHL1l1Q7m81Z2UHELFAsFOnHiBPX0dFMsEaM4XuVyyo7jmoZMfB8hGQgMSWLiw49WNPag+nEbuSE/kw9qtO1COPNlD1F40fLDECiHciVNx3v7C8WAttY0tn2/OJD7kcQknMm5kXMLAqePgBCE08dwUp3hPzY8dW7CtT5rlfK3+qXCbKUDW9kofkRkWzYFvmcMIRf5gX+fc/dPAgJkwSgEytQuePHFF40xZ8m8OiUQ5wzrIWgTc4D9sQqHKwBGm4sHwajjZ1YUINnDsE+bNs0c/8orr1SUhuXLl5vW0XAtsIHGGDFe7MvnxxjhbrjtttsM2cE1YaxNYGU5hiJ6b2GviUEyZMxiuYaD73t04kQXZfr6TWdEN+aQG49VXAocoMiBibjfd1I+eXwQhJE9+ohSQEpkvhTQ8b6BgWxBP1fX1PwPvQMHfrz2Qx/KjuwsspcgIAi82wgIQXi3ER/H10OXxubZi37V8r3/6qpgrkXaQmMkEAT4lSGFO6aJUhgwiAA/vDj74GSCQGQ7jlmpI5YAAYPciyBKEviYMJvBp3379hnDjbgA/A4XAjIY4M/nDefB9yAn/A63BJQHdEnkcssoioQYBZADLqKEc4JQMEnAMfgO5/z1X/91U1CJ3RCnymwI183lhlTllkYmdoCUITMYMxQLBG7aMZsc13kLQeA4g2iMwWjiCyYSQQBa6M8ZkEMDRZ+O9GQKyko8ql26a80H3/eKVFscx/8oyNCmNAJCEKb09A/e/D/df39Na03T9X4u9wXy8+9ziFLxmEs60FTyPXLceBjtHwRmdY0yytGqhNXGDeQAAYwvvPC8iSfgwEBeLUffeRTIMgCRQLoizo3rwZBzNgC+h3TPigAIAlIaYfDR8wHvnAIJww+iAMIwWM45fNxh+NllAUPLJGHp0qX08Y9/vHIuEIuh0gq5vkM47nLHybIbpDZVY8gBAiVBruBiQMnJaPZCNBshaugnJ0Eot/U0MQlIknUoUwj08b7cQT+wfpiK1/zdL626ZA97J+TPURAQBMYPAkIQxs9cnLWRrFu3LlY3o+MGXdRrSeevdgI/jf5LyqQxWmTZjglKhK9ce6WKpI8BhxUAw0j86Abj/sb+N00FRAQEYpUOkgDDzMGAbBxhGLEPlAIQDxh97AdVgPsQcOQ/yMHjjz9uiANiDuBiwH5MDrCfqeKow1RJpDtu27bNGG3uw4Bzc+AjjmWXRXt7u3FVIIYB41+9erU5d/UWKFR4QPxE2JJaaWWqQcLtkSjHGvT29tCxY0eNusLBldzVMnrffO7RpjBOHAWhXDFBgSAo8rRDnopRtqiDnp7MXt+K/dByit/+5VUrDwhJOGv/BMiFBYEhERCCIA+GeuDxLRcXC/mvBMXCDQnXbnQsUq6lqJAvmE59luOaf9yNzO8HdM45i42vHiv7MJDPxCdWfOkwiAcOHqAXXnzRGFsuasT1Bth4A3p8h3gAkAOcC+oBNhj32to6cpywiROMPkjEhg0bjLG/+eabzUofgYocbAh1AePC5zDGiH145plnTOYECASnGMLtwU2S4KIAMcAL++BaTzzxhLm3iy66yDR5wndhUGXYc0A5RF5g8jmItEU6QI2DFNXV1FSqNkJQz2YHqLenp0ISgAs2TqmMqhOjLYA0oQgC6mFo3zxDaOoUKJd8cihb8L2uvoHdgXZ/HCPrH3/pI1eKkiD/HgkC4wgBIQjjaDLOxlC2bt2ayuvYr2czPXcWcpkFttKWi3oHVmiYle0S7CLWy/v2vUFLFi00K3cYWFOqGFkNiFMot19mMoC4g/0HD5h9sHI3xrW88bEwmJD3EXMAIgFDzPI/5H2s3lltwDEw2lu3bqVZs2YR+jDgeHZdQCVAKiPSGkEyQBTgrtiyZQvt3bvXxCvgu/nz55sgSAQvYszz5s2jBQsWGFKBbIjt27cbsoKfoTIgdRLtoufOnWvICAIvfSqRcmxSZJk+RaWiTy1NLRQz1RhBbvBnFaoM2YEM9ff1m2vh3oYqfjRa9cDwkjGo+vjuPG+aoEShoJIZt6FVYR+HUmBTJu/5PZncXstJ/bAu4f79h99/yZuiJLw7MyNXEQSGQ0AIwnAITfLvN27dtkLn8r9dLOQ+HHiFJsvSynWUKXgEG4SURlTHc5yYcTXMap9eyUSI9h2I/gxZH/0T8sVCpXJhtKsjIIVRhNsBagBW+DD6MMowfNynACQhrA8AlSJ85zoJbGhhdGHQ0cgJ++AcUAqgDHCpZigJ2DhOAddFRgXOB6LBtRIOHDhgaihEqyuC2IBEfOxjHzOFmIqlIvnkkVaaAq2op6ufXnhhGy1fdh4tWrgwbDJlWYRmVjCMCM/L57LmPocM5qx6vkYahzBxCEJICww1gNJUsf4IgXXI0xb1ZHJez0BhtxNP/DiVqv3uR1ZeuG+S/9nJ7QkCEwIBIQgTYprOzCARe9A4Y94XySt+MSiV5lJQsi1Lk0laKFf0831NJQ8ljhM0Y+ZMqq9JGWOHjZsMwaix8YOxxyofq20EN2KFHzXyrAhwRgNW95ymyBkGMPrcDpn3x/U47RAEgg0kDD1iEqBAmDoN5bgITqPkdMU83CWkK+mOOBcUChATBERi/DgPPgdB4MwG3BtUjmXLltFHPvIRamltoWwpS7ZrU6kU0C9efFkfPnRUL150Ls2cOUtNnzZNxeNwJYQliC2kOrqWISSciRF1sVQb+slIEDjrw1SP0GUlyZTodqjoE2nboaPd/X5fNr8znqz5811PX/0vnZ3oDSmbICAInE0EhCCcTfTP4rW3b98eO9Ldf0PJ836LfH2l0jqltYcwsrIcjLK/ylQ4TCZrqKVlGiWTKXLtsEdA2DchXNXDYIMIgDhA0kcsQC6fN1UE2d/O2QUcc4Df4QLA9yhyhA0GHufiFysNuFa0iBATEnz/5JNPmowBHFNxe5RJArs92AhzrQU2wvi9ubmF5s6dY1wLCIAEWeHrYj/sAyKEccLdcMutt1BjayNli3l6442DwbZtL/euWHr+idbWaUgDTdfX1tU3NzfEbFsp27HIUYhVCF0wwIfJ1anSGycjQYACFXZ+1GSh+6chT6aVF1iCyWzI+5r6BvKZfJ4eUvH0N9tjF21auVJ5Z/FPRC4tCEx5BIQgTNFH4N4HHpjh2PafuLZ7C3m6MSyMjOVc+A84qh36QUCWsqmxoYkaGptN1D7kc7wg9fNKGIYdigHHAYAsmGZFRj1A556wYFJILDxTTwFxB0hDRIlkLmIUdmpEVkSYZVC90q5uYoSaCc8++2xlPzboUWIB4w6CgfHC9RCV+fn8IBaoXVBXBxdHWEip2h2Ac2Ocd3zydlq0dDEdOHpYb37y6Z50uuWhyy+6YlOipi4o5ksLBgb63pNMJpe2tTbVx+OuUrpEiFrAHxqug0DLvr7eckxGiMtkjkEInQshQTCKCgIWDR4IbNGkbYs8FJ1yY1TwdNDbmz+R9eiBZKzmbz9+46VPKSVKwhT9J0puexwgIARhHEzCuz2E9Zs2tdqed7vnF38jGYsttsmy0Y4YwYZormSpMHURxjKZSFJra1sYYIfUQWQ1WBYVigWT4scr/x07dhiCAMOP1bZZIZseA4EJTzPdCZE2SdoYa8QFIF6gra2tUpmRKzLyqh0GnAP7cF7I9Ag2hEGFXA9ygIwE4/cvt4A+FZbschjqezNWHYTExyuRZYWFjZjUGKVEKXNvCFi8+v3X6adffK7Q1d3/7JxZc/6kvb7m8WRyfpBIdLt5K32173ufSiXjK5uaG5tjNsLxQsOIoozoWFDI5wyhQp0IxHgoBISawkuhqj4SFWFixSBwcCIo5mBdBJ4Lc++m+Zeikq90Jls8kveKDyrb/fuWuN68cuVKURLe7X8k5HqCwPAdaQSjyYYACiK1JWvvCArZNbalL3AsStoKqXrsNlCV2gPI7W+f3k7xeMIYSNOgCfoClIVK/QNNb76535Q4RiEjqAfsv0dKpDG+kOod2/wMAvL6G2+YayA4EFu0iBC7ElgNwHW4wmIymTDdGovFkqnOiL4LXLqYAxlHM19R0mCMN4hPoUD5fNGMid0W2A9jz2VztPL66/TMhfP8ffv375w3b/4Pmxznbz75yU9283XXrdsea5jlvyeTyXwhHndubG1Kp5OurRxbmRoSUGfiMYfy+ZwhN8AUiopSaHldbnMUyVA4FVmYaARhpPMCPDxNui9TON6XL9wfT9T/LfUfeHr16tWDaTAjPZnsJwgIAqeFgCgIpwXfxDq4s7PTuvr6my7MZXOdgS5em4zZNY5t8hVMoLnnhXEF2GCoGxqaqKmxqXKTYS2AsAARy/1YVSNtEO4CGFeW840a4YV9EyzbpkIpdEl093TTia4uk4oIlwITBFYB+J2NMq4FIoDfUcQIMj+yFnBNdmXwan8kK+/KqjVihHEvsM1wf4SERBu1AtdOplKGLKAb5bTp0+g973lv6Vh/z2t1jc0/nN0x65/XfPSj+6plcAR/plrnXV3wi59LxdxrmxvTLYmYo1Tgk4MAUPIJmZBQUvor/SngaghTS6PGf6oRBJM5oywqBaR7+nNHBkr+A7Ha9HfVdZc+sVopIQkT658cGe0ER0AIwgSfwNEM/7HHts0vBvkvlArZ22wrmKGDkgWfP/orgBZgJWuCD4OA6uobaOaMmZWUxsGAv8FOjrg20hkR4Ae3AgweuxfQ0RDKhDG4ZdcCyh7vP3CAZnfMNhkErEIgMJAVAyYfMJIgCzgGK21kG+A7BBKiOiNcDDDcHCzJXR9HShKiRjhM0QzVjnActiEEyF6IxeOUTKHIUpKuuPIqHQT+4aLWP5g5Z+a3v7xmze5T5eyDJCSnL3yfX8qvTcRiNzSk6xqSCVdZgW8yG0AQXMemfG6AMpn+Ms6hq2EkBGE08z7SfceTKmGaO3la9wzkjhU9uq+usfnv6kpdW8XdMNLZlP0EgdNHQAjC6WM4Ic6wfv36uJNsvF1R8Du21ost5cd85PT7JSP/syIAA5+Ip4yUjxV+uJIPVYPQz68r3Q6hBGx78UXTECnMeAjdC8aVgE6IWCuXyQE+N9kGibipJ4DrsHsA1+FCQgwmExLUJkAaImoYIAMAdQpAEtjNgf1wLh5/lCC8XdxBdNLCVTvcJigZHboTQJzgysjlC5RI1dDyFefRtPb2bC5ffCzd1Pj/LOlof2E42RskoX72kqvzhdznEq67siFd15xwbOWosLIgiBmKUuXzWcr091PR1J0aDFxkNWGkpOd0H8TxQBC4abQp7a1MGqTuy+aPFvzg/kSq/u8/cu3Fm5UoCac71XK8IDAiBIQgjAimib0TyIFV3/ReVSx+2SF9g2OpVOCVzNzDweDp0MBC3nWdmKkDgADCUsmrxCMoFab7sdGCBA/1AK4FKAecvogofWOwEbUOlwQIhg7MfliRz5k7x6gVTDi4bXM0jTGU/ENDiXPDrQDygUqJiHXAxsafV/2ccvlOjGlU1jfjssjcu+O6VCh51Nw2jS697IrivgMHX52/YP63ps+d+YNP33JL/0ieinvuucedef6VVxVzA5+Pu+4NrU3phriN3BCoCAHhHfEJ+VyO+jIoGz1YlTI6rndyXyMZXzVRGu0xY7+/0VDCeBdTltkyJOFET98JbTn/pznd/LdO6bytkgI59sjLGQWBagSEIEzyZwKr2KYZ86/0i7nPkFe83rGo1SayKvUJYPTNP8hh9kI63UiNjQ3GOCMmASmHJgMBwYZIczQr66IpX4wXCAGMN5dU5jgEJghInuzu6TGrfgQlxhNxE5MQDUzkuIPq1TOmhls1v/HGGyZLgisovlUBCOs2RNMGR7MiBjkKGyvZ5CJmopg3aZ6JVC1dde3KIFfwj7jJ5L31bek//m+f/vTB0Tw267Zvj9X2W9cWCpnPJVz72qZ0uinhWMoQBJAzhTbaFuXyRZPdwD0ucC98D++G22E0eI3m/ke3L2c54KgwswF1FPJFX/cN5I5o27m/uaH174+/+fJTwyk4o7uu7C0ICAJCEKbQMwDloL555mWFXP43glLuRu0XmmwVoF6NSa8znRrLAXowDihPjG6KYQ0C7BNK3pDe2TCDIMBVsHv3bqMIgBiAFPCrkuKIf97L7ghkLaRqa0yQIQgDF0IaihhwNgKvmEEkQC5QgAkuBi6/XE0QWEk4HYJgpA1jrJF6GHYPOHf5ebq9o6P7yPGu+8+/9NJv+8cPb167dm1ptI8RlIQ5F73vmmxmYG3cta5vbkw3JF1LWb5HcdcycQkIUgRBMCmQnndSfYRTFVYa7Tjebv/xQRBOmtly9wZFZNkopKR7M7ljTjL1H5TJd37sYzcdGsv7l3MJAoLAyQiIgjBJnwittXp0yyuXk1/4zVK27wZLe60WeVYQlExNJGU5ZmVmbKJZqcdMjQEEDJqyAGiwU1nBhiQBq+v+/j7TQhnNjrDSRZAgVASQBf6dAwcdZRm3wN7X99HFl1xizo2gv0QyYRQEyPlc+4ANIK6Jz5kgIEsC5AAplNj3VNtI4w1OfYIwUBPxinCNuK5N8xctpGXLL8jtfGPflrZp7X+RdtQjd955J2o2v6MNhE01dFybzWc/W5twr22or2mqiccUZoKrC0J54V4RUGbY3TJVCELYzInrJQSmfgS2sKuFRdmC5/f053cka1PfdIoDP1i1alXfO5oMOUgQEASGRUAIwrAQTcwd1q17pDbdmv6twMv/huUX2x1VsMjI2WEaGarb+UFYvAhdCNPpOhMMCMNtGjSVI/pZSTAVCYOA9u7ZbdIOYbxMHn8QGIIAo8YEAatfD6WX+zOmdfKhw4do7vz5pltjS2ur6WfA7Zer+yewOwMxC9hADEAyQBo4BmKoGRmKIIyGNIAA+R7aOUM68WnmzBl09bXXeEePd70Wr63/p1jgfeOuu+7Kne7TcM/Wre48r2ZlNt/32UTMvX56c0ODTWGDLBV4lS6awNT0syiFYsU7Cb4c7VjHg4IAEkCmLHNYbdHGezn1E82d8h5R3qfsQK6wxXISf7ntqYce6OzslL4No51s2V8QGAECQhBGANJE20Vrbf3s/sdXxJzEN8gvXZmIBTEVFKlUyIaV7FC0SFtmRYbgw3RdHaXT9ZVmR6GmEK7kUfsP6zfEI6Ah0r7X91KhTAhABCD7syGDcsAxCH29vfSLF7cZVwRISLaQo3gsTumGNE1vbzfuBlRRRLYEUh65JgIIAq6zadMm844xgExwrQMORhzJnIyGIIAUGfdGgFU70bJl5/rts2YdyORLPzxn6ZLv/Optt+1RCuzh9DfEJKT7g2uKxcLnEq5zXXNjfaNtkUog3dQPXQtQa3LZrFFsuEkVKzqjua/RjHY8EIRQ1TKNtA1BMBUo8QkCVr0g7AAZkM4Vva6ir/534Nt/lVD9r69ateodKzujwUj2FQSmEgJCECbZbKMY0hXXfGh+zHE/H/jF28grtFvkW1bglY1PQAjTh9H2lUVuLEYtjWFKY1heOSzUw2mDvHqFWoDyyCAAcCfgHatb/Aw3AIwYXshuwPEoZPTyyy8b8gDjblQFzzPfxdGOua7OuDSgKiBroi5db1wIGAeOQxMm7A9ygBeXWK5eTY/V9Jm6SeBOSpPtEM2cMyc/beasJ2fPnfeHX/z0px8f654AUBIW6NQ1uVxhbSzmXFdXU9NYjzoJaJhl4iAQ9+FTLjtgqi76HpQEGM1QTYACNFG20RCPwc6P/NOgOAASZ0oyG7+YCgYKpUO9/bln6+obfuBlnJ9+6EOXZCcKJjJOQWAiICAEYSLM0ijGeP/9T7Q5tanPD2QytztKz3eVch0r7KKH4AId+CFBwKrMdqgBxrmmlhxYxXL6IBMEfofrAFI/ihYxKeCiSJDCQRC4eRMIAmoXPPbYY2b/aOGjsKYCMgXCXgdQDhAUWVdfT80tzabWAfYHQUCcA35GgyW4ITo6OiouhjOS8gfjg6BMXUJ0JbW2t2cvuOyKDRdcfPEf3Lxy5YunKog0iql5y64oy5ye515TKuY/F3PslQ3JeFNN0lXoyQBy4MCtYikqmrLMveR5RZNFAgtp+jeU9Yx3I8PhdO5zNARhNNcJyA56M7lcsRQ8lWpIf69A+f+85aqrRpR+OprryL6CwFRFQAjCJJp5BMHF66df53ulPywWcxeqIHBQm89WilxLh+71sNw/BYooVV9HzU0tFHMGyUF1NgBW8QhIxAvfhb0K8pWqiawgFApFc2LEJ2zYsMF0RwSZ4G6KUaPOBZJg+KEOJFNJampurmRQgIyg3gGuheObmhqprq6+0pApdH2M7YYCUI7lkPYKCJin1vbphiBcftXKr113+UXbzgRBwB3cc89Wd8FF9deCJLjKv645XdfoOI4hCaiPYNozBD4V8lnK51AnAe24sYKGgvDWNMgzQp5OE+ozRRBQJ4Ecl7q6+jIDxdLWdH3Ld7za4N4PXSJKwmlOmRwuCBgEhCBMogfh0S3b3hMUSl8ulLI3ar/U4FiIMNCkUXzHBHuRcSngH1bLtamxqZlSNTWEvMdoUZ5oVUK4FmDsQRRgmJkgsIsBygHXQsD7gw8+SFu3bq24K0AqQBTYfQGDzzEHcCcYhSCB2IQwQJI/Q5Di4cOHjduiubnZvOPY6jbMYzV9JqXTZDn6pvxxXUNj9r0rr9vwnquv/9pN77v8jBEEjB8xCa1+4mrKDqwl7V3fUJ9ucB1b+V6RHNsyhAVKAgjCwECGfA/NDUEewoJS0VoJU4kgGIXLiZHnaerqyeR8pTY3t836h95C8LNbrloiSsJY/XHIeaYsAkIQJsnU3/v443W1Kn6nV8h/3veL7UoHFur9IwIcigFUBETqW8ohJxajmro6Uy0RRYuMw6Eq9gCGBiTgxIkTJq6ADRH3XAAxgOFnVwM+R7bBunXrjNrAq3yui8BGDOoBsiXgWkin00ZBsCCbm/FZJg4Brgb8jHOj5wJe+Lm6ENLYTl2YuQHFJZvtp3RTS/aSK67a8N6VK7/2oeved0YJAu5j69atbtGpuS6fKXzOdujaVCrZGHNtZaMmA6ougiiogIr5PGUGMuQV/Ur/CnYNjS0eY3e2M6UgoGeI7TpUKgWkbFd392YyHtnPNDY0fSeuG3763vfOPu2sk7FDQc4kCEw8BIQgTLw5e8uIn3rqqfoBZd/sZfNftC19mV8quJClMblI3YOxjbsx5CWYRH9US4TfH0YZBYGMylBOa8TJw54LQaVREpMHvHMwIsgBXvidXQ/r16+njRs3VioBcswBSAJH4kMhgCKADAYQBAQo4nq+8buXc96RehmLGUUBqsT+/fsNWRlNBsOop9WkdiINVJkmSgsWLc7OPefcDZdfdtXXrnvfmXMxRMe5fv2uePMMunYgl/2s75eub0zXpWtSCeNuQM8MED7HsUKS0J+pdN9kMvZ/2XsP+LiqM2383DJFo1GvtmXLtmTLttwxEGowYMAESIAgSKElIaTsx+7m22S//JPl8zqb7GZ7Nvl2l2QTNo0sBgLEYGxTFMAY3G3JTZZ7Vy/T57b/73nPnNH1WLYlS6N6L8xvrJk795576nPe93mf125JIPNgQlkyXQt0X+s4bfeHRgKALfwwsso0w7LCcT2imWxjXmHRs0qGUyI6eQAAIABJREFUtPr6WY4loa/t5Jzn1EBqDTgAYZT3CRJE+nDbJ7V47GvM1K5WFDNLMg0JyZJgiqYcCoqLAscgm4zMhFnZOczt9hA44D5uvjALAiH+jfBFWAKwMNvVDQVAEFEJAiDg79/97nfkXhAqgHaAIFwDUGsEQBBhjrBiQOq5fvdu+t3ChQvJBQFuAwAIAAJIjyiHMJ+nw4zO9R6QH0FmblVhs+bOC191zQ1vzaiqfvrqxVVptyCIbgh3Q7nmXhqLRp+wZPOmTJ8n3+t2oanIkgAQA85IPCHLjHoREtjjFSAACQMkIMZDtySruzscNBTXluLSkv/KZnl/WLCgNDTKh7lTfKcGhqUGHIAwLNU+eDdds6a2TPKq39VikRq3ynJlZpBZGjthIrEhqlH1MEVWk+Z7T4aX7y4R8M/zPCcXX4ABLMrgHuBd7OpF9kQBCARQEBwDLO6///3v2ebNm+k3QgUQTyrOxT1hMQBAwDssCLAonG1qYhs/3MiuueYaAgggL+IaACknTpxkJ04cP+d66QAInPAnovAZmzGzOnTF1deuu+Lqa1YsmV+xO10kxd56QmNjo6crqnw8GA48YeraLdnZmbl+n1cyLZ0AAvI2qJJKehSoI7hfhOUH73Y+ibAkDF6P6/+V0mpBoA7MJbIBcwH0InGdBcOxsCcr98OCwpJnfQWZrywodUBC/1vO+cV4rwEHIIziHkDSvd7s2/V4dKVk6fMkS5MVxeLENgspnJGIiSdd8vmyWF5+PnN73IlMilBSNPjTG/A88GyNAhyItM1YjAUowL8plXPiJSSVxYIESeSXXnqJOAvCGiFyOAigAdcBrAhI+QyuAawFdfX1LBAMsHvuuYf+BnERgANCScgYCUuGkBwW1ozBbjZcFztRU9MQ2WFMnV55cu6Cq35TkFf6w09+cuhD55Bka8rshR+PhIJfliRraZbfl+9xKxISO1kgbCoqA3sE4AD1LTga9voRC3N6AFXfWyBtAAHggDQRCBpwkIAcI8xiUd1iwVA84PL5txTkFP742kVVr/S9xM6ZTg04NUC426mG0VkDcC28897Oa+Ja8H+ZpnaHWzZyTCMmybJJ2QhNHTt38AlUZlgSy87JZQUFhUxR+UIoQ7UPvm1wFQwkbeKhg9A0wK7UfohFHosPLAOCiyCAAv6GHxyERgCEXbt20QIvvrcrAAqgAAXFyZMnU4bHs01nKePjggULyHog9A8OHTpE4kwCHAiXBS3mg3xQHgZJYh6XalZMrWgqr6x8fda8Jf++Y3PtruGS8gUALJg0/bpYNPJVSzJv9Wd6clRFltCEsiWTmBLqwp67wW4xGPsAgeMDQrgSTxONTyAipRkWi2oWC8b0Lq/L91LJ1JIVV1VWnhjkbuNczqmBMV0DDkAYhc27Z88ed0DyLQ61tXwhGgneJTOjRLZ0GRMlPLEel8pMA4uHwuK6wXLz8lhubj6REl0ulVnYhVKcvcI0TWeSySMcoHoIcNCTh4GHP9r/tlsQ7P9GNWJhP3z4MIU6NjQ0JC0JqQCBx/FLFM0ALkJJaSlZCYpLikkQCQteOBSiqIhAIEiABuVAeaEAOTgHvw5fRAGWDLJcFBUWBqdPr/xj9dz5f9/d3f7R5WRuHJzy8asQSJgy7aZYJPKEaek3+rzefJ/Xo6ioE7D4KQpFZtFYlIWCIbIW8epNhECCX9IHhWjUQ7osDemzICAjqUgPzUm51KZEzrWYpHoYVJTC4djBTH/ebzIL83913ZzpxwazfZxrOTUwlmvAAQijsHU/2tVYFggHvqNHuu72qGyiocUkSPEqyLioqExVXUw3sLgjS6OH5UPvwJdBrgKxWCNsjqwLiELQkWtBJ94B3nsWznMrR4AF4VKwWxDEv7FggVSIiIb6+vpzeAzY7Qo+Aq6Mv+FmgLuhCFEN2dkU3SDCHAEyGg8epMRPOEiLAaJOfe21pArF/dOpBwAS7TYtnmciM9PDSieU6qUTyvdXV8/9aTwa+s/hBgeizAAJZZXVN3R2dzymG9o1edlZZT6P4tbiEHWSmQLBIEti8ZjGwqEwD4EknYSERoLMQYIAAKkcBfsCbk+XPVhDI30AwV7Cnjbm/ZTLhSMxWSwS1YKaecCXlfdcWf6UZ+fMKXLSRA9W4zrXGdM10NepdkxXwmh6uD17mv2nAydrIqHOb8iGPtMlGy6Yxk1YAiSZeTxe4h7E4nHiFGCHjp2xXSFRAAB8j99oMY1cC5wRz6MZLrSjFN/ZQYL4NxZ/sfBD6Aj5FLZs2ZL0kYv72kEIJnFEMgAklJWVJfURRG4IJHuCVQLWDbE7BEDo80Im8ln30sj8WTinorS0xJo8tbxp7twFvy2cUPKTe5cvPzqS+gWsRkFNmxrX2d26Hrs/25+xyONSvJQaG0m3SOhJYjGKbogwPc5dPArcMQrfZV8IINgBYVrcN4Nm9el7i9jdKxSGq1taMG7sz/JnrcopnfirJRUTj/f9as6ZTg2MzxpwAMIoavetp0/7jLbA7S0trU+a8fD1qmxlWnqUTO8MFgPGWIbXRzK8mqEnIwVIZ8AwuJk+IasslBHJtRBE1kAIz2ERkZMAwQ4S7G4C+4JiJyFycaUomeyx0GBRX79+PWkjIGzR7pIQ1xPABYJJU6dOpeRNIDEiwgEuCJwHVwOkl1Fm7Jh1g2s7XK5J3K4+CE4FLBYzq6oClTNmblq0YMnf3XDDle8MVubGwe5eGzZsyNJV78OWpX0hPydrrqq6PGh4aDfA5SBLMouEIyzQHUg46C1KyGmvK/vimbq7v9w6vdRzDo0VwV4KrilOfRiWK0tioWhcCwZDjZMml/+6IFP9r6qqqtZLldv53qmB8VwDDkAYRa3/wY49nwyFAk9Gw8FrvIqSq0BZLxKmqAVVdjHKdsd1EZkng0zmyR09RIfsksdi14/PQoFw8jthQRDvqQuGHTSIa+AcEdYoIh5EFAOAR21tLaVvBs8Ah8jqaLdW4N9YqAEQQGAsLS0lgIDPcH2QFQEUQuEw6TekmsX73Iw8E2CyHBkZXqu0tDRQPXfhR3Pnz//VnKrFr1VU5Hf1+XrDcOLWhobCWCBcY5n6532ZvkVel9tLGg6kushj/XgIZJBZJgeOXJqZP3cqefGy63IYnj31lr0BD95HeZpy8T0cSnhFY5qmG1Zdbn7hP3tZ/IUlS5Zw/5VzODXg1MB5NeAAhFHSKXbuPDGpM9L0f4PdXTUuxcr2qC5JQpiiabB4XCMzM8CBZUrMneFlRSUFzOvLSJrQARDsVgARkUCZGGMajxJLLCBiEaGlpQ8ZA/E74TYQbga7fgIm6bVr1xIvQSgiproqBNiAuwGpneFuAFCAXgI+Q/mPHz/O9jc0sAjSHycsIn12NdBDcW0IcQDU5ObmxuZUz9k+e+68/ze9fOGrS5dWB0dDl4C0dlFG9md0M/5Ff0bGfLfbDclFMBcZohxgVQqHQ4ncDRSjcUGA0BtoGA11YC/3xYEDerLFLLKkKCwUjnQbFnszK6fw729YsmDLSLUWjZY2cMo5dmvAAQijoG2R8W/eFRkPBLtbvqXHo9Vul0s1dY2SLHncHpJTJlJiIhohv6iQ5eZnM0jHCO0CPKZIdiT8zAAHILURX8922E3wdpBwsapK7tQS/AX8jRBK0zCTeRWQAnrdunVkSRBhkAJc2AmQAASwIAAkCElmuB1wNLc0s33791N+BqHRkCo1bN8pi3/TM3FlXvtCaRUXFZ+pqqr6xYJF1f9SU1PTPgq6Q7KItVu3FrqY+mnTMB72Z/oWu1RwEnjCKVJelFjCkhBlJpFWzyVrpsudMJR1eCHXxblWEeBc8GMgyywz02JmNKqdlVzKGrfX99MGWd75pGNJGMpmc+41SmrAAQijoKFqN28ujXeFv2UZsc/KMivB7lCPx5lsYdF30a4YAjGGYbKsrBxWWFzIVA8yH/IMjGLxxaNiURBqiQAIFNlgyeeZ7PvrMxYWAP7OFye7wBLKAVDwwQcfsFdeeYXyPOCAMBM+B5ES54OrgPLhbwAE8BJgSRC8hOycbHbk6FFWV1dHvAncT4gDiRwSwnrBeQooBwdKpCqpqPQbWF2KiydEp02dvKlyZuX3/uRPvvL2KOgK5xVx3bp1mdlFEx82NP1LWX7fXMUle0wjTtkfwU8EJ4GIi6FIr2JKYwEkXNx6QHaGHoCQUFs0TcvSdatJY9Lrviz//7txyZKdjiVhNI4Ap8zprAEHIKSzdgfh2qtXr/ZlZWXdHolGnmLMusqlqj5kaJThU7Z4xIEkq8wwGVNdbgoX9GVmJEL7OCnRvjvHggDVPSyuxEmAQBLlITjXN305AMH+uD2ghIecCe4Cyrt7926SZUY4JMoiUjkjJFNkiwRQAEhAdEN5eTlxE0BczMnNoZTVEGWCIBPeRVlxHbgi7IAInmcQMXnYm0I7afzb58s0pkwpPzhj5sxfT5s24Sc1NTUjmndwsa5Uu7Wh0Cdbn9a0yCNer2uxx+PyCAsCvVtIFR0h8CXyZIjrjQ+AgC4OZk5CcTEBEhiTyZJgysrrWf6cn+3esXnnSAltHYSpw7mEUwMDrgEHIAy4CtN3gY0bN2bEGbsj1N36BUWWbpQtOQt7cyzmXpebWQaP4ZdVhZja+QVFLDs3JxHSyM3JPJSRyyULcz7AARYL/E0AIjFv2kFBfwFCb7s4cT8dGg0JzQVcF8RDaCQ8//zzDGqJsCJgt4/FHQekg8VnAAXC3QARpYmTJjJ/IlV1U1MTg7wzsj1CwlkADUGChFpkNAqg4ePPrsHMLOFca/Lk8mDF9MrXZlTN+cFDD921ZyhzLaSjxzxbW+utyCp8zIxHv5jpz5zrz/R5TUOjdN9IYY0D/A/Uq1DD7Bd/Ix2FTtM1U/uucKyYkkn1QSGhyUyXktUdjjTJkrrGn+378Ztr1tQNl3JmmqrDuaxTA5ddAw5AuOyqS+8Pa2trVVdOzp2RrvYva/HgNcw08mTJLamKm8zGJDZsSUyj0D+FFs28ggKmkIoifNC8aQVAwL+xe8fia5dSJpcDlhByDZwrNnO5TyiuI8z/uI7d3YAywR0AcLBq1Sq2c+dOshbAmgDgIjQPACRwLl6wLsCacMWSJaxyRmUin4RCroqPPvqIHTlyhH6H57nxxhsZwiZPnz7FsrL8FrQhDh0+wtpb2yVdN6zikpLQ9GkV++fOm/dsVdXU33zsYx/rvtxnHUm/27q1oTBsxD8tW/ojvsyMxaqqeKC4CHVNWBK4ayWeBAko+3iwIFA+MhouPLW5bCPdEC9FksyuYPisx5vxek5O3s9CnS07li5dyhXDnMOpgXFcAw5AGJmNL71e+3qJS/H9nRGJ3OtxS1mGFpficZN53BkUwmVAGAk+diYxn99PZD4CB1YiM2NirSchnQRYwOIAtUQR7kiRBxb3y3M3w+UDhHOIjQnZXmG5wHWF/gK5RJhEBEYs+tj9/+pXv6IQRuxuAV6EtUMoKpL0cmLxv/2OO9j9n76fAAI+w7WPHT3G3nrrTXbo8CH2sY9dwz7/+c+zvJxc1nio0Tp15nQsNycn2NbWKW3fsd3f3RXQp06dtm3hggW/zcnxvfC5z32OkyHGyAFLwsyskscj0cgX8/Kyqz2K4kU4rGkASAIlMBYnSwJ3N/Dwx56HF31gNAOH3iwIHCTwZ1USbFX8G11eB0dFVq1AINyUkZn5em5W9o8XLaquczgJY2RQOI9x2TXgAITLrrr0/RDsdBaPPxboavuiV1EqXbKsQkrZNJFUiUsNS4nkSlh4i4qLWFZ2Ni38ZFhILPSY5AVAADjAgopFOHUC5faIc7vCQF0Mfa0d3KelpYU999xzbMOGDbTDhasBQAJWBSHPDJAALsKf/dmfs+kVlSwaCRHwwTOBhwDyY2trC/vEJz7Bpk2bCp+7VbdnTzdTlW0lpaVbozFNOX3m9MyOzu5oTk7+a4X+otVf+9rnIMwwWMkd+vrIaT9v+/bGoqhk1ui6/nBmRsZCt4t5TD1OTUzKinBNaXEStSL9CpjbYeVB2KxNpfJSIGGo+shgVBhZyBK9PFnuxGfCkmIYpmma1mk1w/+6z5fzs+62E7scS8Jg1L5zjdFaAw5AGGEtt2LFCvmapUuvN/ToD/RYbEmGy+VBnkWk+JVlN9N0g/ztsoooBZNcC4VFhUl+gQAIwscqGP7YmQs1QzuAoPMQIJ5yDPXkD1fBM888QyBBuEUAEHAAHODfjz/+OLvjjjuIdwFhIDwbyQkrCgELgAW/PxM7Y2v//oZIa0f7hkULF/38TCS4PlPTYmVlFZNOtrbHzx7d1/TUU09xXekxeqzeutVXoGZ9IR6LPpqZ4Z7rcalesiLIcCjxTJ6aFifyIqxR+BycDZOM8eceFwIKQ91HBtpUl7KQEbnVYmY4ojX58/JWZ/uzfjx/dsVeSaJ80s7h1MC4qwEHIIygJl+1apVSOqWiOhLt/BPTNO5VTKvA0nVJMuFacDMmgY3PKGER5IahF1BQWEjyw0J4CI8jdA5EiKMw3dvJaeI8mvzN87tBuib/C13X5XKzlpZm9tvf/pa99dZbDLkYABSw8OO4/fbb2QMPPMB8Ph/9LVwadvcFPkM9nDx5MlZfX7+rfNq0H02cWPLq7bffTvmrkSI78dsxZzXorRvDkhCTrfvj0cAjmb6MRW6Xy2vqeiILJOxGELiKk1YCQBesCxbcEehktuNCZMZ09ZF0D8nzXBDn6EPILBI3zKimncnNzX0tp6DgZ/MqpuxwQEK6W8W5/kisAQcgjKBWeffdTdN0l/ZUd2fHvS6JlXndLgXxi5ZuMpfqojz3SiKMD85U6AMglTNS/YpDSBxzAADtgZ5ETIKIaLcu0ELLcyydc6Rz8k+9NsoglB5h5QBxUagu5uXlEelw+fLllMhJAIOeXS3X3MeB8MVQOGRt3bql2Z+Z+WtJkX7wta99bUxxDPrbXZG7QfHlfF6PRx9zuz3z3arLS+F+pkX5GwAKYEmIRWPMMHQKj00lrI4XgMD7lMR0JrNgOG4ahn4qNzf3WVkP/+P111+PZCXO4dTAuKoBByCMkOaG3kFuUdH9oXD4L1XJrLIMXYV0rsoUomBjhwdQAICAd+QpwIuLyPKDIhJsSYyE8BBM7yL+XSysyXPBcU+o7InFV1gjxLWwYFzKHz1Y1Qj3CUACSIt4h9RyQUEBRSUI0qOwjHBLCUSi+LMjQmPXrp1xTdM/nFM956/C4e6NNTU1vcCfwSrt6LjOe9u3F3ks9b5oLPqo2+Nd5PW4vFDhFCqXyOUBIMldUOeS90Xb99b+6QSR6a7ZC5UdxgQT/B4JJNho3DKNbVn+rH/N8qmvL1iwgCxRzuHUwHipAQcgjICWRkijv7BkaVdH21OGHl3qUWQf8u5osTiBA7fiIba1YRnMgI5AdjZZDyifgq4zBTtBaOza3AtY5DHhg3sgyIvC9SAWfpr0KRMw10nA5zDpw8SP95tuuonEiUTGxXQy3FNBiPhbkBQFAMK72OHy50DgGs8Fcez4cX3nzrpj11x31S8yPK4fCdfCCGjiYS8CLAnerPzPh0LBx91uz7xMX4YXxFdoAkAsC6GxsCzEYohu4GRXwV+xpwq3R6sM+0MNsAAXAgm6yZjL48W4seLxeCgcjX2Qlen7mWTEX1+6dGmPuW6A93d+7tTASK8BByCMgBZav2HDRMWUv6nFgp9RZavINDXZhV2MCfO/xRQZiZYgd2Myjy+DdtVqgukPcGBCDMcWzoiJPRaPs2AgQFEL9kn9HHAgLA8JmWZ8B0Dx0ksv0Td33XUXy8nJJleF3T0xnFXWQ07kEst4drjM29rbrbq6uvai0gmvlRYVf/+uu5YddMLUzm0p6CRIbvP+UDj4qCq7yJJA5FchmGUZBA4Q3SDIn0Tcs3ES7JaEvlqVRpulAVQVytkAAqyqWKFwJGDq5gdZeTk/90ilbyxZMjE8nGPAubdTA0NVAw5AGKqa7uU+IM29vXlzvktWHwp2tn9JlYxql8JclqHTzk6VVQaLr2XAOiAzj8/DikuLSGoYJEWaoOFWUHoy9WHRxG4abgUs9vi3XYPA7oKgIiUsCGIhwDuyJgJwTJ8+PZk10b6LHMYqI/Y9LzSPvABAiMd1a/PWrWHDZB/esvSmZ4LB9lec8LTeW6m2dkduZr7rs7FQ6BGXy7vA41K8aFsS30JyD2YRJ0GoUfbG/L8QJ+FC/WK0AQS4rARvEWWXVdWKxOIBw7Q+zM4vfCbWkfHG0qXTHEvCcE4Ezr2HpAYcgDAk1dz7TXbtOlgcYfFPt7c1Pcx0bb4q6z4gAo8K4SKLSQZM/xIzdWTdUVjJhGKWleOnnQ2WSbGDdrl5Kme4CbCwI2QQbgV7xsRUYJCctOFzhZUi4aJASYW7QUQRCAuEcFEMY5VRvD785LCoABzg/4aGxtCRE8e2zJ4z9+clhdmvLl26dFSkbB6uetze2FhkRfT74pHIY6YkLXIr3IclSbDKwOXA+xLCSwUwJCxpY/v3BySMNoAgyktJzWIac3szmGGaViQWDVom25Cdm/+zHK/8ZnX16EgNPlz9zLnv6K8BByAMUxsipLFkysxbdKZ9JxToulI24xkuGTrxGnODUwAzpy4x3ZCYLHlYpj+LFRbn840zIg8EKVGhJPcEFgAIMKmLLId2NjqPc0/suhMpmfHokMiBAC0WBHHYiYy0g0L4W0KKua9m5bRVKy1SUItUiH/R3NKi79u/f9+ECZN+UliY88Jdd901rqMW+lrvG/fsyfdo7LPRcPgRWVHmybJMuRvQnVRVSQpUAWjaOSj2xb6vgHG0AQSMLoBPuNYMw2KSojANRF5mWcFQJCDJ8oac/Nz/0vNz3lg6zbEk9LXPOeeNvhpwAMIwtdnrtbWlGa6M78bi0RqmxwsNPSa5FJlCzyTLZAqQgCUzBC/4fH5WkF/IXB5XQsyGRy7QBE08Qx5lgMkcUspcQvfcw77jEz7l5MQNPXqrRz9BAAJxBTuBcLgne1jB4WaAGTgQDlvbd+zo9ng9L00oLfpmTU1N+zA152i8rbR9e2OhpGo1kXD8Yd3QFkjM9AIgwIIArQ0OACziJFimxSR0SWTmTGgSwi3R12O4+01fy8nPQydD9kdABQ6hIdNsoNMxyQqHwwGXy/N+YWH+f5UU5q6fONHhJPSvfp2zR0sNOABhGFpq1caNGSWStDwaDn/H1GLzFElygVOgKgrpHYj0yLKEVMwSKyktYb7MTMYMLOKUfYeS19Kij3AHuScRE0iJdrNwb0BBTNbJ94Tx4Nzohp7wSfv5fbUgpGtBkAyunBiJx9jho8fip8+c3V05Z9bfGpHgy05IY/8786Z9+wq8ulrTHQo+amixBYpkeRWFW5sAxNwenj6bWxJ6gCf1vV4UOPtfgnN/ka5+079ywYFHTrzEzzhQAIpGWvVE4rEut8vzYVZu/k8zvTPXzJghjWllzv7Vn3P2WKkBByAMcUtu3brVF7Hka0OBzq9IpnGLZBo5MmTaEpLBLtVDCzzPmcBYYWERRS3wCZnvZvBvpK7FIQCCcC0IDYP+LOS4bmouhoGGs6Vropexg7UsdvL0Ka3xyNEDU6dPXzW1quLZq+bNOzHETTlWbift2XMiT2ORmq7OzkeZoS2Eu4GSGikIITVJ1RJWKU3ja6DoG2MbINibF2OOgwXDgNIkRXZYpmkGVY///aLSkp/nZChrHUvCWBkSznOIGnAAwhD2BUQt/PHDbVWWFv12NBJarspSIQIQRKw/3hHSiMkYCYjgZ58/fz6pDBIXAP9R3L/FLKnHgqDpcRIJErLEfQUHyUfvRWp5oNWSLoAA30JHR6e+f9++Y5Yq/W7p0tt+sWDBrCMDLe94//2mTZsK1Iysh7paWx+3mDUvI8PrhrKionJrAs+PwS0JnK8C5krfXQx9rd+09Zu+FoDOS0290AOgE2rdBOINvCyp0+32ve/PzvzeorlVW/p1G+dkpwZGeA04AGEIG6i2dmuhJWkPh4OBr7rd0nQFeXMgoJwgGJK6oaSw9vYO1trayhYvXsKKioqSLgOFceY+KcIm5makdw6FgxTWCNP7xdwLYvI9D0D0ASD016KQrok+Houz3fV721rb2l6ZN3v2P9zzwD0HHL2DQenE0ubNe0raO8/8xZFDhx+ZNXtWocftlkxmMF3TmMfrZV4PwmthSdDITQ+IMNhHuvpN/8rJwz17DiS34n9R9AyyXibOMJlidoeCTT5v9s/lTPlHS5csae3fvZyznRoYuTXgAIQhapsdO47kxvTgfV3trV+QLOMK09S8LjVhDbCFFgIgxGJxyl44dep07k5IuB+wYwMgECl58XksHmPhCNc74BMYb9KLSeOeI3YDIlbKhikVDIjz+zN59+fcvjSBuN6xo8f1hsbGXZUzKv7uM5+pgaLTuEi81Jc6Gug5tbV7/MHgsa+9+eb6pyorKydWV1dLHo/LFvYqUyZRHDyEdqB3PP/3g91vBquEdnBNuhHE0QBFSGFx3dA13djj9Wb8RnKz3964ZMmZwbqvcx2nBoazBhyAMAS1jxTONy1bfrUe0VYaWuwaWTIzdS1GMedI2wwegVjgARByc/MSiYmUcxZ8WBCIOojfyTJZDQLBbg4aUo7+xKn3ls1xoNUyGBO9iJ4g3QfTZN3dAWvnrp3NObmFz0+bNvGv77jjDidqYaANlfg93F87duyYcujw0W/UvlP7WUWRCyorK6XZs2cxN+lscHKey6USJ4F20BaPnLEDyn67t1LKPxj9ZpCqpE+XsSz4CJEUzYx1dXc3eH0Zv872FTx79dWz2/p0AeckpwZGcA04ACHNjWNZlrxt2+5pwWDw69FI9CFVsUoUiclIs0u+zkSoohA6yvT5WX5+AfN4vEliFJ+MOQcBuvmyKrNwhCslgn/QE2/Q8zBjAyDwqA3Boq+rqw8allU7e/a8n9x887VvOSl4B6fzAsC0sixQAAAgAElEQVSWlc2YzFzsoZNHDn2mpbl5jmGYqqoqUkXFNDa3ei6DGJesILEXN68jqsbl8lC+DwAHWBbQThdzcfWltCMHINinRruR6lyDFUCSJEPYjGE86pph1mfl5PwmPzvjuerq6rN9eWbnHKcGRmoNOAAhzS1z6NDpKR1d7V9sPnPmQUVmFR6XqiJSEb5cMMQhk4wQR/AHYBUoLChiGRk+LmFE8rdcpIjcDJIIgzRZR3cHTc6wPlD63jFoQcAjiaiMw4cPG6dPnWqomDn7n/Lyqp9zpG4Hp+PCcvCv//qf5Q1HDjwVaO+63aVIFS5VcRuGIXF3gsnmzZvHpk2byvxZmcn2wDKZkZFJwEAQF0FkRF8dyCI/kN8OTo3gKqlRPfbxde5YI50ESaboIkQ4RKPxWCym78/Jz/ulbHl/ee211Y6Va/AaxrnSENeAAxDSWOFQSywvn3lPOBT4TiwSnedSJDd2YTDXgvxFLGgDCXJ0ilTIzcmlsEaEUXFNAoWHMdKExQgg4N/BUJCFIiEuuUychPPd8KPdgmBfKE6dOmXt2bOnderU8uevuPKKf5szZ05jGptt3FwaWUQzMvJLDx4/8mht7duPxSPRcomnGaewWyz4hqFR36yunsNmza4i9wL6FiJmZMXFsrOzmcfjIXcXLa1Q+bRJMve3Mgfy2/7e68Ln9x0g8GuAJ8RVSeH/i2txLW5Ydbk5eb+VLOV3V13lWBIGr22cKw1lDTgAIY21vXbt2nyPy/99Q9MekiQrh5mGRLt9CCAq3H+LyReHz+fjrgU3T+3M1Q55EiZhXZBMibsWgiGmmdz3O1YBgmgWWEm2b98ey8rO3rdw/vx/YAp7YcmSJTwfsXNcVg0AGLS0tGRXVM9fePjgkRvq6+s+1dnRMUdmzC2ZBgt0dRIAQP8kD1hCkGvWrJls4cKFBBKwW8buGSAik9wNLqZpIC72SHZfTuFGDECACFQSeF/AgkBaJFApSwB0Eo5SIE7Colo8pulsX3Zh7q+6wt2/vOPaax1LwuV0COc3w1oDDkBIU/Vv3LgnX9dD90fDga9KsjRPZpYKrXvKRggxREVmhm6QpcDrRQrnApaVlUUTLyZbrmnAcyzggCk3GouyYHcQOxRmJCZickEM1MWQyOg4uFUBt4jFmpubaRHJy8ujy19Iv59r30vMSGaflJima2xfw/5oe3vnniVXXvVKfm7xfy9YMOPk4JZzfF3tmWeecUUt5cZQIPhAsDswp7m1qaw7EJjo9/rcbrdbcrsUHs6o6+TC0uIx6os8eyhjlZWV7KqrruJcmITiIgAE3GJ+fyaLxzUCFpxgyiW8OXHx0sEmIwMccIvAuUcqByE1BNKilNkAC+jz3PIns7iux+O6vjcvL+812bRe7ery73ZcY+NrvI32p3UAQhpa0LIsdfPmnZ/r6ur6gmnGr5AklkmEREjXKipNQLrOeQfI0pidncNyc3NpIe1NCVEkWkLEAhQW4ZrATo10ExIchdTHuBibXJiBL6iLMAh1AnNre1sHW716NSsuLmY333xz0hKSenlaTBRMrjpTZJmZAElulR06dFhvPHTk6OQpU54pmDzpl8tvuKHV0TwYWOO88c6GqrfWr/12a2vzJ5hp5EiWpJjMIhhKJnKJMZeqMrfHQ0CVUoVbFotEowQU4BKbXDaJzZs3nywHdnluAFy4G4T1Qbi5AIp5ZvKe6Ub0PTsoEFErA42E6K2Ghhp88DGGZGvERm51uzxbCydN+W8Pi6+dPHlyZGCt6PzaqYGhqQEHIAxyPYMRfsvy5ZXBzuD3LdO8w+2SMy3LkEwDKYox+brIjRCNRAkk5OTms5zc3GR8uSAk2lnhmKixmwuEeCKmpNRtAiCI5Ev2RxlugADFx6azzWzt2rWsrGwyu/baa5LP2BtAAFiClC92pnCbdHZ1WXW769vyCgrWlk2Y+jfLl998oE/b0EFuz7F2uVfffHfRW2te++t4PHKbxCQPgAGpAuo69S2ATyz66HMCIKAvYeEXehzgG5SVlbHZs2aRu4G7IrjaIv6GuwzXIp5CIqfDhQAC6jd18R7tAMEOvBNj1dI0o9tSPBv92fk/jQeb11177bUOSBhrg2sMPo8DEAa5UesOHJje0dT6RDDQ/ZDbpZaDawjrga5rScOl1+ujXTLCFotLJ9JEjIkUVgGYZLFYit0X3jHZQko5GoskrZ/niB3Zdma9Tbi9WRfsbPN0TMjYjcKb0t3VzTxeD4ED/owXUNdBfSgyuRXgPtm0ZbMmK+qH8xbM/9t4JFJ75513OslwBqGvvrlx46LVL/5hZSweWiZZlkdJ5BigRc2yyJWA/iaAKBZ99Ee80E8FcPV6PGzChAlsypQpyb4qrAkgLvr9fgIIeFFOh4RWx4VIjHaQkI7+OBwWBGEN5CBJsoKRWFhS3e/l5WX/PNie+brjbhiEDu1cIq014ACEwapey5L2HjkypaWp4/Hu1uaHVFWa5nIpbk7awsJvkfmcuwsUpsgqRS1k5+ST3xIH17hnSVcDmXcZY4FAgLsWLG49sB+kj5DgKYjPLzUZDoWLQUjx2k3JFwQIcDEkfNXIMXHw8CHr2PHj3XPmz3++rLTkB4sXLz42WM003q/z7sYti37/8u9XhoPdy1RF8agULcP7FDQOYvF4csG3g0hYsNAfXW43y/B6qc953G4CCVOnTiWrAc4Xgl85OTlJkABwDA5Cqouht76Mcox2gCD6vHD/CdeJyWQrHIl2W5K0yev2rsrNynmnvf3MiaVLl56fn328d1Tn+UdEDTgAYZCaAeSvK6+98StNZ848aRlalSybKrbQCGuE+ZZ86wlFQJhrwTvIyclnbhcmW0WkkE26D0TkgsjSSOABCZoSwkHJSd2Ef7d/zTgUAIHIaRYPeRM5Ii5o3SARKMSRG6yto8Pasm1rfPrMyp3zFy3+D9XUf1ddXQ0/rnMMQg28+e7GRWtef31lLBpcZpmWx0xIdJOlQJbJxSDaiVwPiFZAP06AUPRHHLAkID05+nJ5eTmrquIhkPgeIAHng1cD4BCP4zMedWPvAz0chUsTGAf66JcCzQO9furvU+/HQQIcOrKlm2Y0rmvHPB7fH/1ZWT9fNLdqm8OtGewWcK43GDXQv5VlMO44Rq+xZeeeRZ0d7Su1WPQmVZH8DGGIMksAAyMJDkBEyPRnkSCSx+3lOfESAEFUDSZmTMAwz3Z3d9PCSbs5iTP97YfYnfSnWocCIBBpHSpzCJFL5JOw+2bFvyneHlksJYl1dQesut27ozoz66685ppf5ZcU/X7O1KlNzuTZn9a9+LlwMax//Y2Vga7uZYyZHkYAwKLFHkDOvlQLE7mwUomso8JKIPgy+O3kKVPY7Nmzqd8m3WOMsazsbJaZ6WOGzqMb7C6G/gLbgdTCUAOEXsEwVNIxKUjM0nQD+4Zmpkg7ZEl9T3YpbxVXljfOKioKDOQ5nd86NTCYNeAAhEGozX/7t3/zVM2e/7VYPPKnqqyWqbKlyDIWc7gNuPUQplmQEvFekF/IpZSZwicMm1lVLPh4h5QyTLviewpnTLDBL+TL7cvjDA1A4AJPqfeixUhVk6FwxLfAvkqyrIaGg/Fjp07Wza6u/pVL8T9/5503tvTleZxz+l4DcDG8seb1lZ2d7ctURfYghp8WatrhQpWTH3b3gri63WolvhfgD2AWloTq6uokGZVcEsRbcLFMckGY1O52i1JvboZ0AIfhAAjntYrQSyDsTFEO8C7GI/F4K5PY3vyc3LdyC3PXzCgv39P3FnXOdGogfTXgAIQB1u3WrVtzdNm1vLut/UnT0D9mmqZHkSyEQRPpDhwEw+RKiarqYrm5BRS1oOsk0sqkhIyyPVwMEyh4ByAm2idni4RZEsI1A1CsG26AYLckiF3p6dMn9X379u8pKpn4i+JpZc/fc8stzY7lYICds5efv7tly6L1r61d2dbWukyRJY9lcC0O0g5MhMzaF1N7W4nL2YmmwrqF73AdRDdAK0FwEiiUl1nMn+kjnQ9YH0TUgwDDdlfD5VjE+lJLIwIgEBGUK0LQMyeCSy0mmZpuRGOxyFlvRsbb2ZnZ/9XR0bzd4Sb0pWWdc9JZAw5AGEDtNjY2ejrD2r2njx//sqxIV7pVxQ/BFBhqITCDBDeqS6WEStg8+P1ZrKRkAlMUF9N0k7kUlYhhkLPFhCFAAibgjs5OFo/FkkqLxEEgVbvRDRDEjhPPCuIlTNKhUMjatmt7uyKpv87Nzfrh448/7iS5GUC/vNhPN27ZuWjN2jUrO9qal0mWhNhFcn9ht4++iyiGSx3CepAk35ncTSGsQwAJFRUVpJOAa0NXwbIM+lt8JtwUAvCK93Qt5Om67qXqyv59by42/r1MVhXD0M1IJNwsy541OTmF/37FFbO39ef6zrlODQx2DTgA4TJrFHoH9977yIy2rqbvR4LB21wu2W8aBm16VQliP7AauIlYCOVDj9fLiopLKMGNSb55bloHkVEYdrF4YncF1wLIXoLgh9PIHwyS4igHCPaJGmZp/H2gsTHe0d2xo3LGjO/v3LbtjRUrVjis7svsl5f62cadOxe9sfqNlc1Np5fpcc2TSbLJBgEEsWj3xcSPXbBhmcwyTCLOQgkTobv4LVwKEydOYlOR4AliSuRq4mqDCH8U6aJxP3t/EETIdCzm6bjmpeo69XsIJ3EgBBcOB1W0MZBkZmF88+/MeFw/wxTPGr8v/+eBwKltjiWhvzXtnD9YNeAAhMusyYaGE5NCWujJ5rOnHjY0vdyjqpKCNDcwFRhwBUhkQYhp3HpQWFhIcsNgheNQFTefUGWw/BFqxsMcg8EQCwYDNosCOAo8myOfXfoQBnYJUniPi4EQCk3wg35QGXimO9yD7zDBNUBiG+hC8JDNU6dOmfsa9p+aOWv282FV+v7j997bOehlcS6YrIGNW/YsWv/maysPHzy0rKO9zTN50iTqe8QLoEiZvvcFPaHmSX0+0TdFyC6uN3lyGZs+vYK5SUtBTrY9QALCIKkfaAiBhPWM81VINeRCWhkDaMf+AAS7lUuA8wspll6qSOK+/Pf8bP4Z/4P0QgRQANCCFgqTrJhmNFmW8po/J+cnVy2qrnPcbZeqaef7dNRA32eDdNx9lF4TIY3zlyy5LxgI/KUei1XLMnODS0BkO+gcWDxhCzYMmAZ8fj/LzctjLhciH3lIHwRqiH+AlM8qJypCoQ7WA7F42vUNevMFX7D6EGJ4Xsrac88+Z8KU0xdmBoDANXiSs2MCGMksGAgYO7bvPKG43atnL1jw8+7WM7tramoubeMepf1mJBQbAOGtN9euPHTo4LIzp056pk+byhSFkxRToxguVV77Qi7aV7gayLXgcrHJkyfTC64kEeoLa0V+fj7zery0c0Z/F2JMEMnqLbfIpcqSju/F8wmLSl8sKz0AoKdEqBNcS7gQ+1JW05LM7u7AWZ8v87XMXP+Pr1ywAMTF9A3UvhTKOWfc1YADEPrZ5KssS6mor1/Y3t7xrUgkfKfP48pUJEnCTognWGLMrXiZAqa+aRAxq6CoiMnYoTGTqXAtYAGHfgEWcYUUgsilAGKiYHnbRVbsRezTJHUJgHDebiqtAAE7JJ60R0yeWBBM0zR379p7ujvQ/UrV7Iqf7ty5c8+KFSsuILPYz0ZyTr9gDWzcuWfR22+sXXnwYOOys2dOe6aUlTGv101aHeijNCH00YpgBwX2G8IShn6KdoZOQmlpKZs4cSKlhsaBsEiABBAZszL9ZDnDiwMUEtAY1hbEc9nHnxD46tPYS5TcTrzsv0UEBEYQlYNwN5zwZHp/1NGs/mdNjSPPPKwdYxze3AEI/Wz0NWvWFGX4c78VioRqLFMrc6vYF/VkKYRPFuKJsLp6MrysqKiIZUJ2NhEDToSthPY9AILLoxI4ELwDTCw0USZIX+I9GVvel8l7BAME6D4g3PPYsaPBPfV73p40ZfIP33577eYXXnjBsRz0sy9ezunQ61i7bt3KQwcPLutoa/UUFRQkAQJFHCR0Ky51bdEve86Di+Dc8Ei7qb6kpIRkmQES6PMEiMj0ZbKC/HwCCADHAA4iWudSZUjX9wA2gifRk0+if6AF9SMEo0RYZ38ABiyQhm6CyBsNRyNve92+v7j99qX70/XMznWdGuitBhyA0I9+sWrVqoxJUyo/2dbW/BdMYvNkyXS7FDlpnqWQPR2Jb0ymuFxkRs3LzydLASeAcQ0ArlBnkE8WLnrhWhDgQOy0hWlSFLHPJsoR5WJIsSCYjLW3d1ibt2w9M2FCyS+mT5/yr7feemtbP5rBOXUANQCAsG7dmytPHD+6TNc0j1uFQBL3/2Nn35coBtE/U03wpACUUF0UPBP0d8F5KSkt4ZwE5B6RuHImzistKWHZWdkEEMiKzj1uw3agvCJzpTchK90fK4CwQMCtgmfi+SgQ7tn3A4RGjHdN083O7u4TXm/Gv3e2N/9rTU2Noyra92p0zhxgDTgAoY8V2NjYmN3dHb21raPjCwYzbrQMzW8acb4poAWZ+/3hc1ddbpabm0dSs6nmSW4ASFS7ZbFwJMyi0UjSxCp2XaJY9p1af3yhknX+LHtBolYaXQx8MRGCSYwFgiHrQGNjMBKOvjd/0YIfbfjjW287roU+dsJBOA0A4c31b648evToMpeKXAzoizzUEX4gEaN/qVsJ8CoIdsm+ieiGhL8d1yAgLMNqpBMPoaS0lE0mt4aXFk4ACAAGkBZzsnMoHBLZPIfzgEXv1VdfJWvHrbfeysEThWr2bkUQdSDeUXYInAlgAGuEsAoKcGW3JvTGL+K34gTGcCQaDoYjtXmFRd+96dordzmExeHsHePr3g5A6Ft7S3V1e2/p6ur6RncgcJ3H684yDU2CfgES1mASxKSCQe/xZJDeQX5+AflfBS9BTDB8wsTuQKFJs7u7i5jLYsLobRKyWxIEcVG4HMSEk/oYMOXbKU0XZXGnAyAQaVMioiZcCorqIqBw4ECjfuzEsYZZVXP+2dTDv3F2RH3rgIN1FucgrFt54sSxZW5V9SgUPWAlE4XZF7mL3dMOEGgpS+h4pC52YuetJxZ9VVFZQV4emzZtGpnxwd0RGSMR5ZOXl8s0jYe/2pN79cs8P4DKwn1Pnz7NfvSjH7HrrruO3XXXXVQWEC4vNDbxOU9XztNed3Z2snfffZc1NTURKLrqqqvYvHnzCIThOXAericAFN7Fs9q1UMS2g0mSefbs2ROqO+OHsXDZz2tqnNwkA2hi56f9qAEHIPShsj766KMSw3J9IxwMPK7rWqFMXC6TqQqsBfiDJ2LSNK59kJ9fSASspO+RdtGJG9l0DEhKORpOytyKxd4+SacSwexWBGG67e0RkChJWCouCg5oduqff7UPVZawkfAENeBjYIPa3NJq1NfXnyqZOOnVicUT/nn58qVH+3It55zBq4EPtuya++b69SuPHT2y3JeR4YWLDImUKMdHwoJgv1tvu1veT3ti+e3np1q5yAKW0EwQ/dsFRdHsbMoCCeEkEgGzLLIqACTk5GQl3XBDBQzsz9DV1cV2795N5UMEhljIL1YWwTlA7pR169axgwcPJiXF8bsnnniCroVnhUAYNg4ASAJYibEsgBHqAyHRRByVZOtsU1NXXNNf8Ps8T3/iE59whMQGb0g4V7pIDTgA4RLdAyGNFRXV1+t6/G8tU7+CEigwU1JVmTI1alqMKbKLdgCGYZFZMr+gkCmKyt0O4BlgJ01MbXATFJJYxSQRDIWYRdYDXggOIrhmQKpFIXWivujEaeMgXBIcpAkgcG1/PAtEdBgLBsNmXX19k8vl+cOc+fN/1nrm+E4npHHo56ZVGzdmnN259/87duToY5oeL1UkS6Ww2oS5KRUqXgggiMUe76n+ebt1K9GjmZ7QNhAERYT5FhQU0CIMYABLAqWQ9rjJigCgIJJFCTfFUNUWgD12+NjpwzIIK4AgHKaWQdQPrCBY9Ddu3EjWg9bWVhrjiOBob29nDz30ELv++uvp8y1bthCAAEC49tpr2cyZM8+LmsCgQcgnj+yQWVdXl9ba0fFRSWH+U8uWLXPcDEPVGcb5fRyAcJEOsGrVKmVKxayFwUD4a/Fw+G6Z6YWWZUgSLAcqFzUBydAyOffA680gUiLe8QWRELFQJrK4EVER6Zolxjq7u5mm60zlcornAARRpNTFvc+7qQRAsLtMLzbRp8OCwEXnEfutsnA4yhoPHeo4derU+qrqef/MtMg2BxwMz8yzwrLkBetrF7WcOvO55rOnb2lva51hGJrXNE2JiIO2hfxSJbT3T7GYiz6aVEVM9G6oLgI02sMHIaBUUlxCIZACVLhULM4qhQfbOTx9dX1cqsx9+d5+L8GfsHMIUi0mgjcEMPH888+zffv2saNHjxIwWLBgAYELuCquvvpqtn79etbY2EhgAr8rLi5m9957L0U7kSUlsalANBT9GwJLzGK6YZlnzzbvLyos+H5ra9OLjmuuLy3pnDPQGnAAwkVq8P0tddOtuP5n4UjoXmZoE2XLkMHSZhJkUhM7fyz4lsQyfX5WVFTM3B5wErjUC3ItSCYkaA2myAoJxUS1OAtHIxT2SIQw8s327NvslgP7BNxncCDwRkLW1b7TE5PPeY+cDhcDkTd5yOexY8e1xkOH6ktLJ/3j8eOHXnCklAc6bAf2e8iEz5kzJ0t2ZTy8p67+623trZWWaajoYwAIYrG+GC8mtV+RK8GGSJMiX5Qh0uKyzDYlTbqHaZGLYf78+UlzPEC318N37AAJAA84xOI5sCfv+68BCASvSLgK7cJl4vmTLgGG6Jz2JEA4duwYgQBktwRh8eGHH6ZnXLt2LXET8B2eDd/dd999xFPo0UCBIisAFScpIvOjJMngIRySVPUfTh478qunnnoq1vencc50auDyasABCBeotw0bNmRZkvvToUDwfzNLqpIkXWVMJ7c+D88yyAxJ6YoT5tK8vHwyi0KXXhCxMREmiViywkLhELkWkOkRlS9EZc733YqVnheQ+yj70cj9ObfPvaD3i+KZIaUrSFi8vMhHYbKOjk5jV92uk4qiPvvxj9/w0yVLlpzpx1M4p6axBl5/++3yYwcPfW93Xf3dsizlctlfIskkc36gw5P8b0IeWOBOEbXT0ze5WqDYfafmVbD/DuODNEBUlVxyMLNjwYTvH4skQDiJiEmM5ebksImTJhFHAjLOUCJNWsOQvCwN9ZNqrbCDAEFYhKgZrARY7ME3AgkR/IMXXniBARzgO3wOEACw84UvfIFt376dbd68GfLiNO5nzJhB391zzz3s5ptvThKaky4aUmTmIVKYUlrb2lo7ujp/5fN6V9TU1PSkek1DHTiXdGqAxrZTDefXALI0dnVFb+3oaP+aqWk3SqaZaUqGBNVDu6keAxkAATsdaB4AMPBFkssLiwkTd8DuQSRiEuIrdt9tnzUOhrHBLsRnELHv/B0iT1goEEuus127doUDwcAfS0uKv/3oo4/WDWPxnVun1AAsCRPKK+5p3Fv/V+FIZD7JdMgu2rEKLoz4CW97JAxLANZkWC//QFgQxOJ6nvWBuDg2yW3G8z9gAYXpHQsl2P9YZO2cA9JJKC0lUzyNrYS9jUsXE6QZsnYVz4bx+84776Bv8zDEcJjNnTuX3X777eyll16i5xAhjs3NzQSAlixZwl5++WV24MABdubMGfpeuB/uv/9+qgNYLMQcwvOYcGQgJun2jvZwU3PzO9XVC7971VWLnPwMQ9by4/dGDkA4v+2lHbsblrS1NH8rGorc4lHVXEOLS4pLZgbTaSKj2O2ECAqIRpjA8LcABCLun0y2hkHhjvgddh3CbInb2q0HqcSukdglLwQQzo2m4L5TuFmOHTthNjQ0HKmoqPxxeXnZL66//vrASHyu8VymZ1etKo12dT128tipz0ej4SpTt1T7gg958HPAgiQ0CrA4c60NOwM/tS57477YP5s1axa5GHANRPW0tbXRgotzACCwkGLRBEAACMfYE+NGEGGHov3EWMY7IhzeeOMN1tHRQQRLsah/8YtfJOsBSIoY79gQlJeXs89+9rPkfoB1AZYFvACMwLGABeXRRx9lkyZNOi+Da+pzdXV1RU+dPfN+xdSZT99003WbHD2EoWj58X0PByCktP/WvXsndLV0PBkNRx7zuFxTTF2XTE1nsorYBSSW0WjiwqKPyQKTlshMJyY+AAT8G5MZDpwfDAbpJYCASMiU6u8dyd3xQgDBHq/OJ2/GWlvbrfpdezryCvJWX3nl4n9ZvHjxrpH8bOO4bNJvX3ppypGDh/5Pe3NbjcflzgNhUTd0SlkOJn3PkVAE4+wZ7o5IOS5sZeqJzBEABP1m4cKFbPbs2URexPiABQFAAREA5J4jBVJGABwgAdENghNAFqshmsHEeAbI/8Mf/sC2bt1KlgCAAJQfwP+BBx4gV0NDQwOD5QCbB4AfWBjhPnnuuefIJYFnwpwBV8PSpUuJpChIiwJw9dYfg8Fg9Ojx4++XTSx/evnyWx2AMI4H7VA9+hANr6F6nIHdx7Is6e0PNj8SDHT+L4/smqtIkgcB/DBjakacqS6+YxJWAVJ/y8mlBVFka+MlgIuBM7bxwmQnsjQKFrc9u1u/CIgDe8QB/frCFgTwD/C8mNA1Fg5H2P79B6KRcGx71azZKzMz1bednPYDqvq0/vjnr76a1Xbo+NcPHmz8eobbPYmzEKgbk3mbu8J6UhRTgAopJp5LrhW77FQ3nGD584foydmAhR7m98rKSgIDCAHEOBFS5Fh0YU3AecIFh5wOAAl8IeVE2KE4UD6UARaC3//+92RFAAjAAYAAoABLAQCPsCaK58bijw3Fhx9+SGGQeEaAIRAYP/nJT5IlgXOZpCQw6u2ZQuFQ9NDhI+9PLC17+u67lzsAYSgafpzfwwEIiQ5gWZa8YXv9ovams38hWexOl6pmW4ZOkQc0CUkQLQ0o/UoAACAASURBVJFICAlKbxjwEyZMoIEtYqR7iIYAErxqMdmJLI0CHAgfq92tcCnG+Ejop5cGCDKLRKLsxInj2tGjx/fPnb/g+YmlBc8sWbKkdSSU3ylD7zUALoIvu+i248eOfs/Q4gssZqmSZFHYo4xwXVJb5IqLnDPHxY90ROukRD0QSdf2mSAr2vk2oq9jIcUOGuZ19C0ABCycGFOIbgCwhstBKBQK0F1YWEhhgURcNLiFQSzG6QLbKD9cCeAQgGcgiIgAKxBAgrXwS1/6EilEAhDg2excI6HEWFdXR8ACoADJq+BugHIjrCPgJIDYeK7LrqfNwuFwtKGx8f3S4klP33ff3Q5AcAZ02mvAAQiJKt66taGwK9T2l6FAsEZV5TJFlmUiJSXi+QEQwNQHARETEyYpTGKCnCVaSkQbqConLNrNpWISSyVypb2VB+0GYhcpEjBxISThL4YexLFjx+INDQ2Nk8omPzdr1vTn1q1bd9zJtTBoDZC2Cz377KrSiBZ+vLuz41OdXZ0VgWDAb5qmWyGQIEk9pnwQc7klDToeREglUR+MD56QyG5BEP8WFgC4LBDdInbkIPZhgRUAAWF/OBdmeeRoCIXD7OzZsxQOKFwLWIwBEPLz82h8imsJd0S6Kgn337t3L3v99deJU4BywaKB+5aVlbEvf/nL5+SYEOPcPt6xOcD5eJ4NGzbQ9fC8ABPgY6A+wEvAeamAXACEgrzipx988D4HIKSroZ3rJmvAAQiMsdraWq/kybo72NX9LZmZ8xVZdmO3RIs9j+ImrWBMjDB7gpQI7oHY2djBAd/B8AUU38NEmsx1b/Edl/380dUXewACD3/Ds4CIaTGX6rK6ugLWrrpdBySL/c+UqbN/ff/9tx4eXc83fksL99rLL79cFJfUKyKhyPKOzs45ga7uKcFAV34sGnPphu6TLEvFGIBVgXbtMufXEFjQtHPyOQigIIi7woQuPheL+q23LmOVlRXUl7CzhtUAAAA7aezCsUgCZMN3j3fhtsM5UFwsAEhA+mjTTO7a02VFQFkADF588UV6xzOBM4GyIFTxyiuvpHq40P2F6BLKCjXF9957j54ZREfxrI899hirqOD10RtAaDx48P28oolPP+hYEMbvYB3CJx/3AOHIkSPe402dNwcDXU+olnWTaRg52DFh8iOVROF7xeJu6Mzv9xNAEP5We3iimBgQ6heNcv+pPVLhQib6IWzvAd2Kl5+DAmEpwUeGTpYEq66uLhoOhVaXTSn9m7179+5xLAcDqu5h+fGqVZbi823IdmUps9tbWyu6A8EFnW3tpaFwcGE8Gpkei0S9cU2TRJInLGRYIEUac8EfwC7Z7mo418LGwTdA9k033URmeeyoW1paCIBj4cU4E0Rg7K4BDkDqA4DAgkoAhVksNzcnSVwULoh0iCqJ/g6ABKVE8AkQxQArIoABwhxR3gsBBJRN1BVABbJFAiScPHmS6mLOnDk0Vzz++ONkSejNGgKSYuPhQ+9Pnjjp6bvvdlwMwzJAxtlNxz1AWFu7sdI09BW6Frsjw+3JN3UDMmZMgrogNJJFngTTIJOn4B2gn3CBIE4usu8aQNgLhcJJs6jgHqT2rQv5GkdqH+wBCHx6Fkx2PO+J46fMurrdp6ZNnfKTaRWT/33p0qWOkMtIbcg+lgtWhfUb64qigfbscDB8Z1dn+yfOnDkzv7WlpZhZpqwqPGGTiMgBSLALJAn3W090D9cRES+QfG+55RZaEEWIo+DzIAIAC67IcYDfQF8AO24R+sitGYyABnz6ABnCWtfHR+zXaWKcY9yDGwHBs4L8fAIzdlfjxSwIOA+uCWgigI8ADgIADwACvgOPQQgopRYOYY6Hjh5+f3r5tKeXL3dIiv1qPOfky6qBcQ0QPti1qzjYHngkFAx92et2TVckSUESGWJuM+SlNxIgQWIel4vl5+X2ZJ9LEKNoqUwBCCDqxWJxmjh788uK3whz62W13DD8iE+C8B/3AAQo53R3B63t23c2+f3+dTOrZv77LbfcuHkYiufcMo01sG7drkx3jj6vcd+BRzdv2vyJjvaWSXm5WTIWcnLDwd0khH1s5EaRgMzuUxdhsTCr33nnnbT7BjlRKCnyMGKY3V02CWbumoNVDmRGgAGP20W3xPXgt8dCC/AgfP6DXR0oI0iKcHfgfiAVApiI3b79vr1ZCwF2MFcgDBKREIcOHSKrCDYdAEtIXvWVr3yFAE9vVpCOjo7o4SOH359VNevpW291whwHu32d651fA+MVIEibNm3K10zlga7O9kd1w1jgcbkz+O7HoiRLZCo1DYpcwMDORvKYnOwkwzg1TBETIXY0mLgAEOw+RPvEIcDEaIhaOL+78Pg2HoWh0IIQjcTZjh27IqFw7M158xb+oyyHN995552OTvwYnW3+sPa9xQ0NDV86cvjg7apLLvB4PERgVFSXZFmmFAmH3ZFw2MVMSyLrmiwzcBpdKkJ/eT4GjA3oLGBc3X7bbWzR4itYNBKmaB/SA2ASAQQkbYIkOY9ktBhuhLHZHQiyYCDIwmGERPKMhxhPIDaCuwAQISx89maw7+ztC7g9gZSw6tmtBfgeZfvggw8ovBFjHN/D8vGpT32KLB3CnYLrXszFgd8hagGiSXCpoKyIhIAF5ZprrmF33313IqEVB0SYU3QNEVQyazrTFD15+tT71dVznr7pppsckuIYHWMj6bHGJUDYunWrS3JnfK7lbNMTuhZbpCiKV0V6xoTuPAY4Ji9MPPApZvoziQwFF4MgGaZaDXA+pXAOBs8ja/EGRxy1CBcTPvzz0zoLq0K6iFYD6XzkR00knoKePuLgT506ox04cPjQxIkT/2Xu3MpnlyxZog3kHs5vR3YNIMNpZtn0OcGW9ttcbtcsVZIUhP3G45oUjcczOtpaK7q6OqaGguHscCikGLomWaYuq4rFVBffQdv7NlIg33jjjUyLx1l7RwfTNZ3khREWCAuD4PiIBV2MSezahcVBjFfUHKwI4hxhtUi9Z2oN2119doAgxqKsKGzzpk0gM5P1AuXCfXD/J598ktI1C/4DynUhrpEoB0ABxJYOHz5M84tQXIRgEqwInHQJgSqLkrxpcYApFzt67Gi0s6v7vblz5//f66672gEII3uojInSjTuAgAmudEpFtRGPfTcQ6LpdleUst9stYSLiSZh6Es7QgJZlVlJczLL8mcyAulwiCsFOThR+V/glBcmqt95htx4kJ8kUjXoxuYxEgMB14bl1BTvB1vZ2vX733sbiopKXJ0+e8stbb73hwJgYFc5DXLIGjhyxvLKva6LEvBKLRVkgHpACsW5389Hm6eFI8Pa2jrbZXd2BvGBXd1E4HCjQYuEMaJGKC2PMYKGF8iAiABD6eLapiQCoAAjCJG8fC8I9gT4IJUOhTyAWc1ggRAQEFl6hRZCaifFczlBP2KWwBNjLCVLhK6+8QtYDuAVwQBwJAAHqiSBaikyMl4piwPVhcYCOAhI3Yc5AqCSsByA/Y/7ARkK48zDOLAPWE4U1Nh7sNpixeu6cOX919dVXHz0nDewlW8w5wamB/tfAuAMIb330UYnHUv48FAh8hjFzkioriqIiwRA3DQq2sZhAIGACpjImLngg7Dsa4WbAbgcDHWZCHKmRDXZ3gv07sivInPMgzrFbKPrfnOn9BYEXInAivCtobN+2/bRmSr+pmFbxnw88cPdJSUoK9ae3IM7VR2wNQHBs27bDWVGja0YoEC0723RqTmdn6x2HGxsXxuNxv8/nk7A75guqyqZOncoefPBBWtQ5ATFGfQxjCgBBuOeEG4DvrjmIr6+vJ8IfFmt8LgA+vgdxENcEQBCLtwARovLsYw7/tpOJxdgW2gfr168nUiH4B7g33AtwNXzmM5/hFhBNSxIqL2Sx4OAGEuwK/VYcAEpCcA2f0b1V4kqTxgQOXTfNhoYDJ7Jzc/5Dkax/q6mp6bnAiO0NTsFGew2MK4CwcePGDKa4bw8Fgt8xLXOBqsgu0jtIxvQnBGWRUpaZzOP2stIJpZSWNhaPkaqiiMMWrGVMShjsiItOjWoQkw4BgYRpNXXy4ICBiy+lTmAjrXPRZM0sphsGO3ToSNfBg0feKSoqXvHVr36p3kkcM9Jaa9jLI6G/vPDHP2bmWcpXV7/66lc7O9un5ubmSnDFCd0C7Jrv//T9rGxSGYUNhoLI58VdDHaAICxrYhHH77GjR6gghJYg14zz4eITB8z1IFECJPCxhcXXnluiB5inWu6E2wLjdceOHeztt98mUSOAGHAdIIwEdwJIhSIsUegciPHeWwuAlLht27Zkoie4WJC4KSkkRblMYLnkrhhYVlC2jo4u4+DBw/tnzKj6QSjU8WJNTQ1/KOdwaiCNNTBuAMKqVXvcs+e6Pt7e3vzVeDS+1DTNHGaZEkhAwn8odisY+DADwnpg11UXOw6xyAvyEkydAjDYgYAY9AJUiHf7BGI/x+4LTWOb9/nSoj7skydyLbS3d2g7dtRvq5g54z+62l0vPvnk3ZwV5hxODaTUwJo1azyZecUPvfrC//yfru7umaqqytARwEIO9j5eMNMjHTLM612dncwwtCRAsI8V9EOhpgjlxt319WzPnj20uCJrItQVsZMXbgK8I8oAC7rQZ0gVIBLXtFsOhbtR3AtcAegWgH8AsiJIhdgUgHvwyCOPEAgR17W7KFLJyXBJvPbaa0nXCCyOKLewoNh1IyRFZqqikuUyHtfYmTNn40eOHnu/fMq0P3vwwXv3OIDcGWpDUQPjAiCAlOj1+q8PBkNfDoY6bzV0Pd8yTRl2ApB/wC3ALl7XNAZCEgY8wo4wsdgXR7GA4zOR4hVxzBj42L2IVNACcIjFHxON/SUsC6muiFQ/6VB0gIvdw062EsSpzs5Oc8eOnc2Kovy0oKDgXx5//PHO4S6nc/+RWwN79uxxtwdj9//hpRe+093dNVtRFHnnzp20g0Z/BxC///77SSAIRzAYYLFohMYTxpjd4ibGlXAFAmhgd4/P4cdHTgcRVmwPPcSCjhcAiBAuS6aMtrn37FYK8T3KCDCDsETwBvA3wAFcGFjY4SLBPcX5goMg5goRYYHPYYWA9QBWBBywnsC6gWefPn16Uk8C1gPKlylJRFKMReNW44HGrkAw/PzEiUUrampqzo7cFndKNpZqYFwAhNrarYW+HPVvQt3d92mxSCHCFWQoHcBkLstcryDhH8QEAMuB35+ZVAwk87/EJwGxu4BlAeAAJkfBGxBmU7uFAZ0FvxFqcyI6Ap/ZRZZSXRB23gKuMdTkRQGCRBpaARDq6nZFT51p2jy7uvqvH7j33lpnJzOWpoO0PIv04osvzvngw00/OXum6Tq/P1Pdt2+fBM4OTP4YR8hq+L3vrSRQ3t3dycKh4CUBAsYaNAmw4GL8QpcAiowiigFuDAHi8VQA+wLwC4BhtxymWiqEu1C4NAAO3nnnHdoMIA/LddddR/cEJwHzBbQL7FZE+5jFNRDSiCRPcFOcOHGCxj7EkQAcHn74YbZ48WIKeUyO+4TWiCKruKe1d+/e5vyCkp8W5GX+y1133dWRlpZyLurUQEoNjHmAUFtbq+YVlt589uzZvzLikSuZZXokZjJKQoNMjLaoBNQNiE0wVSJrIwktA0QQf0BmusGVEzHgsQPav39/ktSISUpkbEu1EAiAgN8K36oADOJ6YoISv+U7EJpmqMns5sqh6MWp5lFMqqdOnTD37d9/ZsbMmb+MRWI//PznP989FGUZTfcASe+FF16gcbV3715l0aJrC89G2jNYNEoLIBYYFsPCmNN27Niu4Jw5c3pyJice9IEHHrDGEuHz1VdfzTp1puVPTpw49kA0Ep2wf//+rM7OLgXgQNd1KTc31/XNb35TBlAAByEU6qZxZo9isO/usXjjBdM/iIPY4eP7qqoqGl+wFGDRxuKLQyz2WMSFHLLdOiZM+wIM9OZaQ1mh5ChUHGEF2bVrF4U240Da6quvvjrpAsE1xIYC/0b0A4iO27dvp00FygHuAgDNo48+SmXHcxBAwNhPkDFhQTh+7IR24uSJ+plVs74fCwderampOZdIMZoGiFPWUVUDYxogII3tdbfcUmYZ1tdlw/isrsUnqlBntTgRSFZdLBKNJnfnMBvCZwkXAw67vjwY16DoCSIS1NCwe8AAxySByQiTk9hxC5cCmQkTk50wm2Kywbl2sHAOvwFkSC5XOGxHKi8DgGjTpg+j/uzs9ytnVf7vLR9scXItMMbQxyZMmKDk5eVJJxlT7vzY9dVnT7dndXW2eI4ePTp1144dc9vbm7PRb1xulYXDEZbpzTArZsw8M696zq6ZVbNai/PzjKiOLH/oc7BUseDRg3V7b7vttvBYsdCsXr260OXKvK21tXnBoaNHZne0tnkyMv2SW1UyQuFoeVXVzAm33bYMaaZZOBRIuuTsCzkGg+AF4HNY8LAjR9/E7htmelgJ8NlVV12VlH0W/ACAf3xvt86JXb/dgiAAhZ3LIL7HZ4ieEJoIiHACEMCY/tM//VNyPaAsx48fJ84CuT7KytjJEyeSaaLxHYiVmGcADMBjwHUEmZL0o5lMmxctHrcO7G/sNHRtVXl52XfvvvtuJ3X6sM2K4+/Gw7sKpbG+MXEv/9SDlfFo5OGuzrb7ZYvNYJauqmAeUMpVjSkuFzkbMElg8cauA8jebvpP7ioo0sGiSQcDHCbHHna0RbsWMRGJxVW4Dez8A0wkuAdeAAji3/bdUio3IY3VdMFLC2VIwzAJ/OzatSsSjUZ2zqqe9Uuvy/tbJ9cCY6/X1pZ2dYTndbR0Vp1tOuMLBgPliqJWRqOxjKbms2okGMq3WLzQ7VFd3EfN+5qCJAeyHM3wes8WF5cES0uLzXhMY92hCFO9PvSlaHn5lF3Vs+auav/4ldtrJGlM7BhXrVrljsfj3sLCidO6u0Met1uWMjK8mdFo/NZDhxvvW7z4iorJk8tU09AoqscesSAWaMExwN/w5QOow10B8iDAPfIYvPvuuwQW8ErVJQCgh2tAhBWmkgrFgBBjWPwt3IiwIoBoCMsFFBExbrHI4z5PPPEEzSFbt24lSwH0EzDGYVlAuX73u9+RlQAAAp9jY1FTU0PJnnAIBUaIkCGUGO9tbW16w76GusKCwr85ceLI6hUrVujDMR849xyfNTBmAcLOnQ2TAtHIVzq722oUSZqmMstFMfwM+esN0o4n2y5yL0gSy87JJd8iDpJaTrgW+I6Op3rGoglfomBh41xMHCJzndCBFwu8MHECFAhLAteZ5wABuwb8jUkLuxvhdrBzGMRuJ63d8xwjN+8SkJlGGSPhODt+/Jh5+Mihg/PnL3pGUcz/vuOOO9rTWp5RcHG4Elb+3T89ePrEqa92tLeXS5apxGKxTIlJPhm6uNjtqopkmppsSYaE/sbNxzKzDBOLn6XrhmkYJtwJvM4tk2mGwcKhkFVUUtxy1ZKr18ycNfs/7rv79h1jxZKQaFp6YGEd2LBh2+Tjp05806WqNTOrZhR5vS4JY1BNyjNDEIDzheCTx8CF1HdLSzM7evQIWfIwLjF+QBo8ePAgLcQQMBL3wXeCe4BxJ9K128mMQvtAEAxTxx5+D7cGuARHjhwhgIDfI5eEcBVg8X/rrbcIHGA+wH1xIBwSYZlwSwBk4No33HADaSjYeUl8TuEWTsQU79t/oLOpqfml/NwJTz/55MNnRsHQcIo4hmpgTAIEhFZlFUy8Mxjs/q6uxeczy8RUw0BM5MzgRDJCC0CAkakPLGe8Y3EXuwWxWxEMZQx6DHJMSML9IFC/UG3DhCEyyglfJnYLgrFtZ2fjc0xWAAe4t3A7CF5CKlCwM7oHtQ8mxFhEhkY+qZL6PUKyzL179nYWFRW/VlQy4a/uuWfZCUfBjbFdBw8Wv/Tbl77R3Nb0mGpaRQf272ftrS1SQX6BlJOby2QJuSrIUsxMCQJcAKbETU+8GOMh+eC58LTiyCDKo2pMFo1GTE0zzxQWFa1ZeuutP8vNdG8fq75nWPuuv+muj+u69m23W74mJ8fvx7hwuWRKsc45/Ri7IPaqpCyoKC7W0tIE8EqLMcz5AAVwIWCMIR3zXXfdRbwPHBhbIlMk/oYrAC8B6u2AhfYNqS6+hOIp3AvIxAgQApEm8JVE9sWvf/3r7P333yfiJKyMGPP4DkAC7gdwLBB1gfkDLgZYHno4Ttxiwu8L/oKOiA5t2/ade/3Z+d9vaz7zsmM9GNRZz7lYH2pgTAKEte+9N8Ete/4hGAzeZZlGNjRHZMpCCG1zxBdzERJdN5nL7Sb9c1JLhIIZJWzikQe0q0PuAUUhFwLMmRj4mGhgHsS7AAb4HnHNeGEyEsxm7Cyw+Au3Ba6H3wnNdgE+8BuYPmHFwLsgPIrJyk5e7EO79u+UFIBgEU9KYeFQmBIxaaa2efHChf944MDedU8++aSTa4ExtrOhYdKq/3nxL0OdXZ9VZFbwwbvvMa/bTZM+Fngk7NI0ncABsILoT+DE2klwFiqbcAMWPS7EBZIa+kckEjVjut68YP7CNbfc9PGfbtny4ZYVK1bwLD5j7Fi9eqtv6oyS+9pam79saLElRcVFGVlZPqbrcQZwz6SEHLKkkvUPAAGg4NSpExR2CPInrAioW4whyBhPmTKFzPsiughgwK5YiPOEZUGAhwtFC6FdYAmE62D16tW0yOP+0HHAgXshcdOLL75IVgIIp+FaICLC/YGcDZCVFtFLQpdBzC/CuiE2B5oWs44ePdJ58uTJVWVl5U8/8sgjzWOsyZ3HGQU1MOYAwtatW3M6Q/EH47HonzImzTRNXaVBSfvhnrmVXA1MYrm5eeeEKNkBgrAkYLFubGyksCoAAAxmTEgwFeIdZkUADEwW2BlA/EQQFnE+JgiRxAnAQkxUmHCEeVFMDPgdLAoALUIJLjXkcdD7VS8AAYvb/v0HjFOnTh9euHDxfxuG98ef/OT1kLlzDsakF15bd827b731l9FI6GaPqvj31NezbH8mmzRxcgJgKiRwE4qGaJGDsA/ZDhK7RJLRFdEpHAXC+5Awu3MmOzgvhmGaHk9Gc15+QV3phNLNM2bM2J2blV03Y0Z1S1XVxLaxZM3ZceRIrtVl3nfmzIknCosLFhUV5ntgbpclqAnC7I6IIrhouKUF3AOIlAGkYwwCIGC8ieyKcAUCIGBMYnyJyAIxnvAZLAD4XEQj2MnCqR0d34EYCQsCrBYYuwAnmCcguQxgD4CA6CZYDXBtzAko35//+Z+T+qIgQOLaYh4Q5epxcTDW1NKkHdi/vz4nJ/8H77zzzisvvPDCmOChOJPH6KqBMQUQwP16++13l+gy+0E8GrseWRqRgVHX4mQzl2mC4Y+MycbnyySAgF2+IBiK7wVBCu/YKcA0iHe8AAwwMWDRx2QEH+SiRYtoIsJnIE+BxIgX/hYZ27D4w6wJMAHTJ16YVAQxUoRDYsLARIeywPUhgIKwJgx6FwMnQ9jDEybws2ebrA8/2txRVVX1yvTp0//+uuuWHBhjfvDLrsZnnnnGdbKpbWVrW/PDGapnQijQJYcQamfo1KeweEEiF35yaOrH9RgtQCAiCssRpcumuuYH+b25Z54+J3Y9vdO3lmlacVlVu/2Zma2lEyYcrJ4za/eksrIP9u3e+dZTTz2VlvTaK1ascj/wwNUzOkNB0HmxMzclKXxg2rRpPLYvDUdtba3fkjK/4cv0fq2gIK9YlgEJAOaxPnIrAjgccDW0tbWy5uZWAuyw4GHRFiABIBvWPny+bNkyIjACEIjkTWIHj/EHtwSuIUjHF3LlCUsiSJCwJGAewHVvvvlmdsUVVxA/AdYFgAN8B+EmRFiAhPjpT3+axrk9MsoeuimiKVAuTdes+j31nV2dgZcnV1V9+5H77nOsB2noa84lL10DYwogbNq0aWYgHP9yNBL+rGlZpS6XSwIb2qQUrHwHJ1Iue70eVpBfQC4GMSGkRh/gc+z+Ya7EbgSDXrgRMAHBvwhggJ0BdjJwQWCSgBCKiIEGGIBiGl7YTYAchc/s1gNMGoL7IIAKfo9FBRMcvhe/SQtpEf7xBDDAghQOR8HSDpsW2za3eu4/tLWdWTNW/d+XHiLnnkFhjVOrlm/+cMO3o5HIldmZGW5VkZkLanrkOtKYoZvkZjDR51SEuXLfMj6PIXlQnMsB80WBAADdBJAggRa4Dj+ZGIisRtYEC4ckmaqqRFVFCebk5JyYMHHiR0X5RW9Nn165bfPmd09frgsCV96woT63Mx70Hdizr9Djkq9ob2ud3R0IVXR1drp9GT5WMqHUmDqt/GBJcfFbUyYVbp0xYwZC7s7Tcehvnaaev6P+0CcYs1Z4Pe6FbrdMidhNxscw3S4RTdTe3sFaWloJdImkTBijMP8LUjCiDRDNgLBHgHOxWxemfbSDAODCOmiPIrKXTfwGgB/jHXMDwhgF+MDfIDAK/gHKhHtC5wDn2SMw7OJqdqslxntTU1P0wKFDO0pKSv5penn5q0uXLnUiFwbaqZzfX1YNjBmAsHPnzkmtnd1fDoWCD8kWmy5JkoqJOblLs3gkAgYxBmdFRQXt4HuLgxaLMCYehCxt2LCBgIEQMhG+TfibT548yTZt2kRhT9i9YBLBBILkMQsWLCC9doADWCkEo/li97yYOyE1JvyyWvz/Z+9NoOSqzjTB+yJe7EtmREbumdp3oQ2EwCADQmBsMC7ABpuuKaoodxlXdc2ZqcXTM/Q5bVHVNe053VPnTJ+pclFdbm9V9iCvlA22wSB2kJAACa2ZWjOVKaVyj4w9Xrw35/vv+yNuhiJFakOZ0gs7SWUsL9677y7f/f7v//4aHyIa1yWzNAoFQ+z5cF9+cGh4z/rr139n3rzWZ5YvXw4q23kIIX747LNt77y+899PjA99qVQsNGmiRDFyt+YSHo9O9xl9DhqEAgFTsDMyPZZCXS5dmm6VFzWIWqXxDx52bo3NdEkdYUVTTwAAIABJREFUDDJq+FHum6SpcZWMYikdCPmPd3TMebch1vDc+ps2dPm04qE77rhjWpT0Sy9tb/IE3W379x5qHx46s3Z8YqxtfGxscXIsOdfSrEQ4HA1GIhFXOBIWoWDISsQb0tG66NFEY+O3XFbuv1+OxevwiYFbjYLxV5pmbfTosEqASRlqE8lS0Ji0AJgkYyAZBIw51gYh/o+QA55n3wLE/9euXVsu3sQhPab8scizNuh8xMAqC4BjIQwJgSTCH9gMwHER1SZVgaQ6kBgosjZheHjY3Llr17Fwff0/LVm16lv33nbboDPwnBa4Ui1wVQCEbdu2+QOBus+OT4z9H1bJWKVpwoPdG5VgdetUGQ3iRAxmpCchFADxEOdA1xImYXJBLBEpSxjs+BtiQ0w0GPQADFArv/nmm7RjwOsIIYBWxG4FYQcwC+qugTMe1Jt9IZPRpewsUjAnaW2INnt6+4oHDx462NrS8u2Fq1f8cNOGDY7vu93gW7Zs8dbF2798ur/viUwmudwsGV6zlBfFfI5YKgAtj9dH7JBb9wgXFduBkDVPgkXy23DLKoXsiYDKmEWwChC8GiVRIqZAChTgplcR00stP2c9UBjChr+maRUtyxp3uVw90fr6oy3NrbtXLl961O8PFIaHhy049wXCAbF4wWJisYbHxsTpvj73qVP9TYNDQyty2VxbtpBvKZWMNrfL7Q8Fg6FIJOqrq69zBQNBzef3UcVT3aNjcbby+Xy6pbXtXxcvW/aN4dMLDmzapF3SHe7h4wO3GIbxV5qwPskAwTQNYVoGCzcE8FQqJbMXiJYvFsthAir6ND5OYxTP499wMkQYACCB0xhxnxis498ACQgdsoj0fMYZ6wfwWWwk8AOAAKYR58AsQS0GkMFhLpezDh48ODYyMvKbRFvbU088/vjB8zkH571OC1zqFpj1AAHU6K5du2/N5bL/azaTvkvTRJ1pOyXKSUPaI7MFKwYuFm8MXM4gqG5UDGKECZ5//nmiEvE3KEIAAzAPAA7PPfccsQvsoIhYJoDBpk2biNLEAxMV05XYQaiTw7nEUFPd5MvDIFi0sFFe+dCI2L37wwGf1/uDVatW/N+bN2+WVWWcBzkmbthw9/wXXvrVN4RZvM+jiwAt5KYhjGKezLcojl0sEAuD9vQFAiLo9wndLU1vIFrEAkS1P9w6aRUYQGKRyOYLwgBIsI8FYSNWZFrQCBtYdBzZD2ydgu3Xge+zLKtUJPMN93gsFh3VhMsgEW02I3xen2hpaRaNTU1iIpUSybFxzbLMkK7rDcFQyBsMBvRIJOIOBILEguCHwiL2Lpx32ujTI6Ojhs8fPDhn7rxtXn/gNZ+mvfX++2+d/vrXvw5Ph4sOORBAKBX+yiW0T7pdwuvR3QIAQS7mptAsF/l0oLDT6OhwGSConiQIz4EtxA+uAyAf4xZjFDt6BuacXYT5AaEGZnamG8rjsCS+Gz8sOq4e/2hHZhDV4YTPc2p0b2/v+NGjR99avHjxf587d+6vb7nllqwz9JwWuJItMOsBwqFDh9b09w/8aSGfv09YZrNpllxIGQPdi0kUMV/s1njXgB0+wAEP7OrGx/OgLl977TXSFGACASi4+eababGHxeqLL75I4iNMlphIwUYAGKxevZp2jyrwUL9H3ZmoE9B0F/7pvu98OhTFvS1TZHN5a/eHe0fHR8dfW7J45Tcffvj+F87nOFf7e7du3epub1926y+f/+XXS8XMJy2r6BGWDC/gN9qQGCJNIyCQw2KPBcOlEUDAAkQ5/JZMnUV8ulSSiz2FHxAOQwqf7eFPKbS2pwYWQ3nvWaWADAfbeMk260K6JBUVIybIsEols4Q+xul5cjwI4fMHRCQcFl6fV0QjUS0UCrpxXngd9UfAWJAvgw1E8FsK+hDnL5IuBiAnXzRyACL+YHigLhJ5P1pf93ZDPHFQF9aBhx6656JEdQAIpVLhrzWhbawABLsNZDNQiCGdnhCjY0N0rsBFqtCP04kBEJgVQOgBP9AOgUnh6qvsUwKGEEAf1zjdsaayj2p4sPrz52IKMY/09PSkent73wmFQk9ff/31v9m40ckYutrnlNlwfbMaIKDoy+h46o8mxpN/ahQL8yzLpA2MPU9S+5N3O+2y3EQhIvdZFQjxwGUAgckBCmWED/A+LP533XUXFVj5wQ9+QDauqgIabmgPPfQQZRvgwSp1nsDVSaPWrqRac1Ar3MEdabqT1vl2PDj4HTt2LNt1qOvtJYuX/X0kEvzlvffee1mU8ed7bjPl/QAIi5at2/jTrT/eUiymb7XMgge7WQkQTEpR1LCYsrumTFEUplGkEIJkDeCi6Rder48WIBT/MorSS4P6pAagoJNWBg98HqLHPDFhkkKnPgBjDyGri/ICjlLl5AqouSiTIuCXxlvSqdMnIpGwCIZCIhwKExjBYaDex+vo85y1g+9lyp5j8uXzs1PzaEE24PoorGKhaLlc7ozX5zlTXxc71dzcuMPv8fwoHq8famyMJnt6eobOR+AKRvBYT/9dhiX+o2aaNyFcCAEoL/5kiUDnKAggjI3LTE92La2MFXkduZxkbDgEwcJfzAWqcymuH+2FcYznq493rn6o6gh4Hqkes+o8ox4L93hgYMDs7u46UiqV/lt7e/u3H3vssfRM6ffOeVzbLTCrAcIbb2xfP5Yc/UaxULjZ7XaHMGETjQdBostV9jaHBiEeb6CYYMWwRu7AmBbEJIIdBMSGEB3ieQgMEbOExuCf//mfKdURz2P3B0tX1LFHmVbsOniSqJ4Y+PsuxeLOwGY6XRasyeQH2fXJ+KptBGXApc6li/5TZ2Dp2qPr7v/3phvXPO3sXs5uYQCEZcvWbfzJz3+8JZNO3mqZRQ+If14QCJTiUU5PlOwATH3AADAQwC4c95FrcmBRImAJ57yJFLEK2M2jH5PoLp8nWh1hIAgfwSEQU2HJEuKs1ufCXziu3x8klgwK+iAcOr268MFzwyMZDKThDgycEUuXLac+z/Q4wiMENEgXUSwvqpMXNGYzNFGSeZnUnyygc5dmuIRrLBgKHK+L1p2IJxoHGxJ17+qa9VshxOB0QOeRI/1zPD7XE4ZR/F0hRCculEI0MqXDPhWNXClT6QkxPjZmtw97nEgnQvR/sB4cJmGQw2JGGY6QtL8soCjbE6mIiUR8EtjHHyqAqjX+ajEG1WAfmxcyxrJbjRI4S5bYv+9ANl/Mv7R8+YqnNm3auHM649t5j9MCH0cLzFqAsG3bjhaXq/TvRkaH/7BkGi0aEIFAupntlGi3HhZzTIIILbAoiSY1EoDJH05JRNgACmTEbaFTAHuAuOU3v/lNsW/fPjoijoW6848//jj9xoSihg743zw5XFmAUF615OSK3ReVkZYiOLRNvmCI9z84kM7ljVdWr7v+r++75xPbP46ON9u+gwHCz3/5ky2p5OitpmnQyk4MkFkBCtUDCuAUbc1Ke9DJHHPmxR39kut14J6AEuc+ie+AIp+dO1ntrrtl0S8wAOiTSIOl3/DZCAbpeBKvWDQm6DSRWqlpIp8viKGhYcriKRgy2QHfobJf1YC3fK3lG4frqlwt7/DtdN2SYRQLPp/XiMUaTsXi8Q/8obqfB6Oh90ReP/3ww3dN1CpnjdLsi5ctu8c0rK8XCoV1biq8IKuqqgJfBvbQEwEgqOdaHbrD+agZBMy4qIwCM4IMBOrqoqK1taWsFymDQNtdtbrvVoMDngPO1hlx6Xb6JtSGJcB24MD+pNvl+dG6G9b/51WrFh+ZbWPDOd+rtwVmJUDAROIPRT9/5vTpvywZxTWWpnlIzOVyC7cmhFd3lwWBGPxgDiBAwoOpXp5keMLFBAmGALurJUuXikULF5J7IsIKqP2OiR27NIicfvd3f5fcEnli4jiySi/ybn+6YqfpdLHzZxCqAIKdHgYKu5AvUFGq7sPHcj0nBz5csGjpdxfOS3x7/fr1memcy7X2HgIIq9ZtfPZnP9kyMU2AwP2CF2o1Rs7mWSwCRD9hgRvH1Kl/Qeyay5VLCjNTADFhKChNtwAMoIVhwV1FNyB3+3ANNW2L7wLCGQQOEbMXIp3NUr+WVQ8n6w8YFKgAuNKfKwCBr0sFCXzNiJS4dE/aGwj2+YPhg/XR8IHGRPN2yyhtj0RcE/fffz+EeLRy9vf3Bw1Lf1yzjP+lWCwulJUsZB2FmgBhYoK8SXgcVsf5uf1ZE6S+zp9hYSPao1iELgSCXTis1tG8AcDGDAuDfeXazqrZUK1JUDciYIFkFgpxeCA6KVRyqPtg0qP7n1m9es03Vq9ecvRaG1vO9c7cFpiVAOHo0YHmrqN7/yw5OvYHuq43lydiis1iFZQph3iAaoXuADsqXmB5IuWdA15DGhTMkOBZgKIq+Puf/umfyFedJ6j169eLP/7jPyY2gnd5vAtUdws4H57QZgZAqHRAgANQyNj99Z3sLRw4eGhfU0vH95vnLvzhfZuclMaphqoKEJLJ0VutGgwC3WtF3MfHks8rlhy28I9j/ViE8FNxWZTxcO6vXM+D3DejdSJXyAufxy98AAV2+i6+F1kP1SCEdAkIcRhSxIe/ycIZrAd21xBKKl5HvMCpu+Lafbg2g6BqaspsGnH4bkv36PlisZj2en0nGpua321rbXnPcmlvx0J1gydPRoZvvz3sD0Xr/1CY1v9sGMX5qJjJDIIKjhncQ4A4Njo6CSBUM3Yqg1ALQDB44DGLv7EZKBRypEeAmBHfU80MVrMGfK+rwRS+s3JOGHeyCBoDBGgQDnV3JQP+0DM33HDDN5YsmesAhJm7Xl5zZzYrAcJLb73VPj40+r+V8vl/o2kiQUMO1rWkXpKV3zAoQcFikEOMpSJ5tXASdm0wOAJLgJ0YMhGQEvXtb3+bDJLIS0HXyS71T/7kTyjdkXcUanhCPT5PNtVCxYvtXVMxCB8NQiqGO4jnAiDkcnlz566dvaYpvtXZPu9/PPzwZ/svRYraxV7jTP28BAg3bnz2Zz/akkwO1wQIcrdeeaiLiLrLZmDKu1cOOcBsCZ936xAWBgjcAhwQS+D3C5fuFplUWhw5elSsXHEd9W+YMUEECYYAAIGPVabdSQchAQJi7gh5YAdL6ZKQOrp10kic5eY4xXWo9wcMhOx7tiMkHVM+qB3s/+B9hiVto9HHNI18EybcLn0kEPSfSCQSXa2tze/NW7RgMFEfu9PjFp83jFKbS6ZlSKGxbSTFrAb+nkgmKZuI2xavqQBBbhwg5qykGFeDBD6eegxcUqGQp7ALNg8ACXzP1PtY3Ver7zcfuzI+4eYKNavMqjJNZJyURPfh7mQ4XPfMmtWrHYAwUyeAa/S8Zh1AgMr55z//5e3FkvU1YRU/KSwzIjdo9qVYlvB6PTRpQDwIgIDdGCN5nkAqVdOKZHaEyQCCQ7z+3e9+l1IZEffFjgKMwp/+6Z+Sv4EKDjikwAxGNTNxxQDCpFkam1pbTAbhlklmPNaB/Qdz/f2nXgkGAl/7sz/7d/sdcHDuGQAAYdWqGzf++Cc/3pJMDd9qlooeKW6rrUHgRYF9MDjjgK26OdTF5b/xvoDXR7oAAAL0JTXkgD7GJYvh0dHY2EyLl8zbhxETKHJp1lRZuHHvJY/N7AEXgdLs7B6XDPNXFmACEBwrl0LLWosqPqPulvlvdSdN44LEsi6s8iTApGPB/tw06Ws0TSsKUcp4Pb7B5pbW4QXz5sQ7O9s7o9FIgHUZzBiU7xB0NKZJ6cijdtVEfk0VE6ohBvV81VCBet7sdmm7MRHTks9jDjCJhZTiRwl0ZDvLFFV+TlpBy3ap5bECUSu1B2kZJFDAPes63J2M1sWfWb1u5TeWzHUYhGt0LZ6Rlz3bAILWdeLE/H179v2HQjZ7v2UacQ35XvygNHBN+DxeGrhciIXNaDCQGSzwbgNeBwgnwBoZOwWYI0F3IGnGArkuohIbHBRl7roUdalUqsoe8GRWrUGonkwvpDdMRWvW2smgoA12nHLCktUBkeqJBeV4b4/Vdai7t7Ep8bfxaOhbjzzySOpCzuda+gwBhHWf2Pizn/x4y9jYwK2lUtGDBYMWFaqzgGqDdohL6R/MMnHtDgjrkBWDxQ190e/ziUAwSMcJ+qQdN2sB1F0zMwJsosQ7Wc73p1CC8r3YvvNxGCDwZ7CPlQs1kjQr2S54na2eL/Te1u6jsJmWfZFsoxWmwT4nsApYXUsul+ZqbGzQYUoGJ1L1oTJl+BwYBC6rXA3GVWBTzT6oY7f6Oqu/g6+HwYNqhETtZRskTWYW0L4ypsTHIzAJS24IRqE/sIETGKADh7qS8YbEM0tXrPzGaifEcKFdz/ncZWiBWQUQwB7s3t916769e7/utszbhDC9jOrt2ZEmRdgrg35FaIFzwVXHNAYHmFyQ0ggBIwAANAh/93d/RwWXEG7Az5e//GVx//33l9kEddeg7kqqQQNPSryj+TgBgj0TCxftEjHvIr/eTeY9mWxObN++IxMKR15ZumzpU5/efNuOy9CvrrpDAiBct/bmW3/xrz/bcmbg5EZNs8gHgfqSvRDQPVaunMEBdvcQvEHDgn6JkNbhw4eJJWD6nMSyKGVsU+m0y0X2gynrCbAnATERWJSUXb7aD88KN1GIocIIlAGjS6PdrAoQAA4uFiBMdeMZx6vsBJ+3+hmke/oDPqqQyI6HBCyUEAN/DiBrZHj4rBCDClKY5VPHpwoQqgGNOk550efzY2YAYAepqLj/YAAYnOF9PM8wQ8nAgorEgXFwA1BKgIDegs/v7+pKxmINzyy/bpUDEK66mWN2X9CsAgiYpOvizf/T8ODg14RVWu6C56pdApacamgWkACBcsCDQTmB24VyWPjFgxhmSKB8V6xYQe97+umnKc2RPRFgkPTVr36VdnXVkwVPOFPF/680QMCiRbsqiBINk2oEpDIZsXPn+4Viobh/9dq13/G5jW9t2rTJYQ+mN4a111/f1/n+nre+0dtz5HPFYi40NjYqQwLBEOkAqC8ohZXUhQUgFKEqgE6wU8iQQTotZ9EQkCyZQjOlnTIobLuCI/1bZQ7Qydk1cZLmwaa3OaW1rAgAQLDDTrK+A+htmftvJwrQy+cHEFRfgo9oQAvMihyf5XOiU7K9OdSCkGD5vB4BAzKkGjMgr7WQM0ColcXA768GCNXj9WzAYt9CYjkq7UYgBVVP6d6w3bVtf83gRYOHFdgSKUykrCobBNJzwhRuXRbsqjAIRbHvUFeyPhZ/ZuV1qx2AML2x6LzrY2qBWQUQfvvbd5pTmfG/LOQzv2eWjGZY3CKFS4bYKb5AzaY6ovEEw4gef+N1pDPu37+fQgiozvjytm3in7//fSqyggdAw1/8xV8QzcnFVqonKTW0UP3a5QAI59MnwHBiUUE5a7L01TRx6FBXYc++A4fWrl37gzmL5nz/E2vWOMLE82hUANRiyfN7PT2HvzI2NrRq+/Z3/LFYTFu2dKkbIQa5Ap5digB9AVoYVPfkqp7QGaASKH7AZJEYFkwPxbilMyD3IRWcVvocl4qu2CKXEXL5muS5EHlvDxHiOGwwjRADAwRaAGHCRMKA6TTK+QAEItsraRyc11iuK6F8H2KGHl3cfvvtJBhW0xvVs0KbACAM28Wa5Phj4CTbBA/bl0Fevu17Uuvq5NttpsWUWScABAw+OJyAzQILFpkdLAtCywCtwiQwACRmU0eIUxce3UPgASAhjxDDwUMOgzCdLue852NvgWlNBR/7WU3xhW+88Ubb6dPjT5ZKuS9pmtUgPfCB8yXlilg7JgG4x8Xi8UkTLPmt23FX7OBgpwzQAOEhdnLf+c53ymZIYB+QznjHHXfQMXgi4N0HP6cKoqpP+eMGCJNCGDatTHoI27J3ZHTMeP/93QcTjU0/qG9q/Zf97715csuWLbx0zJRbPOPPY+vWrXGX7ntgcOjU597/YHeH1+OJhQKBdk0IH91zO+zAF8J9BuEuAAT0LfQb6F3wGgApQg7QJfT3nhSFXF6moU7KDLDj2eo66qoAkWpwyoshv91lTnbVhAaBNCk1AAKNo2nNCrUBQq1zkfbIk8+Bd/Znvd8GCBh7YBAAEBC3l06KlUdtgDA5i4HbgQFWRQ8gL7DmudpIirzECCBMbudqXYgKYPh7ah0XTR0I+ITPB1Msn9BQZVZziUKpRBqEhnj8maUrnBDDjJ8ArrETnNZUMFPa5IUX3mjLZMafzOezX3JpVoNGkzF2PRLpYzeECnkACKFwSE4Cdr43iYOQk6y5xPHjxykG3DlnjojFYxRWQHVGhBsgRPzUpz4lvvKVrxAdzOpzdfcxaTE+R+NM930X074MUpCFgfMl05sC7HKl97+06y1au3fvHjNM85nWpsT/dejQoR4HHFx4q//iF78Iut2BeROZiSWZbGZpz4kTjxiF4krTLPpK8BmgtLpKhgP6KBiDNWvXktOh1+MVbe0dZa8O2BvDwAjx9J7jJ8SJ3h6RHE/K2LaU+pczBiQIAXMGRb28hnOJ7uh13r3zym8zblQBUl10ASYVQ+MLaaEK21FxDcT3S/1wRbTHosKzFmpQ8W632HTHHWLV6tXUBrXCeAwQ0GbVY7Sacan+m69LHZ+1FvWzww/SR0J6WjDIQNiBrkIJCckaGvi8rP1QoMwqhDwxRr0+P4k28RxAWlf34WRdrP6ZddetddIcL6TTOZ+5bC0wqwDCsy+80GZlS08WC5kvaZbZ4AKPbpfABUggq2UABDt/nCcfLKJImQJzgMkGjomYVDrnziFQ8POf/5zCDRjQ8DlASiNEi9JURoKP6tSoy3ZHzvPAOC9kYcDHAfXuly5dSucLIyc88O+Dh7rNY8eOH122dOl/zmQmfvD444/nzvNrnLdXtQAEs//4j/+oN81Z0t5zrPvfD54e+LywSgmk+cOLwzCQ8SIXeKwloVBYrLv+egEHRJgbdXbOKQME3CM3dC4mRG9FMuZBmXGIZc8MDFBFUtbNyNBDSbjAninLe/XuuOYNI4DAQx50fCUBiPoK/WjTZBAmf0P1Yqq+SsCAUgNlDJ+Aum1brC7eNF41Sc9vuvNOCjFQ0SQlO0Rd3FmDoAIE9XUGTzyGp9ILVYOUahGjem3Vx6pmQvh62Fqbq19SoS5/QNTXxyjsh3vN97SnpzcVjkR+uXL58r9Zs2bFXmewOS0wU1pgVgGEF154oS2bNZ8slbJfskqlBt1mLWEQA4AApTR20AAI7KTIOxX8jcGLcALEiXBDbG5pFt2HD5Mh0okTJyim+ZnPfEY89thj5fzmWgKomXLz+Dx+9rOfiVdeeUXcd9994gtf+AKBHwAEAJxTpwesffv2DbW1tz83t7Pjb2+//fYPZ9r5z+bzeXrnTk/4cM+9Q0NnvjI6PLq2UMgiYd7rlrn+omQUKOwA7cHaddeLSDhCote2tjZZWMymutnpkxdQfDaTSYvBwSHqm/A+gK0wHrSwWMjDt0NsNssg9+lnayDK7XuJAUKtxZG/S5IUnPYpxZsqg8CL+qSdu70rh1EUAAJCMuwuWd1H1BBDtQ1zNWOgjmH1ONzWU4UaaoUM+LwZfNQ6Lwbm0kZbhmKorYSrXDuDLJ0RArQs0dXVZeRyuYOdHXN+Gg4HXxUiuPvBBzeP1qpXMZvHinPus68FZh1AKJbEk0YhLxkE2vNIMV6JBqGb6Fv2pa+eKJBi1tXVRcIwaA/8wQDt1DAB4zkwDA8++CAJFPFZFjhVO7nNpNuMkAhMnWAJfe+994rbbruNFhIwI9i97Nu3vxQKh/bduGHDf81lMj++5ZZbJLXgPC5ZC2zdutVbMN3XF3L5T6VS6fsmkuMr8sWCzywWdLNU1HS3ZLCQxQAtAv7NAIH7KPtz1BImol+i3Dj6KMS1EDUaBWniBZDB/XQqeCCVKPb2fBoMwsU0TLVgjxffigmRjP3zTnzSd9mO1LrHIzZv3kwAYaqyywwQhgYHJzETDLiqwwe1WMCpAEKt0AKfZzVAmCqMCEDAwAUZDPQ+l9yksC8L7h3u5ZEjRzEP5TWXdcrr8fY2xBvebmpqf7azs6O/sTHSt379+uLF3BPns04LXGgLzDKA8EabKQpPWqUCMQjIJIaQiBkElwYGQVbGU/0H0Dj4GwN2586d9DoyF2AkxLXiYa8MYIHQgupgR/SvXY/+Qhv5cn4O5weRGyYanD9AEMABFhz8HDt2zFiwYPF7y5Yt39Lbe+zFTZs2SUcd53HJW2Dr1m3hSNz9QCY5cffo2Pji8eTI3PHRkbhVMny67tZWrrxO1NfXUxpfW2ur8NgMAu4hp+CqFHw1e4X+C/B3srdXHD92VAwNDZZDSUzb146l2xkWAAdlV01pnKU+ZKrjhU0JqoAX561aPuPfEGNijAG0Qo8BZ0KApUnAwT4ZlKXefNddFQaBdESTz4sAwvg49X1VOMgAga+LhLp2aAPPqWGGahBR3SFqhU3UEMMUWa10GDVMwQCuZMrncQzOhti9+wPR33+KdRRmOpMxfB7fmVg8/mG0PtYfj9V3Jxobu9pb2gfdbu+h06fXjTzyiMY39JL3YeeATguoLXBhs8EVasMX3nijzVWwnrRK+UkAwUDOOJnUoMiNt0zd8mlioGMCHhoaEu+++66YN28eqcg9Psk2ADAg7ov3sMqcY6QfJQD7uJuCAQuXsMU5gwGBDgEgATvTpqYmMn+CIGpkZNTI5vK7lixe+tSZM/0OQLjMN+z555/3JRKJpmS6tHR8bOzG4ZHBuyfGR5blcrnGRQsX6bFYvWQQWluFz7YEp10lXC+V6ED14sQLKe9Ms5mUONUv2S+wCgAO0hsBcTdZgwDLvVzQ4PIoLxyZPrJv234ISnsQQLAzgVSgwWwa7/w5VMDP8xiRlLpJix2bB4H9wA9CexAHo3YC+iX6KNxLARYYwMvvh2eHV8CDhNMceSGvXtxxTDAIqrspnzczBmqYoNZYrr7OWvoIFUhMFa6YBLRqpLridURPvrjjAAAgAElEQVQbIKLG8dA+AAmYk3APiRUyDGYYTN3rRWGrou71pXwe70A0Ghlvbmrtiican4tH63dscgqrXeaR7ByegO5sagYABJ+llwEC4rA0IWESBJtgCkohctviK7VKHSZlhBcgRkT6FJztsFOBOIyUxV7vpIJOvAvgOOtMaSeVkkbmAoABMjIw6aMENcAPe/ljwhkfHzd6e/t3rblh7VPjw8MOQPgYb+TWbdvCMaGvzaQnHsikMvf6A4HFfp9H9/v8or29jQACV390u0nbaOv9J59kLXEd4td4QGsyMDAg+vv6xOnTp+UuHWJcW42AQk3QKiACTkWC5L9sz4AqBoErDZYV+lx7QP5mcEpAA7t6+zmIMYuUvQFDJwAEg8bT8uUriC0BgMFOHz/pVIpEl+jH8CABIOcQHi2+ECnqOmUSIcSgLv5nAYSxMQq9MIOgvs7aI+nsLEMs1QChFkOg6iTOFWr4qG5Ui8lBAgqyFpiRxDkCPOG+4YeFxQRI3LL4nGWaVqFQLGUzWbNgFFNe3Xc01hB/LhaLv9UYaxyIRGI93d07x52spI+6I87rF9ICswogwAfBpfuetErGl4RZarBMw65UJzUI2D35vL5J7aBStijKBKpzyZIlBAp8fh9NRnDDg7CR450qezCTAAKDA+w8MJlAbAnQg7DI4sWLqfYE7VTsrAv8Hk8mjePHe3etXrXiqVQq5QCECxklF/EZZDts37693e0J/XEymXwsl0u3BfwBV0e7ZBAYIADTWmYlDVD9ynOp78kATNMIFIByPz0wQNkP0CsAQOpu6UAAkCC1jNLqV7ooVtH2NnCYVOzJ7k9UBdSu96CyA0jPZAEiLdS2myAAAsIEa9esIfHvqTMDBM6xWwaLgPNm9o5dIvH1EBsjzRFi4XXr1k1Kc6wGCGBNBhWAwG3GLItqZFTdhjyW+DMqS1D9Pee6/bWAgApGKseXdSio/e0S3UhFzuekvgQ/uF98XmqIFM+f7OuDUNUaGx0zwuFo/8IFC/oWLlw4MnfuvD3hcPTnHk/xQyc76SIGqvPRmi0wywDCe21en/akWSp+ySXMBlAGyDuHsYxkEDTauaiDngc+kPqrr75KOxa4I9JOwaVRXjp23IjdY8JSB7xKpV7p/sMTB4cWIK5E5gJiups2bSKAgDAJdiItLS10TfhMKp02Dncf2bVo2ZKnrGLRAQhX4EZaluU60HX004NDg1/PpNLrvB6Pp6O9TQR8Hpk/b5nCTV4H0sCo+nEugMCUN1n7aigfbFCfAGV97Ngx0dt7QqTGxyntksRxFkyHTFqoJEiY/IDSnscALVKmRfUg2BEQ2gEs8GAt1BoEvGPno2Ecop7CLbfcQuET7OGx0MEQCjbT/f395PWQzqQpHCKtpU2hez30Xfd8+tMEENRQgXqmOEcABKSBTodBqLXoT8Ug8AJfvfhXbxbOd/OAIKhsdylg5Hs1ODREHhjYvHAYRwobJfORyWTFqVNgh0aIndF1rxmNRktNTU1GJBIZa2xp3r1gzoLvpOu8v3ji/vszV6CLO195lbbArAMIgbD+pGWUCCDAKKlMb5JgUaMsBjUOyf+GcO/1118n7QHCC8QSwLVNlzsZsAgMEHgymWkAARMzPByQogmAsHfvXloMoPheu3ateOutt0iEiUl5w4YNNHFmMlnjYFfXroXzFz7lclkOQLgCA3nLli2uL/7u7992ZmDgqXwud5Pudvna21pFwA+2C94ApoAxoomyT+cBEGrFxlmrgNeKxYLIZjPi+NEj4sjhbjF4ZlAUi3Kxx0JVK1QOgMCLveoUiucgKty4cSO9jkWeU4NZkMiAAd8NRg46AvRDhPJg4cwaBVwj9AMAC6imCiAzMjIskL0AAA8u8O5PfYrKr+PBIr9aAGHg9OmzAAKHPuQCXjvEUAscqAzEVN2kegNxXt1Jc1fYA8MgxpLBHMAOAD63EQMEeR+LBBKwyQGYcrt1mqswD8Riccul6ylNc73Q0tj45EMP3dd1XufkvNlpgXO0wOwCCO+91xbVA09awviSW2gUYigaRWloRN6oKPRCBR7LSJwHNCg8OCaiQhzCC3ieahX4vKQsx+THsUFVdAU6nxXH1Wrpj7Nn4btRihphEsRmkd6ImC4mGPjWI8yA1zHRACAwPZvNZo1Dh7p3dXbOfcrrdTkA4eO8aRUqS9t/4OiiwbHhb+Qy6XvcmivUCQYhUAEIVB1YqZOgnmYt0KCCA951Vi+mMgVSQx6wSKWS4uTJPgpJDQycsWs9cNEhWRpa1iaqBgjSKRDnEAoFxZ13biYwDcDNhk7waABgRV9klT+FGDZvlgwCwhNUgRJjVFBFQ1q8TTgNZsWJnh5x8OBBCouMjY8TYwEG4cYbb5wULqsGCADMZwYAEGxVRZXj5EeFGHC8WiGCqRib83lv7WPIsA7aAbU7CoW8yOZyYnxsTCQnJigUw9U6qa6mUk8C1wIBdjRaRwJk3IO6aJ2IRKOit6+/OHB6YNeiJUv+43333PHilejizndenS0wqwDCtp07E83hur80S+bvC8tsgQCLLE3JZllWX4NLHdK3MLhUm1bseOA2ePPNN9OCDzReKBZo1wLaFDsXNq7BYATdh1gu0iEhasTCy7FTViDXojanswupNflXTz7VCwA0B6g2CSU48ukxkWAXhkn51ltvJZCwbds2uu5bb71F1NdF6T2ZbNY4cODQrra2zqcCAa8DEK7QOH722WcjiZY5fz4xOvIVr663drS1aoGAV1iaXTUQSwcyDGrQ/mfFz6vskLjvTB2KsEingJ0nFnYIGo/39Ii+kyepDxGNj1ReiASRi0c5+6g6aC/ktm8BwlaokYCxYqA4lR1PR5Mi5IDxArCAUAL6Hspb33333eUWnyQStE2UyEbIznyYwJg7fkwcPHRQLF+5Utxw/fV0HIxHWZ9CAhUOtyEDANfAjoQYv3i/KjRkwMLjSf28GiJQWcOpukh1GKV6HKvHO8t5VZq+khCVr1cyAxkCWvxDheHcLgIQOB6YAhT6AuuJn/pYTHg9Htt4SZpmHTl+vDgwMPDe0mVLvv6Zu+984SLdsq/QCHG+dia2wKwCCETV/pvf/2KxUPjfhWWt1DTTbRShiDbJyhW7JUyCTDFyFUb8jeJM2KVgwgKDkM1lRTqToffG40gJ9E/yO9ixY4d46aWXqOzsww8/TGADO3Y8zjVRnC9AmKpT8MTIkw6uBZoDPAByEGoAI4IJBgDh05/+NE3+mCRxLVRopkSWy8befft3dXTMdQDCFRyBTz/9i+B117X+fiqZ/EuPxzW/rRUAwSc0lw0QYD98HiLF86myxQsq+hKzZOhPALwIE+AHiy1YKQ0lp+2aCWqoDk2HsAHGD2qdUElq21OBwxoYF1joWJ0PQDF//nz6Tl64eZGfHAawaFEEOIKWKJVJUwjEH/CXMydoZ10FEMiO+sgRWkTxUys1WQXerNeoBaimBleVTnMuBkEFJXhfNUCgUIdZsZvG2AT7CeCPNgN7gPGL40APhbaD6JhDn8xkskcL3oPvwDGO9/QWTw8MvLd8xTIHIFzBMX41fvWsAgiYH46fHLg5OTrylCXE7ZqwvCiMI+1dNDKeYRaAvdB58oL/wYEDB2iCw+ACQ4DwAqhQAAaexDC4MVH+5Cc/Ic8ExFHhroj3YTBzaKI6HFHdOaYz4dTqUPw5Bjccf8XzSBcDY4C47p49e8TWrVtp54ZzBJ3LkzDaAMlsmJAymYzx4b59u+bPX+SEGK7gCN669a1AR4fnseR46mseXSxobW3WsOC6FICg1QAIbFlcfernMFQ+6yp5waoORTBwQF8Dvd916JDo7ekV2XSa2DjW87AwFosw0g9x3kgtRtYQiyPV0AIDEUmLe2hsqeZlaqiOd/+8w4enCa6NrdKBQTguP6mwlGVRWAPnjPNBiFBlGPDvahZO1UCou/3pdguVAeECTQwMqsd7rfEPETWDFPzG+WBOATDAuWLcAhio4c6KJqHS1mhX3Asy17JMcbL/VLG/v/+9latWOgBhujfTed+0WmC2AQQIm9rG0rn/s2QYDwnTjECoKA1iLCrUBPqNd/k8sWGwYrcNCvSee+6hgQjEnpxIklARBZow4PDARIbPgXEAXYrdOSh9oHzs1vmBSRVAg/O0LyVA4PCI6uCIcwZwwXmAaoSwCzUYkLXw2c9+lpiOMrtBwi65YxkdGzcOHuretWLFyqcsy8limNaouAxvAkBo6/A8lhqf+JrbrS1obWnSwuGgcLlttTpEAOfBIJzPKfJunRdMNTaPsSMFixIYD9mWzswqcIEz9EUsXrDypnRaWq3l53jBZ7DAQFUFt5TWGAgIv89XDgmozEaZhaDi7QiJVNT++JsXdDAX/IDnw/Fjxyg84rOzlyr+B/IzKgBRAQKf9/kA+alARTVbMOUxUcfL1kvwRoPBG5+nCp4YTPD9w9+U1mqnSWJOQKp2/6lTxcGR0Q9Wr7ju6/fcc8evnRDD+YwO573naoFZBxCQV36w6/hj+ULuq6ViYZ3L5fLBZAYTlq5LHwTETvHAQs+L7DvvvEOGQthpY2HHwCyWDDKWIbCQTBKa58GHyRK7dcRb4U4I4ACAgMGKNEk8r9KKFwoQak06KgUKIMK7MFX7AIDw05/+lGLIn//850nQhfMn4SVAkimp64EzZ4xjx3p2rVt341O53LijQbhC88HWt94KtIkKQGhuSmjRaJgAAnaBtKjAxbCGd9n5LGK1Lo8XTXUHTMt7VUVFrjCI8YNdLfoYjLjAUqFwlM/np8wCHg9ImeRjco0C9F1m41Q9AI8rptDB2qlZQ3wcaB8ACPDgcuUEfClLiUWV8iqhWUC6ZCGfL7+fF1yMX1WDxAsr3sjHUUMGU/1bbc+pWIJzzQOTPi+kNko9BwYEzChwOinPX9XhTD4HAg82cBoeHTayxcLhzo72/5JPpZ7x+/3FRx55pHCFurrztVdRC8w6gIC2337gQIPf0B8pFrNf1YS10qPrbpkf7BYhVHIExa5ppNTmAQWAAAU3ChohRl8sGlSLARMJfpByhYJH2JFj8gJtic8CGDDtB4AAkLFw4ULKGsB7ECMEkufv4gX/YiZ1nkRInGWDHHab4xAKwg3f//73CcQ8+uijZP6Ec+DPujUX0cDHT/QYg4PDuzZs+MRT4+NnHIBwhQavBAi+x5LJ8a+5rNICmHYEgj7R1tZajrWD8aE8eZxj2RpZkMDwUj1U2r3WMeHHIEWL0gOBRI39/TQ+EIbAo7GxUbS1tYvGRBMt8syiMfOl1pVAH2Y9jcpcoB9jbOG9AOzcrwkgEBCgxiifIokZLQkduI9jbGBM4hy5einGA6df4jX8je8FqIfgmAsl8cLMO3k+t7MYwapS02UgY5+bGmI4V5iBcIGdqaICFA7NMFhjoEBdwPa14PADAy8GDVyQbTQ5Yg2PJdPhYHB7Q6Jxe1NTY18wWL8nFtH3vvrqq0nHZfFSjZ5r7ziXbub5mNvue9/7XmjFqnX/pVjI/57f5wvbuY0iHA4Jv12sSa0Eh5AB4vb3338/7f5pMRUW2b5i4OEHugRMKHiw/TLvSDCBYSf14x//uFzMCeriBx54gCZM7ORZJMiD+0KaRJ081B0fJgWu3IfjAsgAIACgPPTQQ5SqyTsTTDa6S6dr273nQ8Ore3et33CjU4vhQm7IJfrMW2+9FRDu4GPjIyNf01zmgtP9fdqx48dEe3urWLp0iWjv7BBuKp4kayWou3BVfFdeoM5HhHAe18ATwqTFzk4JRh9HNhC0PDDticcayN4bQkSk3mFMAWxX63N4J88hCBLXQa1vZ0mwRgFhAmQVcWgAAIGZA7oEu9pjNQNAbKCdEYAxCG0CBMVsPITxzqI/DnswyOAQCrMdqg2yCgY+ChioLILKRnDTM0NUKEgQL6t3Ctqo8Byjhj3QjhjzDKJwXZh/kK6NeQDjnupYaEL0nOwRJ/v7kCWR0zSRikTrcvFY/GRHW8drK5ev+ulrJw7uXhEKgVVwijydx1hw3jrLajFU37BdHxx4KJtJf113i+V+vw9VUITX6xGRUIgGERc/wcADewCjpM997nNlQRP845FzzQ81lqoOVhyHhY3f+973KByByQcTz1e/+lWiXAEseLK5WICAz/PkiX+rQiX+G4ZIr732GlG+iAvjenl3SAuMptM5vvPOdmPBwkU7Vq5Z/dTJE0dedqo5XplhTwDBIwGC2yUWRCNhDSm6Pb0nxEQqSbqS9tYOSrkFM6Wm0KpxaT57m2e4rBcjFzWb2ueKqIYhRkZHRX9fv9i7Zy+xC2ARsEMHUABYhi0zGZ/bAIDHA9HidkplrTGHxZnV+lyNFCxfNRaqDjdwv8fxVVaBGQQ1/KFS+vg3gAUbPWFTIPUYFQ+CapCgMgZ8XSqAU0MI1TeHRYrVOgkG9vxdOB/MJQh/AhQA8GDOwXwD9hJOqYFggDRXyMY6fLRbDI0MUQZXoVC0XJrbcrndKBE9EvAHuuOx+HstrR17O1obd7e3z+87enTvGQcsXNahc9UcfNYyCLgDBw/2tOXyE3+eTKcf8rrd83w+j6a7NBGNRMoCQqYMkcaFmD083iFKxEDOFSqxSw4NYMJQaT/Qqh9++KFYunQpAYFvfetbJBREUSTYG7M4kE1iVP3AhfQSNc7Kwi2mQXl3A/Hkd7/7XWI5oD/AxMwudlxOV7NcSGOzdux4N3vDjet/1dyc+LNVq1aBI75Me88Ludpr5zMACB5f+LHhoZGvWZaxINEQ05qbG4VRKpLdMHaGw4PDVO0PiyyqHQIo4FENEGiR+hjvoio+pPCDSyrq85k8AQSkBG/fvp2ALPoi/A8g7MV7sfMFuFY/p6Y8Mhgu93vbSAl9HSABO2iwCgAKvDiD+ZN1DeT0xQCAxzCHERB2gH8JmA/WFHEoEOABbb7rvV3izMAZYkDgdwKnVa4wWQ0OuB2mYhN4oVfHsNrDNVuDgPNlrRCLouErkc/niBmEmBr6D4xpAEeEDzH3cDonCxpxPulMSuw7uFfArln6QFSyS4rFEmw2SpquT7g1bTQQDB1duHDpoeWLl7ze23vwF0888YRjy3ztTEEXdKWzGiDAF+GBL35xUSFT+KNCPv95j+7u9Hl1HQwCuyXy5ApE/sMf/lDccMMNNBFggMJ8BZMNx+5ZSyAtTaVQCxMf/BNApUK/8A//8A806YCJQLnaZcuWEWDAc5iE1F3ThdwRlZ7knQmdq10KFq/DYhkpjmAPOGSC5yVj8A5dzx233YE684Xek317r7/h+v+WTif/v3vvvVciIufxsbcAAYRg3WMjQ8Nfs0rFBQ3xeq2puVFomvQAQDgol86VRbO4n9gxIoyF31hksTCVle015YyX9rLUvqiyU7QQmvBclFkM+MFOF0Aa4wWgGgsu7L8BrIlVsBkuVRipLqjlnbl9CQwAiFXweCglmdkFOgYMk6qwLsfvGUizrgFgADtwjFOMaYwTaCogwOQy6QAFqC4J4I9dOqdZqqEDXpjV585iCZhxqeljLTNGWFvEHghoO7QZfClwnxEuBFBBu+G8cC5q+jZ/P8Y5AMKxE0fE4MgQZX7ga2VtCwBLGMeRHsvyeHQrFI7mY/WJzIIFC48KIb7X1hz+zqZNm1KXttc4R7uaWmBWAwS+EXv27FmWyeSfKBSNB4PBwJxoOKTRLoCcy+CRIPVOYBCwM0PqIiYTVKKjQjJ2TjIGHnbgHEfFgMVCjAUanwG4AEDA5IJCNLAzBnAAOGAhFk96FyJSVHceKqMBwMI/uCjEMREHxgSyevVq4ff7yIYVTpFvvPEGld39nc89IE6ePJX06J5frly95qmbblrreLRfwZErAULssZGhoa8Js7ggFqvTWlubRdFArNmisshYdNFnocoH44WCS+hXkWhEJBoSIhqVduAUGbSzVMprpD2Sa2VBXMhlsxhQjh1ZRIpAglI2GWmO0tbcpKqoxBikUlS1Ea6eu3a9R0B97ZrV4qYNN4kFCxaU9QUYl1wyetIumx0WOWPBNm0SbhctklhAseumduCBTYuxbAAyTYPQkQpSyeJVuluneYBYw1yOFmKIjRF2xG/OXsJuHQABLIgKAqbSIvAYZfBUrY1Qr4t0Bppb5PMFureykFYvhQgwV7W2tBJLgPkJgFAFO/w91QwF+kYqPSF6+06IkdERAggQJlslWdrb7w/YLowN9DsYDAufPyjy+eJoz/GerZ0dC/7m0Ufv6b2Q/uF85tpogasCIGzdutW9dOnqRZlM5iv5fP5BXXfNaWpqcsM73igaBA6QCvnGG6/T4v7Qgw8KKMjzhUoaJNOU2GGogAGTCJ5D1gImux/84Ae0S8fOHYVr2AuBhUbVkx3+5gmGd3/8HO8IeSLDOQCc4Dd2BypzQBMWgYM8aShYI4GdGiZnZG5gB/fSSy8Tvbt69Rpz9wd7Tsyft/jvW9oTf3fLLbdkr40uPTOv8umdOz03eIP3DQ6ceSqbyy7vbG/zdLZ3UJVFgATaFdtSd7IVtgQ9PzGRFOPjSMHN2OK0iIjHEiIcCtn9RPZhZPDwQiWBsVzMqa/RXv/cDxbZW+QpMr0Hv7O8WdYE6Q/wjRgzR44cJp0MgGsqOUGL4Cdu+QSNpYZ4Q3knzWmexFhYgsSaODaugdkAvjZKV4So2A5zoPojvE+wa6ZSFnatg0nnhj9QHdHeKGAXz+EHgHtOD8ZV85irNY7L7Wu/yIBAzYjAOFWZBgASAAKEM8AUINyBMEA0EhbNLS3EFNTV1VNmFc4e2VjUDgQAKyIxgEgpCYGFfKmsecJ8MDQ8RNeANyAsBTAAr4poJEpzBbEPVL0W4lBDpNOZ8WNHT2xdtGjxXz/66AMOQJhed78m3zX92WAWNM+ePYeWmab4t2NjIw/5/J55TU3NGsVLNRgg6aKn54T4zW9+LR564EGiQFGPnXdGPMgxsbEoEJcMeo/BA8DAc889J37961+TJz1CDozq+TeHGFSxUrWwiQEIi5HYoZFrRKh0LoMIiuFqcgeEXQbOH2BC/X6ACkxCsVjMOjM4mD969MRv58xZ9Jf797/f7aQ6XfkO/NxLL83VDO0vRoeHN7d1tM2fO3duwEtiWqnod8ODvySFs7jf+Fsq/lGVMUvKfAjX0J9hD97W2ka7TTUGz+BT3c26hVxwP+pBFU1w8Om8eYqDqVoD7rso6/zatleomBiqN2IBgyMjHEFRkRBjjLUBqEEAgMBphziGys5Vfy3eh3EJ8E4OorYuYRIbB/DlkhkR3D6so2CvBYwrgAUIAnmToIZYVEZBfV4FBxyW4NABtAQIYSC8gfMDGMD1gvnj9GhVj8EbCAYI6thnLRXeg5AJvkNNa4Y+gUBBNFouX8+biLKGxSWEAfv1THb86IkTWxfNX+oAhI8aFNf46xcxFcy8lgOTcMMNtyzM5XL/tmAUvhDw+zs9Xg90i3YuuSmef+45sXr1KqI7aWJV8qoxIDmnmicSvIcnEUxEoPYhVIQQCzoEtcATTyLlOLGSx80Ka/xGuADfg4GOf2MgI+5INSKyWZowqycnnA8WDNotuV20U8CkAIaEJkPbfQ7nO5FKmu/t+uCky+39f6LR0N8//vjjMnfTeVzRFti2bZtumr5mwyp+2u12fcHr86yur6trCIeCXt2tE5hlDSkp603JDuC+42GaqMqYEqOjIyI5lqT7jh0iFhw27sL7eNHhBQb8wXRCDzQWLhIgqIsSpw9jt18qGmJocIhSjVGRFMwciqWtWL6CwneI+wM4QJmfy8juqjJsfOOmCt3huzj8UPZUsMMTsm4EgvPSZ4K1C5QODGGfLRBERUX4i3CxKRV8q8BCfZ7TJgECAC7weTAGGOcYz8hKgSiaxzczjvzdnEHBIRF5n2XRLPzmLAveVPC9VX0kEKJQtU8SbILJkW3IjAbuL9ipTDY3fuzYya2LFi50AMIVnRFm/pdfVQDBbm7t2LH+pdli8avFfPZBr0fv9Hg80IIRi7B334dE18J5UI3t4bMYWFigMUFgYLKwCjt1/jcmgm9+85tE46OuA+KhcvGuDEie2HAMHuCYCPiHwwc8AeCzmBwxuQI4YMDjGDzQ8d1Erdq7JcSmMQnNnTvXqqur09i7Aa/j3319fdndu/e+09HR+rU/+qM/2jXzu+G1dYbHjh3zjySza0fHRx5KJcdvDXj9i1tbW+rr6up0zOm4j+hXCDHAwVAuJqDQJQWPxa6Yk2lwYBXQj8AooQ+pDoW8m4eF83Qe0j354hgENdRW3sUj/m6bGKAfo/+DSXj55ZfFCy+8QDtshB3Aym24cYOoi9TRWIFwE9bMDDqqQYJK+fMCy74BnAXB45JAAhoP4UaXHEs8xrDoYtxgXGGBx/dSaWpl88CMA7MZBMQnJsSpU6fF8ePHCBzgnHEPkIYIwSMYAwAC9jSQbBCyD+V8wYJNng94U0BhjoJMv+SsKgYUDIKgOUKfUBkTbgMGZjiemvGA0EzRMFFierznRO/W+fMdgDCdcXEtv2d6M8csayHLslz79x9eVrKs/2Caxv26Ww97dF0DQMhkUmLXrl1i/fobaNfFKBu/sRCzM5u6g+eJgtE+qjyCyluzZk35GIzw8ZtjmhyqKFN8jGBYeGWDEgx+gAIGCGAG2BSJJyY6T5ecXA8cOGj29fWl5s+fl040Nmnx+vqo7vEETNPUEJPcsePdYY/u2bp06aK/2bx5c98su33XxOnCMnzHjoPxVO7MmmRy4g7LtO6IRCKLo3V1sfq6eq/f79W4D6BiH8WmbbMsYqpQ1IjrJwwNEWBEf2OqmcECLSDTBQgs+ruIWUEdN2qoDDtiBgwcPsD1YIF9++23xMvbtomTvb3kzrj+hvVi/Y03io72duFDjRTCRRWLYhqPVB5bAo9qoM+7ZrQf+ylUNAgSeDNAwALKbqrsOQB/FE3RYjDgB4jAe6BjAjjDOAcgQbgALAFCf48HfgEAACAASURBVGB0uDAVh0dU7REDKAY9+M1pj5hf8F5mEBhIsD/EpMXetsnm+YvbgOca3lwwEJF9yS2MkiWyufx4T0+PAxCuiZnm4i7yIqaCi/viy/1pgIS9B448bBQLf26WSquDwYAfiBsDZfcH75MoCPnFmGp4spB5xKVy3rR0O5NNxCgfAw65yhAbASRwXQeVWuVBWq0+ZgEUvgcTOKdt4fj4LpyHWhwHx2ENBIU5SqY4dXrA2vvhh6c6Oue8sWDB/EPJZNKdzxc3+AL+G0LBQOT0qVPi2LGjB9etu+Fv33z9le9v2bIF5S6dxwxuAWQ4lFzeG9Kpic+mUhMb/f7gosbGRCQajfi8Xo9bLnLSCAtitVKpKKhiAXaIpNiX4tV0OkNAAbF0vB8LVn19TAT8AaG7PRSioGJBELuR6A2La8W6mCp8XeSMoO5oGVgTUMDX2sCYw3Z4nuP2GE8w/9r28jbx7o6dtEjedNNNFH5AOjHAPAOLMpNA5aIqqZ94Xn0P76Ap6wELpC69FXjx5HNlcyXWeAAIUFsTAJNeD8eOHSe2BuwjqlyCIViwcGG5HDPdB9semlJACWDIwA6OI90kZYhDbibs0KCFkJBRBglczIk2CTbLoGqYpmpfbhMGaAwu8X6ex/BavlASyeTEeDZX3NrZ2f6fHnnkcz0zeGg4p3aFW+Aip4MrfPYf8fW7dx9uEh7rC7lM+jG/z7fG6/X6MehyuYw4dPCgWLJ0iYiE5c6dBxQWYlCHLBzk3QZrCDDgMNhBRwI0MIXJA5OBghorZXoQ4QP8gHrE5M27BfUy1OPg2OXYpIbKjBOld3e+N2BZ5nM3rF/3P5YvXtyNcz15anB9Np+9N5PO3jJwZqAu4Pe/vPa65Vs2bNgw4Bgjzew+qp7dzp2HEvlSanVyLHlbNpdZ5fX5FkbrIp110WgkHA67PR7dJRc3l7BKsOyVu00GohTCKhoil88RgAUbhtej4TpayGR5abl75sW7OqaP8sqX41HL2IkWcNDkyLNwo+5ISYyNjoneE72kUwBggPofwr71N64Xq65bRY6NvMgj64OiLnZKZDWToDIWUPATQLBLwpO3gi1qzGRQcjlFrIAs3jYhjp84TsAA4wvjHIAeLAF+0JZlZkIxslJDHuo4LodalEJRZaZAOXcVULHgku8PgwRmDPgeMXPJ4RL13vL54DVsPFKptBgdSwIkJjs65/xrZ2fHlnvv3Xzkctxv55hXRwtcpulg5jTOzp0764QeeCyVSj0W9PtWRSNhH5gETDzp1ISYO3cOUYIYRKwzwGDCxKDqCtioCLsftl3GJFwNDHgAqxQfucHZxWm4ZViIyOpkdaLmY/KkgL+Nkml9sGfPwInevt/MX7zg6T989NF3YIDCx9u2bVu95Q3cXszk5rg9np0jZ/p2OHaqM6cfns+ZdHd3+3K50tLjvSeXJ1Pjn/a43Nc1Nje3xBvijX6fzxsK+jWfF2mN2InKlFg1ns59ivvx2Oi4KOQL5RQ4hLOwQ0UfVdkuosTt2Pv5nO903lsNRPgzrEnAeVAVVmgsDEvoHl2MDI9QmiRCeiikhkUaqcX4wQ4egl0UJePrYEpfPR+8xqE+Dj0wYGdjNBYLAxwA+Pef6hf7Dx6kNlqxYgV9LxtVEc3PoKBGxkT1Tl5d9FWgwGEHbhd4GEyHvVEZEpVN4HoXKuPJQmi1FkY2Bw2Elg8Gg7sDQf+3EonE9tbWxMTIyMip/fv3551sp+n05mvnPVc9QMBo2L17d2MmV/piLpd91O12LYvF4lGP7nKfPNkr6uuipDRmOpInTAAEXqhZuAghGCYbTkcEQOBqcWpck53PVFai1gSpxmurX+fv4bBEV/fhTE9//0sN8dh/jUej79Qq54qwyqGhodDSRCKlgodrpztfXVdqWZa+ffv2lvF0blWxZNzs0lyf0nX30oaGeCQWDbvdbk1j0yAWwFazUSSEzRtlJ0E2BcKip+oUyovXefggXIrW5sWdxx3R85osnga2D/Q8gAJSBl96+SWxY/sOGnOLFy8SN2+4WSxZtIhEgWgHdQyrqZ/qwswLthpmAEBA+AALKosjsYkIBpEdIEMY0oUEIR67ToNtqiDHsI3TKZtIPsogH5+zn4fmgl7nv9mrwjahIkbE9isoF6ay368CD742DlHib1zDxERKJJNyTmJhJG9MwB7hx+cL4BqtwcGhbCab6QuHw90NDYnhhkTiYCgU3ebxGAcefPCBcamIdR7XegtcCwCB7vH77x+rzxbG7s7l0r/jEuLWUDjUrAnTm8/l3IhvsvkQJg4s8CxWxEBDJUhMUIiJIj0SkxEmCjiy0c7HLjKjiohYHFQtUGTaT01FY9aBJxa1YAzed+TIkUJXV/fhhsbmv/e4xT8+8cQTUgrtPK6ZFkCJ8+JEZvPY6Oi9hUJ2VTQUaIrWR2PRcMTr9/v1QDCgYRcqBY3kaEC+S0RlG9idy3AVMgYkjZ6kfg7QW19fR6576LOXK8Qw1Y3ixbsyXhA2kN4HHM5jwI2/IRD8zW9+Q9kPQ2cGRXtLK+kU4KnQ3NIs4rE4LY4MmFQQXg3IGdRjQcVCKlNIR2mB5TLreA/XOVHBDIcImJXgMawyitWsYHXYQQUSrIMqAxBFD1J93sy64HzxA3CD8+aKsmA7EAbBvIYfZLbwHOfz+YkdhY4qlclYLs1VLJVKhsfrH4831HfF6hPbXC79eSFCBwYH9+e2bNmCanYOWLhmZprJF3rNAARcNnwS2ubNW5afyD9YLOZvro/HFmpWaZ4lhD8cDAmvD5bFUPvKXQMGH4DBm2++QXFJUJurVq0mYxsMwmxWiplIfESGTFKYJCeLyTsJ+RxSq6RHumKRMOmOVFzpNGGWTHH4yJFi16GDXa2tbc+0ts79l/vu23zMYQeuzdEKH4VAPN5STOevS06MrjWKhTVer2dBfbxhUay+PgaQgP7LvglYKIuFotBM6XAoQ1YyrJBKTRBQgEsj1iIsKGSyE46QoO9SP9QYOi+MvPtGn68I8aRnAwMH2CQD9GAssF4B70WI8L1du8S2l14mB1HoCWB9juJpqP8AF0Ecg3bSFDaR2Q4Yo+qCyyBBzTgCywKQwFokovURVoBviq0ZYICA49HYR9qk3Wi8mqqTq8osqEBB3RxwmyMdEcyJWmuCMx1wbhCiYoHHD4AeW8MzSwB9E1hRgAI8x2mPXDQLnwGoyBfy9D0lwxQl04IFRsHldg/5/YGuYDD8Wkv7nD3BOs/7xYmJoUgkknFClpd6VMz8411TAIFvx/PPP++LxDuuSw6fus3j8T4SiUbW+DzeAAYQTa6aJfw+r8hlM+LgoQPi2WefFXPmzhd33nmXiETlxIMdB1ThkmG0leH2LMCNalfLVcCAfKUiZsJuSdaKkG/CxCAwWGnw9vScLHR1d3WHItGt7c2xbz/66KNONcaZP6Yu+xkiRfKpp55y33PP73SkssnrR8fGvqT7vZubEolgJBKCxbiu624Npc917IDzRWFAp0A0uSktie3OiZz/4ZEhovFR4yMWbxANDdJ4iRkx1jTUujBVL1PrdVVkV/26ulCrr8lzk6mNapxdFSEyoIDOYs8Hu8Wvnv8VpS8jg+O6lSvJUwF1SmL1MUpZBKuCND86hlEqZztggWedwqTFWtNI28FFngAYsGHgzCI+lzKwKV+AzAypda0yKlHJumA9gXos0kEBjBADJJ1TwQxwCiaEk9BJ4DzwecxZqCEBsywIKBE2gsaEdVUV4FVJBwXwwTGqK9CSqyw5SomCpWljLo8XIYijjU2NHwY8gbfr6qLHGue1pgaPHx95+OGHi85G5bIP9Sv+BdckQLAXae3tt/fHMpnRh3O59O8FgoGViXhDRAjL7fGiKIyXPGMmJsYJqfsDQVFfH5dpiHgBnvGgZHnLX/aXQZNKF3WZ1iR3LGAN8FumP02OUWLaJgoY/K7mgtOZeajrUPro8d4j7Z0dP44lGn+w/723TzgCois+XmbcCTz99E7P6uvdt2ZzuYfT6dTCQiEbD0fCnW2tLfFgKAQjUc3r0oWbLItlOp2MpZdkITOI46jGR0GkMxkxMDCIYj4EEMAqIPSGRWgysJXNwBkUVEVwCha6mjlQG/CcAGEaLc3iOxo7pRKFH95++23xyrZXxJHDhylbCBVPEYLo6OikgmYEAiSeLwN9AHxmECrrvBQt4/zZ+RSMC0CCKvrj46jhhCmvWbGN5lACayE4G4HCm9msGBg8Q1kUuCaAAyzqVHhK1wkAqFkVuEe4X+yfwt/PGQ1879DeOAa0FgBS7OKqClWZIaHkEE0rGSUjLyxtzBcMDjTEGo40tbQONDU37o7449teHz7au+WRR6Tfu/O4KlvgmgUIfDd37jxSZ1jjd4+Pjn/W7Xav93m9HcGgL+T1enSAhFKxSDUbUCUNOzBYlUJtTb8VgDDJytZuVR54PFBVPUJ5ZyU0Oh4qS4JPmJhIGSf7+ocOdXfvaEy0PDd/7rznPve5u085aP2qHH+X5KJQ9vz2228PNrXPWzk6PNQ8OHLm5pJh3BaLxxY2xOPx+khU93k9LkmHy9CVgTRJ7FMR7nKBepcllAv5khgdG6UdJhYQ3qFiUQoGgrSysj4AJ0+U/Tmu4nICBFrs7UW3ZBjC7/OTrgKuhgg//PIXvxQf7P6AfAtuvHGD+NSn7qHwg+6SAkh2OS0LPTkbxO0u+xJwCILDFQhtIN7PWU3UpjZloIIEdXHm5sHmnLUGbIqEBR/gDAAAbAWO393dLXr6TtIOn0EUW2pDkIkfDglBX6B+L90T2yWS24fDIZizwCRx+WsWMqosEAMEYjo024lRuKxcvmCWSqW82+Mp1NfVn0okml5uaGh8S7NKO3w+0bN//37D2cBckuE8ow5yzQME3A1oE5qb57W53eITmUz63mIxd2MkEp0XjYYD0WhUIw/8iRQ52bE3AQYS/5vvKA805HSXy+PaExhih5gUEBNkYRPe79G9IpfLA4RY/f2n0ge6uruNYvH1pkTjDwMB/YM/+IM/yDvgYEaNmRl7MgAKK1as0IKtrdFiprjANPOfL+byG2Ph8MLGxkRdLFbv9/v98FKwIwxIkzQpRGZaJXvhl+6DWDywkGCniZ0zQAF2raCz0Yc5TbeaMq9unHMBhEvRkByuw/eQ3gKF2cAUmBbt9o8fP06swm9+8yLF7sEq3H777eKTGzeKWF19pRibPbaZ9q8OBzAQwQLOHii0ACvVWj8KIOCYLHrEXABQAGtn6JxwnmhrKsCGa/D7ib3B+eIHYlJmdPgc2Q9CDSPwHCRBgcywwHOqWyOHSxggqIynBAhEZBIrJFNoobFAZoluQcVK3k6mNarr7uG6+nhXJBp6qaO180NNy78nhMjWyrC6FPfaOcbH3wIOQFDaHCKwYrHYFAhEHxxPjj/g8eir6qLRWDQa9Xh1t4bSu4zQp6JH5RtknBEP/D558iTVfscEC/dGdjaTOxgTDnilw0eOpo73HH83Ho//S9Dn+UVTU9OYIwr6+AfE1fSN3/veb0LL1s5ZPzxw8pPZTHaVz+9f2pBomFMfrQuFQgHd6/G6ZAVJWT2S+qtl2iXSZZEf9HP0UyyMELbhgV0rig+xYVC1NkBtw8sNEPBdDBLKvymLQ7Ib2LWDMRgYOCNefe118dsXXxRd3V3ENkDQeMtNN6OmCV2Tuuvna5JhQSlCxKKONsAPMwi8S2cdUfm3IkSQIUZZpA3sg3RmPCZOnDhB4ItrvQB4QUfQ0tIsEs3NpCtgt1YwOQwM2J+F5xcVJOF72BKe5iiq3cE217L4E6qDwjQJYmtmDDgkygCBvLTIcVPeTdlHUPDKdqPU3BY2NYZRyrlcrsFQMHCirr6uq6GpeU/A63vT53Md379//5jDKszuGcUBCDXu3zvvdEcLhaFVxVLxgXQqvTEYDC2K10frdN1F4i8MFCiraXKyKVpFeSBFUaZM00LooLurWxw+cljMmzdPLFu6THi8HprVkhMpcfTwcaPvVH+fR/ft6pw790f5zNjzX/7ylydmd7dyzn6mtMAWy3Jt2L49rCeTzbmiucIwjc9pmrassbGxIxGPt3q9Xt3v9WpeL4oimWUmgWPivCuWYQmDduVkMpZOE0jgH7WqqWrcpC5eapt8lLhxOu2nZgbwTp4XRc5WKIMXogRcROPDRfWVV14Vr736qkinUmLJosXizjvvpAJuWJD5wQs7ZwFgkUT4AgwCAwQ1jMhtwJ/DcdAWYC5QvRKgAJsFDlFg0cemAVkHcIhE5gGYgnA4JDw+P5lFqXqCaqaAvoeyEKS2hEMJ/P28+LPegZgEo0hVNAFWKuWiJWtQDeykUEM+WwZfbNBgZ4XYDIVpWVYRmkqX7hmORKJ90fr6N1pam7dlJkbfjMVi+Ycffth0mNDp9OqZ9R4HIExxP0DXrlmzJppIdKzPZFL3CFHa6PHpCwK+QD388TVNQ3k9G9VjmEiqFilP5Qepgk0xPDwiRkaHaQII+IPmRCpZPHPmzMTJk/1Zze0+lYg3/drtd/0wEYn03H///ZmZ1UWcs7laWmDLli36gtWr4w2h6Jp0NrfR53HfW18fWxQNh8KRcEQPBv20a4T2hhf5aj8BLFJ4Dsp6LHxcsAihByxuXKiIFymVXVBj45eiTRWLIkn1T0Ig1caE8h0cGsSCiuJQL77woniFCkWdpOJQCD9cd9115NSIHT3XRuGQCgACRIP4PLMK0BBxTQkIDBGaAQg4fPiwOHr0iOjr6ydghe8GKACowlzQ1tZWzjwAMGHHVcoecbtoLlE1AZW2RMhAumgykGNwoIIBFSjw86Zp0OYGrAWABQM1CRAmJ2hWaxtk857V0vY5UlaFZZSgbdQMt8czomn64WAo9GZzS+uhRGOsx+uqPxSPi9ObNm1y6sNcigHwMRzDAQgf0cjQJwSDwagQ+lpLE5/NZjI3uN16WygUbPL7A/5gMOhlfwPKzqJiOFK4BGoPcdFisWClUuniwJkzxtjoSLJUKnb7/P4PYrFEry/s39sQDn/4+uuvn3LouI+hxztfQZqbuvb2hmIyfbMpxIOWUbo+EgrNbW5pCUfrwrSOs3GRtHOW9R54MVJNfdh4CYABr7O6Hosr7zq5yXnBUcNztReh6d0kFSDwJxR4Tutd2ZuA1j4J6Dn7gjREpZIYGR4WO9/dJX77wgtiz549lCmA7AewChA18rUQqLAZAAAoDklgEwA9AcKIKGON9yAMoYICtAu0BG3t7QQKABKQecACST4WhQ9s4Sc5Idj6AbXN+D6oAEFlC2ipN8EuyNACOy/KYl0QXMvS89Xpq5Pui3AJizJcqpYIpU0n4bFyNpf8jCVjM4WSJcY1zTXq9/nG44nGA42JxAttHW0HSrnkoc9+9rNZh1WYXl+/Uu9yAMI0W94WgNWHY41LSkVj1UQyuTadmljs8Qbma5oW0t0ugQIwKMls2W52Rqkg0qmclc1lJgzDOOHzege9Xm93KBR4JZsV+1paQvl8Pu8YkEzzHjhvu7QtAKDg89U3ByPBjcV8bnOxZGwI+PTW1vaWaKw+hpxAN8ffpe+HScp6PMqLo20cBCYBIjtyFy2Zoj5WX7ZyZi1DdVz/YsABzkH6RVb2tecCCdKdVFZWpJoPnGpsV7XEQo1Kjaj58NsXXhQ7391JCzwqSd5yyy1i1apVFAoAgwDmBMwCfvecOEHPIXyAGg4ADh7dQ6mIAAHIOIDGgYyLIhHSOrBFstouOB/+mwCAbetcHTpgsaTKGPC1lBkDAAsABNsWuhJ6KFGYCCCBX1MZnnLYh9oVrpruGh3Orsw56RWZnl2dLkkMS6lkeTwkbjSLpWLK7fL01dfHjsYaGvd1tnfsNT1i17zWhp7169c7zOmlHd6X5GgOQDjPZkS9gx/96Ee6Lx6PGZlMu+4KrjBMc04+l9PKqUtCCMM0ha67RCAQQmD36MRE6nAsFh2fmDDPHD68I+OUYT7Phnfeftla4Omnn/bMnbs8oevaGssq3JrNpdd4fJ6V8VhDS319fQCLZzAYpLoPXByK1PYCDo0w9pE7XfR/LJBsWQydAhZEiO0i2C0rQruLvRhmD9TQOU9mk1gEWj0r0MFO3yh/PRZSAAYOGVA2RL4gzgwMiLfeekv86le/olABFnj4KQAkQE+AVMTTA6dJj4H3I8SAMEF7R7tobWkllgDvRSYCgwJmFuXm2q6qaRtWceooMwGGXYhLBQK8AFcYAbsuhH01DBD4dT5W5XdJChPtUuE1GQA+luYSJQsAQbZqJbAghY/q31ILKdmZsmYF4MQ2c6K+UTIoBKHr3lLRsIow8/SFgmcaEw3HmpuaXm1oir/0uc/c9YHDKFzsyLi0n3cAwkW25/PPd/sikWwQFKt84Hed/Gcd/l8nOjoi2fnz58utl/NwWmCGtgDA744dO2Ij6XRCFIv35AuFOzwe73UNDQ3xurpoOBQKenVdpyo+ml1YiNPnyGbcDq1hUsnmUEJZGvJk0hkRjoRFKITaACGBegCSgbA9BOziRdJLRFoM80Kj7nCrm006Dp5dBPEsgGCbnZKTIuhvpUQ2m5mZJbKPIj8IVInE+YEtOTNwRuzYvl28/vrrYv/+A1QMiV0IAQqgvWiGyLC9g0ABdBjRujrh9/nKTAGFWmw9Aa6HsxHYApp283YWCfxW0AbYYDB7UEt0qIIAwkDkbDT5M4yMmBlAiEEaZancCy//EuRVHm5RQphBaV/b4s0GCOz8Yhegog/ahlnSO5tqalC6pA0USL+CdrbouIhCmJam5QMB34Av4N8XDkdfa2luOh6Lx/ri0UD3bbfdNuTUgbiyk4UDEK5s+zvf7rTAjGwB2JEHAnWLDZd5fT5buLFoZNfW1dcvaW1tbggGg7RXhI0zUgil+ZIhrXvJhtwt3JTqa5FiHs+PjSep7gMWsXA4Ihobm0QwGCYHUcr4EXJHbVklsjqcrk6hVoihVoN+ZLqlsjaCUaBFHSZmbrcoFPJUiwVpiW+88YbY8e4OEvm1NLeIpkSjSMQTFE7h6q0sWFQ1GLhuhB+lvoCvr+KwCp2H1Ajg9+QfFSCo7EElTCDTUSkLhezfpVOmChCqNQoSVJxtcTVJ66CsDpdsoaBqYJXQhZ1FCROmnNvthlZhKBqtG21qSrzvDUaeC3oT2x95ZFNqRg6Sa+CkLtl9vwbayrlEpwWuuRbYum+ft2V4uGEkm52vm+aXTE3bFAoFmpoSCX+srj7s9Xpd2CFybRLUECkZcpcKW3HWKhhGifLvR0akTgFrUyQSFdGotHN2uzxyD0rEQvVu1q4dcYGtr7IRH3kIu7YKL+5qVVYWB8K7ACJEaA9y6SztlFXHRd52V4syUQ1Jfa56118rI0FlCmqBB3k9kjORgIELSlVYgurMhqnAQfXzl6WyZxVA4PthgyCQCiVNc5m6xzPm8fmP+oLh1xKN8fejdfUfLJ7T0rdx40YnBfwjO/Gle4MDEC5dWzpHclrgqm0BhB/e2LlzXjGfvzmdTq+yTHOuT9dvbm5qao/F417Q8tKtWaYSou4D72ZB42MBZbOdfB5GPSnalUPciBg9CkQBKJALog0QpssifFSjn68YkkIQduydgYLqQcCloMEijA6PUqGrocEhkUrLVEbWPHCxKwqZ8H6+hoESa5c4XDMVg6CChckhBrS5DDHIH8km1GIQuE0/ij0gsHBZVgekep2dKllmQ1ywniemBTXJDFO4km631u/1+3sSicY3m1vaXu5saTuxadONA7KqhvO4nC1wWbrA5Txh59hOCzgtcOVaYN++fd60EPH02FhLcmj0/pJlbQqHQ0sbGuKRhoY4BI1ut9utwaFRUuaSNjeMSk0fmTKJAlGyLgD0O5lMjoR+AAn4QRYAp1aqzoEXcuUXAhCwyJdtl229Bf89iQUwhTCKpXL5bLAL0F6wf4JqnqQuyirlz8BA/V2tO1D1CJzCWGEGbHXAFACBxY38+4oyCDV8FCrsh9SeVISOSI5wocw3kiEKLrd+xh8IdHl038F4rGGn8Lpfb5zbPNIeCBQ2bdrkaLwuZHB8xGccgHAZGtU5pNMCV3sLYHt3+PBh7+nh8RtT42OfHE9NrAkH/CsSTc2d0Ug4HAyF9EDAdmcsGUIjYVylAqTcAeMZWVYZTALEf2AVICYESEDmAH6rsfwLadfzCjHQSZ4d4uAFHS+zsyI9R6K7StonCzMRggDwYaCgfl5d/JktKIMDo0SajHJqIs5FVKpNqsCCAYJdm1KxTa5mE+T1VAOUWm056T2XZXU4mz1gwDI5/AKwIM+QMiSQpqqBWtIKxUIxq7ncp4PB6PutbR17Ojrb+yJBfbff7+5ygMKFjJCpP3NZusClPUXnaE4LOC0wk1tg9+7ToXT6ZOeZ8cHlmiU+reu+DdFoeE48HosEgwFYhGg6qGMUMQNUsAV0qEPCDzYwSqfhQih1CliIIf7jcsbMJLDRETMM6gLDC5zKGpw3QJASe5lNYZ+gXcDdrk8gFy94KxAdjmsqSWpflnPXCPCMJ8fF6MgIiTOR1VHI5cteAWWQYFplQACQwOGGineB9DOYrEWwy3XbPgdSg8ChBcm6c4hBDSlMByRcfoAgQeHkh10gqhx+4b8JrdlFp6Dz0KXPjCmskmmZpZKZ1lz6WCgQSEfq604EQ8EXG1ta9jU2NI5khX405s6MO66NFzdzOADh4trP+bTTAk4L2C0AM7Gbb/5UvebLfyo5OrG55NI+0RCPdzY3xoPRcNDl8/pITScXUbAJdgEg+zmpXUAqHsIPBQIJSJPEoonCUJRCGI2WSzwzswAaX92VT5WxMN1QQ634/FQ32SWQz1ErsVKCDLAjYBXgODk4cIa0FwAP7HvAxkcMDPB+NZygGiXJNjs7y0ECBKk7KAMCAR2FvQO32YOZEWI4n+ECgCaZDxMpkxq3te3WKNM76X8lyyy6dddQKBDqizc2jXXOSDybDwAAIABJREFUmdcVioR/XkwVPnjoobuGz+dbnfdWWsABCE5vcFrAaYFL2gIIP7zw2msduUx+XcEofkYrWSsbG+rbG+INTeFwKOD1+txgi1EWnZkDWVkQls624yHl61tUCp2NlwAaYNYE7wEwC36/n84biyvtS22BJBv2VC/0HydAqGYyiB0oFAnwIPwA8AP9Bde64MUfIYnqbIZKaiOnMlZAgmQFWIMgnSHkd1co+ulqEKrb6/KIFM+jqynXgWusKBJJDWsDM8nYSHdqzSoZRsnSXCVvwJ8KhcJH6+tjb3t9wVfnz+88PGzmjj52zz3p8ziDa/6tDkC45ruA0wBOC1yeFgBQ+NWvfhVpmrPghoGTJ1fnMrk7o9Hwqqam5pZIJOzz+z0uTiOEIB0AAEABGgQGDswSYCGFn4LUKciy62AVYE6EWgkqUFDLNjNwOJ8rvFgGgc+Z2QH8TdeJHbANaAAQUPQJds0ADbh2DpmwI6Wa1aBqD5hpYdZE1j7AFbL/gfx3OYZvMwgfpUGYaQChArLoLtItlKEf+SfApORJLKGZFpw0KHGjRNcrhOXSjGKxNBEMh08mGhPHW1ratvlD+o9CLlfqgQceGHdcGz96VDgA4aPbyHmH0wJOC1xECwAo7Nq1S8+WSitGBsduyeeym2Ox+jWNjYnmcCgc9Hh0NxYz1DLxeHRKkeRyytVfiwUCO28sqiiQhPch7CDLJIfLvguq4O1cboy1LgtmT9N9uGuEGHgxVzUTdDwUcrPrWOA9AAUIN5w+fZo8FVjUyGEGFSDw4nh2iKHidaimOdrGlpVFdcaIFKfbspUS0xLuVB7kBKkUtKIquqipQZmdkmnQ3DoBzWIJL7hKlksruFzuY6FA5N1ovO5UJBT+MBIJ7yykhvtQjvqRRx6Bs5TzqGoBByA4XcJpAacFPrYWQMnpdevWNQTDsYdHxkbvdrvdq5uaGlva29q9/oDfJayS8PukaZJkFIyyILCiWZA7RLANIyOjRNljMU0kGkVjY4IsnSGIlN4AlZqPvHBXhxp4x1+J309ekKZqHEyetTQIRHprWllnQBdgF4mi72ARpL1oc/okruPIkSNU3yGVSpODI66LFkgIFW39Af8b6Y7IeGANggQRMsSg2C3YgsWznRNrMSWTWIYZsjrQfbPPRfpTACBIm20bAQmXfZvhyCk5BlAMbmIZDISrKPxEEC0LbGa53aPxaP0H8xfMf7OlufWtidH+Q6lUKvXEE08UP7bBMAu+aIZ0gVnQUs4pOi3gtMAla4Gnd+70LMlbS/O51MZ8wbhbE2J1XX2sqbEh5g+HfB7UfCDrYprYZQ0BqlNgL/hS5AcNg06hh4lkirIFwC4g5BCLoZxyhLwVsJPE9lIq+ys7Uw5FYFfOizReJ8bhXFdq+yLQe0kgOMU0atckUA+lvpMBC38nfoM9SI4nxamTfaK3p0cMj4yIkmHIKowlmc3A7AoDHVDqXNdBYpFKSuNkEMAGSryu2lepFlzgNdeuinHJbvglONDk07RDDWWQYN9XAgakSijfw3JYQqoVbH7IDWFj2iVcQ/9/e+cWG8d15vlTXZfurr5f2S1Koi52YsWOZdlyfIltWbERxZlxkBlvOAg2Gy0GGGTyMg/7tI/KArsAgcUC+7TrAIs8rwIkyDqw1xhklKuTTZSxQo8deSTbsiVRlHjpZt+rqqtq8T+nT7PUosSW3JTI5tcCwUs3q+v8Tonfv76rGU/MJ5OpP2dy2dl8rnC6Ub0yu2/fvjZVQNz0yh7BbtIhiAARIALrEMDI6WRpX9FQvG8sVhaftlrN/alUYmpq165MKp1WDUPn5lo3MH2acUPpug4fZ8zvJjHCuVfuhw6NnU6bx/Xhro9GTVYu7eBNl+BRUDWRFNkfltQbkITjBsdXr5fMGMwxWKsr4FpL5kaqNyQqKAh4sl1PtEihoqkqc+0usy2Lz3947733uJcEHhUIBJmEKSshPNxNB9bCwxB8lsT1XgMhFlZLS/viYYsIhFtrtptLuqBIEuEm0e0TD1XVed8pp9tth/RwLZGIn9u1Z98v77/vwOmGs/yb2V//unLixIlVaNvsfzR5ELbZhtNyicAmJKC8/vrrRqpY3FlZrO62u51nQ0w9asbMz2ZSqWw6kzbQjlk2/0VVIU/44+JAzh4Q/QLwhx932HDPI0+hUW+wkKpxr0IqleRigYsB5LwHZkWsJsSt/yfxTgQC91z0zm8wPwLf3yBaemOosSYLUyUXFtili5fYpcuXeGtnrA82DsIJoZZg3kRw9oL0mPR8BtdF87eDQAju6+p6EYIRlRDQVVxbhRTkKvie71shRa3o4ciVVDr7Tj6T+EkinT63s7hr/tVX/2v1hz/84bbKVVj/f8Mm/GtCp0QEiMD4Ejh58mR0YufeB5qN2t9UlivPpFOpfaUdE8lEIhWJRMIqrLuqaswwNB5xhlteVgGIngiiEyEMAsoGkaeAqgG0d5b9FGQrZ+k9kK8frIC4mTeg32thjbkCt9yZAfd/MIGyP7sBDZd6o7BlwqIYhuXxdVy6dIl9+OGHvApCdmqUHgR5PKx9UCgEKxuuEw5j4EG4Xgj15FDPSxAUZPwZ7s0RbZ0hHjFEROar4Hs4GNrtju8prKb47KweNi4V84VLu3buONVp1v5J0zRru+QqkEAY37+ztDIisGUJoOnS5774xcSEmTpYq9YOd6z2QdM0P59KpfakM2k0c9YwlllTRetjURYpqh+CRhIA4GXA3IeVlTovk4TRhUcCHRrT6XS/n4J0/QeTFtcKN9ypB4Fn2w8Ma5IbhGMGZz1AICCvgLcY7hl7GR7B+aOCAwLho48+4mEI5GHIfgly/WtNcUT/iRsN5o1pFCLnb/hqjs1yofUTTQOVKIPrFQNDPV4OKTwJkrHwKqHwAYydruu7rmtbtuUoaqitq/on8Xji7R2Tk+/cv3fvW6rqzU5PT68OGdksEEZ4HiQQRgiTDkUEiMDoCbz++uvhBmPJZCT+Bce2/9qy7CcymdR9uyYn9UTMDMGQqarCmyiJJD4RqxeGXJYWouxN43/40XhJzkpAEiOaLqFMEmGI4B29jPHLSZQy9h+M998sSXEtISCrGwYJScEh74JXvRPcCy7ubnvGWhpAJG8irIA8havzV7lIeP/99/m64G3Ah+zCKI8LIQURJcWIPMfgevqCZYsKhKAnIRheCIomiAM08wyBR38KJqpmRK8NByEbeKB4f4nerA1VZYauu6l0tlUulSrpbO6Ximf9x+9+97uXR3/Fb54jkkDYPHtBZ0IEiMAtCJw+fVq/evVqLpJIv9xutf7a7br742a0kMvl4qlUSjUMTVE1lWkayttkLgJu8HB3rvW6NIoMfwgFEX5Y5oIBBgH9FNClEeEHiA08gl0a1zy1W4QYBkUCjPqwj5t5Ltb8/d4dLyZJIvxw4cIF3lcB68JxIIJkbgaE1FrVEzeIli0mENZakxRaq0OtZLdNj/moDOkNxXIc2XdDEdUivYRPXAN8wmgyzgqFCZbJZFk8lvANI9ytrqy8bUZT/+X48W/8ZNg93YqvG/6K3Yqro3MmAkRg7Ai89tprZmZi115DV45cu3LtsVar8Vgqmdy1Y0fZTKVShmHoPIMRQgF3zY5jM8tCK2fhxpeeAICBMcBdI4wr4vvBxkupVJofQzYnEnfgvYR20cCvlzd58z+jQUPPDdaId4OHH1Dy2ctZwHtAGFy+fJmdPfs+u3Dho37nSTShknMwpEENVm8ET22rhRiCAkGuQwqEfjlor0QUVTDwvFi2za8Jlc/SCPEyWoQYIArQdKtQKLBcLssS8RgPQ0FkuqLS1l1crM4aRmTm7//++P8e8ZZuqsON+nrdVIujkyECRGBsCSinT5+O1ut1s9tVv+j67lNe1zmg6cbn8vksWjmb0WgkpOnwKMAwhniHRtwtSsMxaFSCHgW453EHiTwFeBbC4XA/RyAY575lH4ReT4W+wRr4fmQ700u6G5xyicRNlHyeO3eOJzVCBDmOxUUTmOCxlmHlP99iHgSc82CugczdkLMt4DWSsy/gPeBrd3uiQNN5AitGjMOLBIEQjUSYporWS0IWIl9BRe8L9+q1pdlkKjVz/Pg3SSCM7EKmAxEBIkAENoDAqVNvp1utpaJmaC902u0XVVV9JJ/PTORyuahpRkKIN0uPAgyJnHcAYwlDIXIWxLAoPLdSrbIKZiRYNtN0jRsMGA7kKeB3ZHz/VgJhMMSApMqNeMDIBb0bUijIqgicK7wjH37wAfuXd9/hHgU0lJJGtV/+Fzi5rSgQpOAJTsCU3TjltEyxaHRXRJWLy+KxOCuXd7CJiSJLp1MsGo1wllBIKB9lrsPQB1wJhZiP2Q9omuCH3MrSymwqlZr5FgmEjbik6ZhEgAgQgdETOH36tFmtVve4buiZrut+mTHlkWQqPpHJpCPJRFyNmia8yDz7D+52YUzwISdCCiPe7XpcKGBUMyoGEIaAcYjHYiydyTAzavLGSzyBEEaDJ7UxBhEghAGfMHjdXTrv3XAbeQhD0+kXG6C5g2y8JJo/yfg7zgtfNxp1dnnuMm/pPDc3xxtKdR0kLkIc8QlIgZHR4sDBqo21xMTQ53mbLwwmGcpfDVaYyJ/JBETZZRKiAB/ScyBfBx4IH0QiURZPJFgum2OZbKafc8ILGnhiIkZAiexQz+2Knoy8a6ccM624iwvLs0YkPPN3f/e35EG4zX2llxMBIkAE7jUB5Re/e/s+peu/UKmuvOB51r5MMr5jojSRiUajhm5oSjisiw6LaojZdocnqMGmuy6qH0RYQib3Yez00uIyb76EB9zRKJE0zQhDYqTMbZDVE9IzEXR7K/4GCYTbJI1zhQHFzIfz5z9g58+f4+EH2VMBh4N46ouGQCiiX2Fxm+/5aV++ZjvsXvmnEHnoedHpCwOZK4L9Q6gIZa2oVikWi1wQ4Hs5LlysV+z14APiT4gSPANPAhdQ7tLS0qxhREkgfNqNpd8nAkSACNwrAqdPz5l1+8oO1u0+VFtZPsgYOxKPmZ8pFPK5eCKmI6ER1Q8y/ACj6DgwOKvxeWk4YITQwRAu+kqlypMfYWSQp4AySVlmKac4cpPS8xjwFskM1RX3Pu1LGlsYRYgCeBGQ1AivAqog4DEBBwinwVLIjTr/YKnnWtdK0HMgPQXw8Mivpaek7zFRVS4EIOQQGkJuAcJD8CAE9yXopVhTIAyIBqzf8zx3eXl5Nh6Nzxz/W0pSvFf/t+l9iQARIAIjI4Dwg2V5hzFF0u12n4yZ5uSOyXIpEg3Ho9GwpqqaIoyiCDNIF7VM5INxEAl+an/k9NLSMv8aIgHGCEYIX8uHHNnMf1dBqeW9EwjBygWxNiECZEknqh8gEDD74ZNPPmGNRo2XgwbnVwSN68g25iYHkgZbhkpk6EAmGw6KBuwNkkkhDCAIUIWAPYEokKWewWZSwWRVOePiBg/CGg2XIBAWFxdnM5n8zLe+RUmKG30d0PGJABEgAneFgO/7yh//+GGyXp/fa9v2wWa78XgikXgqk85OZTKplBkzVVVVFLjYhScAd4wyT0G4m/Gc+BnyFDx+B45+ChAKMLZwZSP8ADe2TB7kxkw0UL4r67zVm8hyz2A1BqoaYDBhKLEOrOnDD8/3my/BKG9keEHmEeC8B+/q8d7IAYG3Q3oI5Bhs8AZjeHIQPsAHqk5EWaLIu5CiLPh5sHpjPQ9GkGe32+UhhmyqQEmK9/xqphMgAkSACGwAAYiFN998M9Oy3Wcdy30pGg0/ni8U9uZz6bhphjXDCHOPgjQmvNit11kPJZPCqEBEIG/B5QmNqBZACAIGV4ydznCDxcMPXfz+BizkNg7Zc5H3PSTSOyC9JbKxEgQQHkhqRInkmTNn2NWr1/rC6DbecqiXroZxxAwNWaIIrwGEQVAQSLGCyhIIAogxMMaH7CAZFBlSVGBtwVyDoGfoZjkI0mMSDD9AIMCDkE7nZo4f/xYlKQ61w/QiIkAEiMAWJOD7fuhXv/rVRMdRnnRs5wXfd5+Kx82p0sREMpmM66GQiiT2XodG3GWj8564o8ZzyE2Qd6AwXrgDRxwfQgHfw+WNHIWYGWeRcKR/py7vmmXVA+L+0iBtNMbgHbu8a5dGcDCHAgYW65mfv8I++ugCb74EIdQv9eQhGa8/MluKEPk52IwpeFcfFALBfAJ8HXwO54dzQPgA4Rs5QwPiCyJMehEGW0YP5hQEE0Zvx2MwuBcQCAsLi7P5fJFCDBt9odLxiQARIAKbgQA8Cr/97XsZ220cWVle+ortOI9PlIq7i4VCLB6P67quYk60ohuofoAwwNwHEWoIGlkReugy23FYs9Hg7nqIhmg4ytLpLO/OBxd4sAVw0Ih+GuN1pxwH76avFy8i2RLni7t5NF86f/48/0D1g/A+OPytgwOnJBMpeiQneSzZtAhCA54CiCkZ/pDrAGfkDyCXoFQq8dwC2QJZvpfsjLlWkuFaPIZ93c1YSg9CsVie+eY3p8mDcKcXHf0eESACRGCrEcAkya985ZVCu11/qlarPu/57oFYLLFvYiJXSqXSZtSM8rEKItNfVCbIdsz9cARa+PIcBsaNKhIA67UGq63U+M/SaQyIEnMfrjegq/0T7jY3KUyCyXv9aZK9SZTBvIVOp80+vvAxO/v+WTY3d6nf0jkomOSgK3lMyQniAFwgDKQnQk7lxGtlF0uIAlmaKAWHPFbwPCXDYZiNQiAgB6FUmpyZnn6FBMIw0Ok1RIAIEIFxIgChcOTIkWQ0mnno2uLVh7u2/WI8Eft8qTRRymQyUU3TQj7zeImkbOcsOzQG3ezya9fxeJ4CeingAz9H6AF3x4in4xjBePm9Ytk3vJ5IqOx7N9ByeKBrIy+VtDvsypVL7OzZs3yqJMIPMPzBZEhZeSDLEmV1R7DkMjgDAZ4C3u64l+gphZcMUQSTD+XX8jzX4/ZpBYLjOLzMcXJy98wrr3ydBMJ6wOl5IkAEiMC4EkDo4Y033jAURSnrunms3W4eC6naQ4lkslAsZGKJZEJVVTUEAyXvgnF3LO94pUEKoYqBt+sVrnqZ0IjvEUtHkh2Moiw7vNs8r8/2R70F5le4143ADsbxRTmoz1yvy9BkEB4VrAkiQZZKip4KopU1RIMMXUgmCLXIGQgQBWAgQwfSAxMcuy29HMEqhODwrWGYkUAYhpJ4zb2vuRn+XOmVRIAIEIF7SuDVV1/VH330yX21ZuO5Trv9mML8BxLJ+H3ZbCYXj8fD4UiYexRQCokwBIwb7yWANsu8fa8oJRR/en3WsSwedqhWcdft8NwE3uAnneZfBxMG5R9sWQjBj4A6/RFNiby+DLA3sUlm/vfyLPoGXu4CTkZBDoYo/5Reg3q9wX7zm1/ziZLo2IgcDIQkVFVjhqGzZFJ0okSvApFXoPdbVItDi8RPvmYewhHDlcT7i06PUoDdiSn7NCLBtm23UqnM7p7cO/P1V14mD8I9/R9Jb04EiAAR2FwElHfffVe/XLHyTmtxR0jR/7LbtZ+LRqOfz+Vy2Ww2o4TDmoKySBg+GLOu4zC7bbOQAvEgchOC4QSEJhoNhB9WeBgCd8WJZJIbUXgVYBghLKRgCN5Ji9ESw93rDfs6aZgHsQfzFIKVBtJzIr0FOFc0XYLXAImMmCiJ7+EhKJfLLBaPsbARvuG8ZXijP0/SF+WW6z2ElhiOwXrHuvF5OdtbPGNZFg8xTE3tm/n610kg3D5P+g0iQASIwPYgoLz22mtRM5k97HTdf9duNZ40wnphslxK5vI5Hc0ZNQ2tnHWmMSEUMHJa3PgLg9aPw6sqc2ybJzQuLC6zRr3OvQMQCWgXDM9CsF6/X2lwjwVCUDTIu3p4TTAMCp9ljwU+GKorhmIFKziCYYdgCAOlk4oyXOOIjRUI11/IUiDs23f/zMsvf5U8CNvj/zmtkggQASJwZwROnTqlGYYx6Ycijzld6/FarXbQ871dpYni5I4dpaRhGCFVURRMVZRTAT3f61c/8ES73gRIGDuUT7Zabe5NgGGV/RSua7zUyw/gamPIx6g8CPLtxFuvTn2UiYLIsUC7ZhlygDBAYmYwN0O+VjZBkuJCHFsMnB52QvbdFAidTod7EA4ceGjm2LEXSSAMee3Ry4gAESAC25rAyZMn0Ws5WjDNvZ1m50DHtp5mTHm6UMjvLhXyKdOMauGwwV0H/TtvtG520Tuh10sApZNM5WOkYTzb7TZvVASxgA9UO8CjwFsKh8P9KoNhwI9CIOB91jqOnGeA5yAE5ufneYhBvh5rgHdE/mxwxkOwhHIzC4R2u81bLT/44MMkEIa56Og1RIAIEAEisEoAlQ/f+9731EOHnsnZnnNA10PfcB3rqXwuN1UuT6RisZhq8HHTq6OikYgnygFdnsyIhD75kJMkZZkkPsMQo6sgYvp6b5bCenswKoEQFAkyRAAvgVwPRA0mRMq2yBA1mFcBb4isOrg+KXLVCxH0IGzGEAMEApIUH3ro4MyLLx4lD8J6Fx09TwSIABEgAmsTgFj44Rtv5NNh85lOu32Ued7TyWRqT6k8kUgkEpqmqSFNhxjwmRJS+MwG2xKtnKUhlkYVoQjcgUuhgDtyTVX7cx+Q0Ih+AnImwaD7PtgrYL2OjcOIiesrDVbbLeP8kJTYL/EMhXgJJM432OhoLWKrx4RoEF0q13vcjRCDPC/pQTh48FESCOttDD1PBIgAESAC6xM4efKkms1m84quH3Qs76/areahcDRSnpws5zOZbCQc1kPwGsDgqyGVexIsq8PDDNIdH0zog1DAnXq1UuFlhLiDx7wClA0iBDE4gEj+bvDu/1ZnfScCQU6vlAJBvheOBYEgPR/Bn69dcihyEDaDQAgmk+JcIRCQg/Doo4dnjh49Qh6E9S99egURIAJEgAgMQ0B0aPxq0fG7D9ZWKg/5zH86nkg8Uizmy6lkwoxEImpY13nYAAZXdh+ULYwHZz/AzwCxgCRAuPGlUEBCIz7gUZDdBoNGPzj/Ya3zvpsCYW2RsDmqGNYSCLVabfaRRx6bOXLkGRIIw1z09BoiQASIABEYnsCJE36oXP6jWi43d+ph7znLtl8OqcrDxUJxRz6XiUbCRkjXDT5FEiED2QtBtinudxPsVTHA+4BuhhimdOXKFdbpdHirYngTIBTgXQjG/9drFkQCQezloEBAFUO9Xp89dOjwzDPPPEUCYfhLnl5JBIgAESACt0vg1KmPIuFwfU/Lqh1ptVpHwrp+KJmM5dPpTDyRSBjhsBEabEYkBx/J9kBIckT7Y4gAeBEwbnphYYGHHyAwYjGTD4lCPwWIhfUed1Mg3HgumzfEYFlWt15v/OHgwUP/6dlnn/6/63Hcys9vVOuprcyEzp0IEAEicE8I+L6vvvXW2zsZc59brlaesGz74XQqdf9EaSKbTMR1NF1SNcx8CPE8BTwcq8NFASod4EEQTYgYQ3MmfI02zvAqdDoWw/gE04yxXDbHyyTxGtGAUGE+/z1pEtbuQbBWYqP8Gd5L5iAgGRFVDHjIUAbCH+12i7eglg/ZOll8H2wije9FC+dhHrefpBg0fTd/D742/EMbaQ9sfd+yrUat1vrpxETuP0xPT88Pc35b9TUkELbqztF5EwEiMLYE0HipXC4XL1y4trPVaX3F991nzYT5QKFQyBcLed0w9JCKodMKY5AJwnjBwK8aOwgG+UBYAiGHerPB2zl32haLmSZLZ3K8UyNCEcLz4DLXRewfh0abYwgFDJmSMyRWDb48thQIshU03rder/EwR1AgoOUy5jGEQsMZ/eDx16u4uD2BwJtTB64d6a248XJCI0eZ8yEqQzy/UWsu1JuN/1WenJiZnp5eGduLcAObV48zM1obESACROCuEUDzpXJ536Fqo/qldqv1YjhiTE3t2pXPF/Mxw9A1DbfkfIARpiuiC6PTb8IUTGjE13rY4EIBxvratQVmdWwuDiAScrkCDz/gwSsnlNWBSVIkrJW3MCgQIDAgEObnIRCUfjUFPAidTmvo7oiDAgHf3yzssVECAcILnhohvkR/q+rKytV6rf4/du/Z+d+mp6cbd+1CuAdvRB6EewCd3pIIEAEicLsEzp49m/h4buEz7UbjsOM6DyZisScKxdLeVDKejoYjmm7oigg9KNwx77qYgyDvjn3+s2CZpGXZfJLkMi+TbDNN1bhQQEJjJBJlOp9KGeJiQ4qAwdLJ4BrkTAmICzREunr1at/7gOcgEGy7M/R8hbsnELjdX3M74EcBOd4EKgQPgutVKpXLrsf+ezod+5/f/va3m7e7j1vp9SQQttJu0bkSASKw7Qmg8dL3v/99bc/+zx27dvXKV8O68dTkzl17y6ViPGpGVVH1oLKQKkdOd7lXAV0Ng+OjFUXlggHPYZLkwsIS76mgahpLJpIs1xsQZRgGZx4slQw2SJIbIgUCjCkEAhIkuVcDY6+7LhcIjmNtEoEQvIwGzGBAK3i+CLF4nue3Wm13aWGpU282/vkz++7/z//2+N/8ozJsq8ctetWSQNiiG0enTQSIwPYmAKEwO3t+8uLFi492u+6xUMj/QjwR31uaKCRS6ZSu66qiacJAy6FHMN5wx6PiYdUrAKGAXgoOr3xAP4V2u8N8jzFDN3gyIzwLskxSigV8DnZmlAIBQgQCAYmRMjSBn6FR0qcRCCK5cW2TdXshhuB1I8Iy/RyH3thoEU7w/bbV8ZvNpt9otqqO3flY1bRzcTP+j3v2fPYnL798dHHcr0ASCOO+w7Q+IkAExp7Aq6++qj/44JMvLS8v/IVtW4+nMskdOyd3JBOJWBitnJni84ZJCEEIr0GX5xn4PkojFW4gpYHH12j1XK2IMkkMWUIL51KpxIUCPArBxD0ZgsBneCggNCqVZZ7ngO/l8CYIj27XviMPgggB3Nxc3Uwg4L2l50NeBMGOkqoqKj3EHAmdD8jyme+1mh2v1W5ZS8sGQPjAAAALXklEQVTL9ZbVamQz2T/u37/vJ7F04bf1hYsXp6enkcE59g8SCGO/xbRAIkAEtgMBdGicnv73E4uLVx+u1hqHu07n4WQy8UiuUCilUolYNBIOaVpIwV09MvJh0BFecN1uP5kQpYWyTFLx0e65y+/8IRTQ1hkiAyKhUCiwqBnldjtYYQBBIL0F8CCMSiCsFdII7ukwHoRgLoX4XYRghAfBdV2/1ez4lmW1Go3WgmPZc3rEOJcr5M5lMrlLatg4o/v2+y+99JI97mGFIFcSCNvhLwetkQgQgW1FAJUP6XQ6z9TI1ypLlRcUXX14z+6pXD6TTsXipiY9CchV8HjvBJcLA9FsSVQeeF3GjX0ohHbPIq8AXgF8xmsgFGSXRggHeWfe7rR58uMoPQh3KhCuL/sU5ZsyLIK8AvQ1aDZb/srKilNbqc9rmvZuNlP8xa6du894SusPjuO03isUvBNHj0JFbbsHCYRtt+W0YCJABLYLAfRT6Pj6/laz+Yjisyd0NfRMNpO+L51OmblcTtd1JCmIRDzemEgRoQbP9ZjvCWMq3fQwtghLIOQA4498BbxWtnOGWECZJOZC4Pl77UEIigqcZ2+ypY+v2+12t16vNzode15T9ZWwEb6cSGVOmVrkrStL3tmdO5m9XcIIt/q/QAJhu/yloHUSASKwbQkgofFnP/tZNpbI/eXC1atHfN+7v1As7itNFApGOKKqqhIywgZTUdaIf8hQ9BTuQZAdEhEu6M9/QAdHx+FCAA2RMKUxkUjwPAV8RifFu+9BEGED+ZACoRf28DudjtfpdJxarVazbftaNBr7Q6lU/m25XL5UrS6deeedd5ZOnDhhb9uLZI2Fk0Cgq4EIEAEisE0I9JoulVp2c2dzpfGcauhfSiWSD6Sz6Xwul4mglTPKHFC9Z/A+CKuiIJjsJ/MUYIR5zkFVVC3Au4D8hkw6ze/YedhBTpusVJjrIklReCpueCCfIWjiez2ZuVgRTRy4+e/3c/BwHORAyCOhHbLIiUDHQ5FjwFilUnWbzc6S67pzuq59lEgl3w3rxv8zzfA7jLH5QqHgPf/88+52yi0Y9nIngTAsKXodESACRGCMCJw8eTJqmhN7jIj6b6q12vNmNPzA/v17cyiRVJin6CGFJzTKIVEQAviA0Rc5ByHmOF3ejEnVdOYgtLC8zBMaEWYwTdG+GZ0V8XuYCeG5+P3uTQsSgmGBVW+FMPR48J95vpiN0OtRINtAy9/tdj3PthyrUqm2FxeX3ZiZWCxOFH6RSqVONa6t/JqZrH7x4sXmiRMnMOyBHrcgQAKBLg8iQASIwDYlgNDDT3/602gknnm40+kc7dr2ESNi7M5m0sVCNptMp9Oarut9OxEKYSYDGi8JYYBmTGhFbDuY4YDKPxGWQHjBsjo8PIGfQzCgzNH3u2LGw00sz3XJiNwzIHIghDgQsyZE1YQIhfBOhyjR9D2/02l7K9Vap9FozLmu/24sljhfKhWbpml+EI9nT//5z80P/+Efvmpt062+o2WTQLgjbPRLRIAIEIHxIvDmm2/GXDU6paqhp+pLS49FIpEnJicn9xSK+aRhGKoMPyA8wKsgIBa6LnO6wqsgBQK+Xli4xhr1Bq+Q6DpdIRBWqsxHlcQtJjQOVivI8AEfHtUXCiJZstvtIq/A73a7SDhsVirVJcMw3s1k0v/kuu3/MzX12bqiKO6uXbuahw8fdsZrt+7Oakgg3B3O9C5EgAgQgU1PAB6Fn//85+FKpZIMhfTDiqJ/2TCML6Yzqb2ZTDqeSCQ0w9DEHEnF5y2d+ajo3p09hAC+vnbtGk9clJUPNkIMlUpPINwcw6BAEH0KhJkSZYkIV9isXm90G41Gw7atRd9nn8Ri0bPJZPp0KpX656WlpfPf+c53Wpse9hY4QRIIW2CT6BSJABEgAveCwI9+9KNcOl063GjU/6LbtT8Xi8emyuVSKZvNmBg5jZADPAlITMQdPiZFwojPz8/zSgZZIonuiiIHYTgPgpwCiXkRCGVYluWhNLHT6XSq1WrHdb25WMz8fT5fOBMOa78zDGPedd2l6elpqkIY4YVCAmGEMOlQRIAIEIFxI4BeCu22mjEM776VlcpnNU3/ctSMHSoW8zszmUxUN3Q+IMow9F53xi6bm5vjDZVkaaRlWTwHQQgE4XGQj2DrY/xste2z5luWg6ZLnXa7tdh1vPORaORf44nYnKqqs6GQ9wdFUaqRSKRDPQs25qojgbAxXOmoRIAIEIGxIyDEgjfVcawjrm0diybijxTyhR2FfDYai0VDhhFWUGVweW6OLS0tMl3TeYSg027zaY4+ShN7jZmCIgGget4G5BQgt8CtVpBw2FphSuhsOp18KxRSX9+9u3zFMPKNY8eeqlBZ4sZfXiQQNp4xvQMRIAJEYKwI/OAHP4jEcjvKMUN73uu6XzYM7aFUMpXP5jLZeDxuLC0t8xADWjeLMkcb/Qj4cCjerCAgEkSLZ97d0K/X661ms7mkKMq8YUTfjxjRM+ls+veWpf/Lxx//qUaliXf3MiKBcHd507sRASJABMaGwMmTJ9X9+x/cu7x89WCn4x72FO/FZDxxH2N+1PeYboR19FJQWq0WL31EIQLKHGVBQqvV8tHYsFarOY7jNKPR6Jl4PP5L0zR/PzU19fHCwsLl6enp9tgA22ILIYGwxTaMTpcIEAEisNkInD7t663W22nbbn2p3WkfWamufEZRlD2GoWfi8XhCVVWtWl1RlBC8BQ6rC1FQt21r2fP9j1PJ5KVEIvFJMpl8KxaL/a5SqTQor+De7zIJhHu/B3QGRIAIEIGxIIAyyQ8+mNt54cK5nY2G9Xi703rQ89mhSNiYajbb0VptWWm0mi3Hsi6EVOVMJpWeLRQm3t61q7SQSqWWDxw4sDQWIMZkESQQxmQjaRlEgAgQgc1E4E9/+lNsfr4RY6r3hUa98fTS8tLOlZUai5qRS2bUfEtLGL+fiO1vHjt2sLmZzpvOZZUACQS6GogAESACRGBDCfz4xz9OW75R1DzP13Vv/mtf+1qDqhA2FPlIDk4CYSQY6SBEgAgQASJABMaLAAmE8dpPWg0RIAJEgAgQgZEQIIEwEox0ECJABIgAESAC40WABMJ47SethggQASJABIjASAiQQBgJRjoIESACRIAIEIHxIkACYbz2k1ZDBIgAESACRGAkBEggjAQjHYQIEAEiQASIwHgRIIEwXvtJqyECRIAIEAEiMBICJBBGgpEOQgSIABEgAkRgvAiQQBiv/aTVEAEiQASIABEYCQESCCPBSAchAkSACBABIjBeBEggjNd+0mqIABEgAkSACIyEAAmEkWCkgxABIkAEiAARGC8CJBDGaz9pNUSACBABIkAERkKABMJIMNJBiAARIAJEgAiMFwESCOO1n7QaIkAEiAARIAIjIUACYSQY6SBEgAgQASJABMaLAAmE8dpPWg0RIAJEgAgQgZEQIIEwEox0ECJABIgAESAC40WABMJ47SethggQASJABIjASAiQQBgJRjoIESACRIAIEIHxIkACYbz2k1ZDBIgAESACRGAkBEggjAQjHYQIEAEiQASIwHgRIIEwXvtJqyECRIAIEAEiMBICJBBGgpEOQgSIABEgAkRgvAiQQBiv/aTVEAEiQASIABEYCQESCCPBSAchAkSACBABIjBeBEggjNd+0mqIABEgAkSACIyEAAmEkWCkgxABIkAEiAARGC8CJBDGaz9pNUSACBABIkAERkKABMJIMNJBiAARIAJEgAiMFwESCOO1n7QaIkAEiAARIAIjIUACYSQY6SBEgAgQASJABMaLAAmE8dpPWg0RIAJEgAgQgZEQIIEwEox0ECJABIgAESAC40WABMJ47SethggQASJABIjASAj8f4jE9WqsbCM7AAAAAElFTkSuQmCC;" parent="rhbLxkR_ch8scSMav9vm-1" vertex="1">
          <mxGeometry x="167.87" y="160.25" width="520" height="403" as="geometry" />
        </mxCell>
        <mxCell id="rhbLxkR_ch8scSMav9vm-4" value="" style="shape=waypoint;sketch=0;fillStyle=solid;size=6;pointerEvents=1;points=[];fillColor=none;resizable=0;rotatable=0;perimeter=centerPerimeter;snapToPoint=1;strokeWidth=5;strokeColor=#FF0000;" parent="rhbLxkR_ch8scSMav9vm-1" vertex="1">
          <mxGeometry x="490.87" y="363.25" width="40" height="40" as="geometry" />
        </mxCell>
        <mxCell id="rhbLxkR_ch8scSMav9vm-11" value="" style="shape=crossbar;whiteSpace=wrap;html=1;rounded=1;direction=south;strokeColor=#00CC00;strokeWidth=3;rotation=-45;" parent="rhbLxkR_ch8scSMav9vm-1" vertex="1">
          <mxGeometry x="490.89" y="140" width="20" height="190" as="geometry" />
        </mxCell>
        <mxCell id="rhbLxkR_ch8scSMav9vm-17" value="&lt;font color=&quot;#00cc00&quot; style=&quot;font-size: 15px&quot;&gt;&lt;b&gt;a2&lt;/b&gt;&lt;/font&gt;" style="text;html=1;resizable=0;autosize=1;align=center;verticalAlign=middle;points=[];fillColor=none;strokeColor=none;rounded=0;" parent="rhbLxkR_ch8scSMav9vm-1" vertex="1">
          <mxGeometry x="500.87" y="220.25" width="30" height="20" as="geometry" />
        </mxCell>
        <mxCell id="wUh2ZJJw5XUmt6fJqwXC-1" value="" style="shape=waypoint;sketch=0;fillStyle=solid;size=6;pointerEvents=1;points=[];fillColor=none;resizable=0;rotatable=0;perimeter=centerPerimeter;snapToPoint=1;strokeWidth=5;strokeColor=#FF0000;" parent="rhbLxkR_ch8scSMav9vm-1" vertex="1">
          <mxGeometry x="364.87" y="222.25" width="40" height="40" as="geometry" />
        </mxCell>
        <mxCell id="wUh2ZJJw5XUmt6fJqwXC-2" value="" style="shape=waypoint;sketch=0;fillStyle=solid;size=6;pointerEvents=1;points=[];fillColor=none;resizable=0;rotatable=0;perimeter=centerPerimeter;snapToPoint=1;strokeWidth=5;strokeColor=#FF0000;" parent="rhbLxkR_ch8scSMav9vm-1" vertex="1">
          <mxGeometry x="239.87" y="409.25" width="40" height="40" as="geometry" />
        </mxCell>
        <mxCell id="wUh2ZJJw5XUmt6fJqwXC-3" value="" style="endArrow=none;dashed=1;html=1;rounded=0;strokeWidth=2;fillColor=#1ba1e2;strokeColor=#006EAF;" parent="rhbLxkR_ch8scSMav9vm-1" edge="1">
          <mxGeometry width="50" height="50" relative="1" as="geometry">
            <mxPoint x="197.87" y="520.25" as="sourcePoint" />
            <mxPoint x="447.87" y="150.25" as="targetPoint" />
          </mxGeometry>
        </mxCell>
        <mxCell id="wUh2ZJJw5XUmt6fJqwXC-4" value="" style="endArrow=none;dashed=1;html=1;rounded=0;exitX=0.263;exitY=-0.01;exitDx=0;exitDy=0;exitPerimeter=0;strokeWidth=2;fillColor=#1ba1e2;strokeColor=#006EAF;" parent="rhbLxkR_ch8scSMav9vm-1" source="wUh2ZJJw5XUmt6fJqwXC-0" edge="1">
          <mxGeometry width="50" height="50" relative="1" as="geometry">
            <mxPoint x="407.87" y="400.25" as="sourcePoint" />
            <mxPoint x="567.87" y="440.25" as="targetPoint" />
          </mxGeometry>
        </mxCell>
        <mxCell id="wUh2ZJJw5XUmt6fJqwXC-5" value="" style="shape=waypoint;sketch=0;fillStyle=solid;size=6;pointerEvents=1;points=[];fillColor=none;resizable=0;rotatable=0;perimeter=centerPerimeter;snapToPoint=1;strokeWidth=5;strokeColor=#FF0000;" parent="rhbLxkR_ch8scSMav9vm-1" vertex="1">
          <mxGeometry x="490.87" y="440.25" width="40" height="40" as="geometry" />
        </mxCell>
        <mxCell id="wUh2ZJJw5XUmt6fJqwXC-6" value="" style="endArrow=none;dashed=1;html=1;rounded=0;exitX=0.654;exitY=0.868;exitDx=0;exitDy=0;exitPerimeter=0;strokeColor=#006EAF;strokeWidth=2;fillColor=#1ba1e2;" parent="rhbLxkR_ch8scSMav9vm-1" edge="1">
          <mxGeometry width="50" height="50" relative="1" as="geometry">
            <mxPoint x="511.7099999999999" y="518.0539999999999" as="sourcePoint" />
            <mxPoint x="511.63" y="308.25" as="targetPoint" />
          </mxGeometry>
        </mxCell>
        <mxCell id="wUh2ZJJw5XUmt6fJqwXC-7" value="" style="endArrow=none;dashed=1;html=1;rounded=0;strokeWidth=2;fillColor=#1ba1e2;strokeColor=#006EAF;" parent="rhbLxkR_ch8scSMav9vm-1" edge="1">
          <mxGeometry width="50" height="50" relative="1" as="geometry">
            <mxPoint x="446.87" y="480.25" as="sourcePoint" />
            <mxPoint x="566.87" y="300.25" as="targetPoint" />
          </mxGeometry>
        </mxCell>
        <mxCell id="wUh2ZJJw5XUmt6fJqwXC-8" value="" style="endArrow=none;dashed=1;html=1;rounded=0;strokeWidth=2;fillColor=#1ba1e2;strokeColor=#006EAF;" parent="rhbLxkR_ch8scSMav9vm-1" edge="1">
          <mxGeometry width="50" height="50" relative="1" as="geometry">
            <mxPoint x="177.87" y="340.25" as="sourcePoint" />
            <mxPoint x="297.87" y="470.25" as="targetPoint" />
          </mxGeometry>
        </mxCell>
        <mxCell id="wUh2ZJJw5XUmt6fJqwXC-9" value="" style="shape=crossbar;whiteSpace=wrap;html=1;rounded=1;strokeColor=#00CC00;strokeWidth=3;rotation=305;" parent="rhbLxkR_ch8scSMav9vm-1" vertex="1">
          <mxGeometry x="160" y="273.12" width="227" height="20" as="geometry" />
        </mxCell>
        <mxCell id="wUh2ZJJw5XUmt6fJqwXC-10" value="" style="shape=crossbar;whiteSpace=wrap;html=1;rounded=1;direction=south;strokeColor=#00CC00;strokeWidth=3;" parent="rhbLxkR_ch8scSMav9vm-1" vertex="1">
          <mxGeometry x="567.87" y="380.25" width="20" height="80" as="geometry" />
        </mxCell>
        <mxCell id="wUh2ZJJw5XUmt6fJqwXC-11" value="&lt;font color=&quot;#00cc00&quot;&gt;&lt;span style=&quot;font-size: 15px&quot;&gt;&lt;b&gt;a1&lt;/b&gt;&lt;/span&gt;&lt;/font&gt;" style="text;html=1;resizable=0;autosize=1;align=center;verticalAlign=middle;points=[];fillColor=none;strokeColor=none;rounded=0;" parent="rhbLxkR_ch8scSMav9vm-1" vertex="1">
          <mxGeometry x="577.87" y="403.25" width="30" height="20" as="geometry" />
        </mxCell>
        <mxCell id="wUh2ZJJw5XUmt6fJqwXC-12" value="&lt;font color=&quot;#00cc00&quot;&gt;&lt;span style=&quot;font-size: 15px&quot;&gt;&lt;b&gt;a3&lt;/b&gt;&lt;/span&gt;&lt;/font&gt;" style="text;html=1;resizable=0;autosize=1;align=center;verticalAlign=middle;points=[];fillColor=none;strokeColor=none;rounded=0;" parent="rhbLxkR_ch8scSMav9vm-1" vertex="1">
          <mxGeometry x="238.87" y="260.12" width="40" height="30" as="geometry" />
        </mxCell>
      </root>
    </mxGraphModel>
  </diagram>
  <diagram id="LzB2Ln9UdLTDcV_Ji9QY" name="第 2 页">
    <mxGraphModel dx="1418" dy="843" grid="1" gridSize="10" guides="1" tooltips="1" connect="1" arrows="1" fold="1" page="1" pageScale="1" pageWidth="827" pageHeight="1169" math="0" shadow="0">
      <root>
        <mxCell id="0" />
        <mxCell id="1" parent="0" />
        <mxCell id="fij-lq5NRWtd2k80Xsso-1" value="" style="endArrow=none;html=1;rounded=0;entryX=0.6;entryY=0.675;entryDx=0;entryDy=0;entryPerimeter=0;fontSize=12;verticalAlign=top;strokeColor=#666666;fillColor=#f5f5f5;strokeWidth=10;spacingTop=8;gradientColor=#b3b3b3;" parent="1" target="fij-lq5NRWtd2k80Xsso-35" edge="1">
          <mxGeometry width="50" height="50" relative="1" as="geometry">
            <mxPoint x="441" y="337" as="sourcePoint" />
            <mxPoint x="435" y="457" as="targetPoint" />
          </mxGeometry>
        </mxCell>
        <mxCell id="fij-lq5NRWtd2k80Xsso-2" value="" style="endArrow=none;html=1;rounded=0;fontSize=12;verticalAlign=top;fillColor=#f5f5f5;strokeColor=#666666;strokeWidth=10;spacingTop=8;gradientColor=#b3b3b3;" parent="1" source="fij-lq5NRWtd2k80Xsso-27" edge="1">
          <mxGeometry width="50" height="50" relative="1" as="geometry">
            <mxPoint x="353" y="507" as="sourcePoint" />
            <mxPoint x="450" y="680" as="targetPoint" />
          </mxGeometry>
        </mxCell>
        <mxCell id="fij-lq5NRWtd2k80Xsso-3" value="" style="line;strokeWidth=10;direction=south;html=1;strokeColor=#666666;fillColor=#f5f5f5;gradientColor=#b3b3b3;" parent="1" vertex="1">
          <mxGeometry x="345" y="260" width="10" height="325" as="geometry" />
        </mxCell>
        <mxCell id="fij-lq5NRWtd2k80Xsso-5" value="" style="endArrow=classic;html=1;fillColor=#0050ef;strokeColor=#001DBC;strokeWidth=3;" parent="1" edge="1">
          <mxGeometry width="50" height="50" relative="1" as="geometry">
            <mxPoint x="440" y="431.71000000000004" as="sourcePoint" />
            <mxPoint x="489.5" y="431.71000000000004" as="targetPoint" />
          </mxGeometry>
        </mxCell>
        <mxCell id="fij-lq5NRWtd2k80Xsso-6" value="&lt;font color=&quot;#001dbc&quot;&gt;X2&lt;/font&gt;" style="text;html=1;resizable=0;autosize=1;align=center;verticalAlign=middle;points=[];fillColor=none;strokeColor=none;rounded=0;" parent="1" vertex="1">
          <mxGeometry x="345" y="417" width="40" height="30" as="geometry" />
        </mxCell>
        <mxCell id="fij-lq5NRWtd2k80Xsso-7" value="&lt;font color=&quot;#001dbc&quot;&gt;X3&lt;/font&gt;" style="text;html=1;resizable=0;autosize=1;align=center;verticalAlign=middle;points=[];fillColor=none;strokeColor=none;rounded=0;" parent="1" vertex="1">
          <mxGeometry x="348" y="325" width="40" height="30" as="geometry" />
        </mxCell>
        <mxCell id="fij-lq5NRWtd2k80Xsso-8" value="&lt;font color=&quot;#001dbc&quot;&gt;X4&lt;/font&gt;" style="text;html=1;resizable=0;autosize=1;align=center;verticalAlign=middle;points=[];fillColor=none;strokeColor=none;rounded=0;" parent="1" vertex="1">
          <mxGeometry x="480" y="420" width="40" height="30" as="geometry" />
        </mxCell>
        <mxCell id="fij-lq5NRWtd2k80Xsso-9" value="&lt;font color=&quot;#005700&quot;&gt;Z2&lt;/font&gt;" style="text;html=1;resizable=0;autosize=1;align=center;verticalAlign=middle;points=[];fillColor=none;strokeColor=none;rounded=0;" parent="1" vertex="1">
          <mxGeometry x="365" y="476" width="40" height="30" as="geometry" />
        </mxCell>
        <mxCell id="fij-lq5NRWtd2k80Xsso-10" value="&lt;font color=&quot;#005700&quot;&gt;Z3&lt;/font&gt;" style="text;html=1;resizable=0;autosize=1;align=center;verticalAlign=middle;points=[];fillColor=none;strokeColor=none;rounded=0;" parent="1" vertex="1">
          <mxGeometry x="374" y="265" width="40" height="30" as="geometry" />
        </mxCell>
        <mxCell id="fij-lq5NRWtd2k80Xsso-11" value="&lt;font color=&quot;#005700&quot;&gt;Z4&lt;/font&gt;" style="text;html=1;resizable=0;autosize=1;align=center;verticalAlign=middle;points=[];fillColor=none;strokeColor=none;rounded=0;" parent="1" vertex="1">
          <mxGeometry x="467" y="458" width="40" height="30" as="geometry" />
        </mxCell>
        <mxCell id="fij-lq5NRWtd2k80Xsso-12" value="&lt;font color=&quot;#a20025&quot;&gt;O2&lt;/font&gt;" style="text;html=1;resizable=0;autosize=1;align=center;verticalAlign=middle;points=[];fillColor=none;strokeColor=none;rounded=0;" parent="1" vertex="1">
          <mxGeometry x="313" y="459" width="40" height="30" as="geometry" />
        </mxCell>
        <mxCell id="fij-lq5NRWtd2k80Xsso-13" value="&lt;font color=&quot;#a20025&quot;&gt;O3&lt;/font&gt;" style="text;html=1;resizable=0;autosize=1;align=center;verticalAlign=middle;points=[];fillColor=none;strokeColor=none;rounded=0;" parent="1" vertex="1">
          <mxGeometry x="318" y="225" width="40" height="30" as="geometry" />
        </mxCell>
        <mxCell id="fij-lq5NRWtd2k80Xsso-14" value="&lt;font color=&quot;#a20025&quot;&gt;O4&lt;/font&gt;" style="text;html=1;resizable=0;autosize=1;align=center;verticalAlign=middle;points=[];fillColor=none;strokeColor=none;rounded=0;" parent="1" vertex="1">
          <mxGeometry x="405" y="417" width="40" height="30" as="geometry" />
        </mxCell>
        <mxCell id="fij-lq5NRWtd2k80Xsso-15" value="" style="endArrow=classic;html=1;fillColor=#008a00;strokeColor=#005700;strokeWidth=3;" parent="1" edge="1">
          <mxGeometry width="50" height="50" relative="1" as="geometry">
            <mxPoint x="440" y="432" as="sourcePoint" />
            <mxPoint x="480" y="472" as="targetPoint" />
          </mxGeometry>
        </mxCell>
        <mxCell id="fij-lq5NRWtd2k80Xsso-16" value="" style="shape=crossbar;whiteSpace=wrap;html=1;rounded=1;direction=south;" parent="1" vertex="1">
          <mxGeometry x="231" y="475" width="20" height="110" as="geometry" />
        </mxCell>
        <mxCell id="fij-lq5NRWtd2k80Xsso-17" value="a1" style="text;html=1;resizable=0;autosize=1;align=center;verticalAlign=middle;points=[];fillColor=none;strokeColor=none;rounded=0;" parent="1" vertex="1">
          <mxGeometry x="234" y="523" width="30" height="20" as="geometry" />
        </mxCell>
        <mxCell id="fij-lq5NRWtd2k80Xsso-18" value="a3" style="text;html=1;resizable=0;autosize=1;align=center;verticalAlign=middle;points=[];fillColor=none;strokeColor=none;rounded=0;" parent="1" vertex="1">
          <mxGeometry x="500" y="373" width="40" height="30" as="geometry" />
        </mxCell>
        <mxCell id="fij-lq5NRWtd2k80Xsso-19" value="" style="endArrow=classic;html=1;fillColor=#008a00;strokeColor=#005700;strokeWidth=3;exitX=0.397;exitY=0.588;exitDx=0;exitDy=0;exitPerimeter=0;" parent="1" edge="1">
          <mxGeometry width="50" height="50" relative="1" as="geometry">
            <mxPoint x="349" y="582" as="sourcePoint" />
            <mxPoint x="349" y="503" as="targetPoint" />
          </mxGeometry>
        </mxCell>
        <mxCell id="fij-lq5NRWtd2k80Xsso-20" value="" style="endArrow=classic;html=1;fillColor=#0050ef;strokeColor=#001DBC;strokeWidth=3;" parent="1" edge="1">
          <mxGeometry width="50" height="50" relative="1" as="geometry">
            <mxPoint x="349" y="583" as="sourcePoint" />
            <mxPoint x="429" y="583" as="targetPoint" />
          </mxGeometry>
        </mxCell>
        <mxCell id="fij-lq5NRWtd2k80Xsso-21" value="&lt;font color=&quot;#001dbc&quot;&gt;X0&lt;/font&gt;" style="text;html=1;resizable=0;autosize=1;align=center;verticalAlign=middle;points=[];fillColor=none;strokeColor=none;rounded=0;" parent="1" vertex="1">
          <mxGeometry x="424" y="573" width="30" height="20" as="geometry" />
        </mxCell>
        <mxCell id="fij-lq5NRWtd2k80Xsso-22" value="&lt;font color=&quot;#005700&quot;&gt;Z0&lt;/font&gt;" style="text;html=1;resizable=0;autosize=1;align=center;verticalAlign=middle;points=[];fillColor=none;strokeColor=none;rounded=0;" parent="1" vertex="1">
          <mxGeometry x="318" y="506" width="30" height="20" as="geometry" />
        </mxCell>
        <mxCell id="fij-lq5NRWtd2k80Xsso-23" value="" style="endArrow=classic;html=1;fillColor=#008a00;strokeColor=#005700;strokeWidth=3;" parent="1" edge="1">
          <mxGeometry width="50" height="50" relative="1" as="geometry">
            <mxPoint x="350" y="583" as="sourcePoint" />
            <mxPoint x="400" y="630" as="targetPoint" />
          </mxGeometry>
        </mxCell>
        <mxCell id="fij-lq5NRWtd2k80Xsso-24" value="&lt;font color=&quot;#005700&quot;&gt;Z1&lt;/font&gt;" style="text;html=1;resizable=0;autosize=1;align=center;verticalAlign=middle;points=[];fillColor=none;strokeColor=none;rounded=0;" parent="1" vertex="1">
          <mxGeometry x="388" y="603" width="40" height="30" as="geometry" />
        </mxCell>
        <mxCell id="fij-lq5NRWtd2k80Xsso-25" value="" style="endArrow=classic;html=1;fillColor=#0050ef;strokeColor=#001DBC;strokeWidth=3;" parent="1" edge="1">
          <mxGeometry width="50" height="50" relative="1" as="geometry">
            <mxPoint x="349" y="583" as="sourcePoint" />
            <mxPoint x="349" y="533" as="targetPoint" />
          </mxGeometry>
        </mxCell>
        <mxCell id="fij-lq5NRWtd2k80Xsso-26" value="&lt;font color=&quot;#001dbc&quot;&gt;X1&lt;/font&gt;" style="text;html=1;resizable=0;autosize=1;align=center;verticalAlign=middle;points=[];fillColor=none;strokeColor=none;rounded=0;" parent="1" vertex="1">
          <mxGeometry x="345" y="533" width="40" height="30" as="geometry" />
        </mxCell>
        <mxCell id="fij-lq5NRWtd2k80Xsso-27" value="" style="shape=waypoint;sketch=0;size=6;pointerEvents=1;points=[];fillColor=#a20025;resizable=0;rotatable=0;perimeter=centerPerimeter;snapToPoint=1;strokeColor=#6F0000;fontColor=#ffffff;strokeWidth=5;" parent="1" vertex="1">
          <mxGeometry x="330" y="563" width="40" height="40" as="geometry" />
        </mxCell>
        <mxCell id="fij-lq5NRWtd2k80Xsso-28" value="" style="endArrow=classic;html=1;fillColor=#0050ef;strokeColor=#001DBC;strokeWidth=3;" parent="1" edge="1">
          <mxGeometry width="50" height="50" relative="1" as="geometry">
            <mxPoint x="349.71000000000004" y="473" as="sourcePoint" />
            <mxPoint x="349.71000000000004" y="423" as="targetPoint" />
          </mxGeometry>
        </mxCell>
        <mxCell id="fij-lq5NRWtd2k80Xsso-29" value="" style="endArrow=classic;html=1;fillColor=#008a00;strokeColor=#005700;strokeWidth=3;" parent="1" edge="1">
          <mxGeometry width="50" height="50" relative="1" as="geometry">
            <mxPoint x="349" y="472" as="sourcePoint" />
            <mxPoint x="389" y="512" as="targetPoint" />
          </mxGeometry>
        </mxCell>
        <mxCell id="fij-lq5NRWtd2k80Xsso-30" value="&lt;font color=&quot;#a20025&quot;&gt;O0 O1&lt;/font&gt;" style="text;html=1;resizable=0;autosize=1;align=center;verticalAlign=middle;points=[];fillColor=none;strokeColor=none;rounded=0;" parent="1" vertex="1">
          <mxGeometry x="319" y="581" width="60" height="30" as="geometry" />
        </mxCell>
        <mxCell id="fij-lq5NRWtd2k80Xsso-31" value="" style="shape=crossbar;whiteSpace=wrap;html=1;rounded=1;direction=south;" parent="1" vertex="1">
          <mxGeometry x="231" y="250" width="20" height="225" as="geometry" />
        </mxCell>
        <mxCell id="fij-lq5NRWtd2k80Xsso-32" value="a2" style="text;html=1;resizable=0;autosize=1;align=center;verticalAlign=middle;points=[];fillColor=none;strokeColor=none;rounded=0;" parent="1" vertex="1">
          <mxGeometry x="231" y="330" width="40" height="30" as="geometry" />
        </mxCell>
        <mxCell id="fij-lq5NRWtd2k80Xsso-33" value="" style="endArrow=classic;html=1;fillColor=#0050ef;strokeColor=#001DBC;strokeWidth=3;entryX=0.2;entryY=0.579;entryDx=0;entryDy=0;entryPerimeter=0;exitX=0.662;exitY=0.429;exitDx=0;exitDy=0;exitPerimeter=0;" parent="1" source="fij-lq5NRWtd2k80Xsso-34" edge="1">
          <mxGeometry width="50" height="50" relative="1" as="geometry">
            <mxPoint x="350" y="401" as="sourcePoint" />
            <mxPoint x="349.21000000000004" y="346" as="targetPoint" />
          </mxGeometry>
        </mxCell>
        <mxCell id="fij-lq5NRWtd2k80Xsso-34" value="" style="shape=waypoint;sketch=0;size=6;pointerEvents=1;points=[];fillColor=#a20025;resizable=0;rotatable=0;perimeter=centerPerimeter;snapToPoint=1;strokeColor=#6F0000;fontColor=#ffffff;strokeWidth=5;" parent="1" vertex="1">
          <mxGeometry x="330" y="235" width="40" height="40" as="geometry" />
        </mxCell>
        <mxCell id="fij-lq5NRWtd2k80Xsso-35" value="" style="shape=waypoint;sketch=0;size=6;pointerEvents=1;points=[];fillColor=#a20025;resizable=0;rotatable=0;perimeter=centerPerimeter;snapToPoint=1;strokeColor=#6F0000;fontColor=#ffffff;strokeWidth=5;" parent="1" vertex="1">
          <mxGeometry x="421" y="412" width="40" height="40" as="geometry" />
        </mxCell>
        <mxCell id="fij-lq5NRWtd2k80Xsso-36" value="" style="shape=crossbar;whiteSpace=wrap;html=1;rounded=1;direction=south;" parent="1" vertex="1">
          <mxGeometry x="520" y="340" width="20" height="96" as="geometry" />
        </mxCell>
        <mxCell id="fij-lq5NRWtd2k80Xsso-37" value="" style="shape=waypoint;sketch=0;size=6;pointerEvents=1;points=[];fillColor=#a20025;resizable=0;rotatable=0;perimeter=centerPerimeter;snapToPoint=1;strokeColor=#6F0000;fontColor=#ffffff;strokeWidth=5;" parent="1" vertex="1">
          <mxGeometry x="330" y="454" width="40" height="40" as="geometry" />
        </mxCell>
        <mxCell id="fij-lq5NRWtd2k80Xsso-38" value="" style="endArrow=none;dashed=1;html=1;rounded=0;strokeWidth=6;fontSize=12;verticalAlign=top;strokeColor=#666666;fillColor=#f5f5f5;spacingTop=8;gradientColor=#b3b3b3;" parent="1" source="fij-lq5NRWtd2k80Xsso-34" edge="1">
          <mxGeometry width="50" height="50" relative="1" as="geometry">
            <mxPoint x="650" y="605" as="sourcePoint" />
            <mxPoint x="440" y="340" as="targetPoint" />
          </mxGeometry>
        </mxCell>
        <mxCell id="fij-lq5NRWtd2k80Xsso-4" value="" style="endArrow=classic;html=1;fillColor=#008a00;strokeColor=#005700;strokeWidth=3;" parent="1" edge="1">
          <mxGeometry width="50" height="50" relative="1" as="geometry">
            <mxPoint x="348" y="251" as="sourcePoint" />
            <mxPoint x="388" y="291" as="targetPoint" />
          </mxGeometry>
        </mxCell>
      </root>
    </mxGraphModel>
  </diagram>
</mxfile>
